%TF.GenerationSoftware,KiCad,Pcbnew,(6.0.7)*%
%TF.CreationDate,2022-11-20T15:50:49-05:00*%
%TF.ProjectId,CANBurner,43414e42-7572-46e6-9572-2e6b69636164,2.0*%
%TF.SameCoordinates,Original*%
%TF.FileFunction,Legend,Top*%
%TF.FilePolarity,Positive*%
%FSLAX46Y46*%
G04 Gerber Fmt 4.6, Leading zero omitted, Abs format (unit mm)*
G04 Created by KiCad (PCBNEW (6.0.7)) date 2022-11-20 15:50:49*
%MOMM*%
%LPD*%
G01*
G04 APERTURE LIST*
%ADD10C,0.100000*%
%ADD11C,0.125000*%
%ADD12C,0.333000*%
%ADD13C,0.083250*%
%ADD14C,0.050000*%
%ADD15C,0.150000*%
%ADD16C,0.120000*%
G04 APERTURE END LIST*
D10*
X89167857Y-44067857D02*
X89286904Y-44401190D01*
X89405952Y-44067857D01*
X89834523Y-43901190D02*
X89596428Y-43901190D01*
X89572619Y-44139285D01*
X89596428Y-44115476D01*
X89644047Y-44091666D01*
X89763095Y-44091666D01*
X89810714Y-44115476D01*
X89834523Y-44139285D01*
X89858333Y-44186904D01*
X89858333Y-44305952D01*
X89834523Y-44353571D01*
X89810714Y-44377380D01*
X89763095Y-44401190D01*
X89644047Y-44401190D01*
X89596428Y-44377380D01*
X89572619Y-44353571D01*
D11*
X76904230Y-24062771D02*
X76666135Y-24062771D01*
X76642326Y-24300866D01*
X76666135Y-24277057D01*
X76713754Y-24253247D01*
X76832802Y-24253247D01*
X76880421Y-24277057D01*
X76904230Y-24300866D01*
X76928040Y-24348485D01*
X76928040Y-24467533D01*
X76904230Y-24515152D01*
X76880421Y-24538961D01*
X76832802Y-24562771D01*
X76713754Y-24562771D01*
X76666135Y-24538961D01*
X76642326Y-24515152D01*
X77070897Y-24062771D02*
X77237564Y-24562771D01*
X77404230Y-24062771D01*
X70960362Y-41850000D02*
X70912743Y-41826190D01*
X70841315Y-41826190D01*
X70769886Y-41850000D01*
X70722267Y-41897619D01*
X70698457Y-41945238D01*
X70674648Y-42040476D01*
X70674648Y-42111904D01*
X70698457Y-42207142D01*
X70722267Y-42254761D01*
X70769886Y-42302380D01*
X70841315Y-42326190D01*
X70888934Y-42326190D01*
X70960362Y-42302380D01*
X70984172Y-42278571D01*
X70984172Y-42111904D01*
X70888934Y-42111904D01*
X71198457Y-42326190D02*
X71198457Y-41826190D01*
X71484172Y-42326190D01*
X71484172Y-41826190D01*
X71722267Y-42326190D02*
X71722267Y-41826190D01*
X71841315Y-41826190D01*
X71912743Y-41850000D01*
X71960362Y-41897619D01*
X71984172Y-41945238D01*
X72007981Y-42040476D01*
X72007981Y-42111904D01*
X71984172Y-42207142D01*
X71960362Y-42254761D01*
X71912743Y-42302380D01*
X71841315Y-42326190D01*
X71722267Y-42326190D01*
X81722326Y-24419914D02*
X81960421Y-24419914D01*
X81674707Y-24562771D02*
X81841373Y-24062771D01*
X82008040Y-24562771D01*
X82150897Y-24110390D02*
X82174707Y-24086581D01*
X82222326Y-24062771D01*
X82341373Y-24062771D01*
X82388992Y-24086581D01*
X82412802Y-24110390D01*
X82436611Y-24158009D01*
X82436611Y-24205628D01*
X82412802Y-24277057D01*
X82127088Y-24562771D01*
X82436611Y-24562771D01*
X89870000Y-39825952D02*
X89846190Y-39873571D01*
X89846190Y-39945000D01*
X89870000Y-40016428D01*
X89917619Y-40064047D01*
X89965238Y-40087857D01*
X90060476Y-40111666D01*
X90131904Y-40111666D01*
X90227142Y-40087857D01*
X90274761Y-40064047D01*
X90322380Y-40016428D01*
X90346190Y-39945000D01*
X90346190Y-39897380D01*
X90322380Y-39825952D01*
X90298571Y-39802142D01*
X90131904Y-39802142D01*
X90131904Y-39897380D01*
X90346190Y-39587857D02*
X89846190Y-39587857D01*
X90346190Y-39302142D01*
X89846190Y-39302142D01*
X90346190Y-39064047D02*
X89846190Y-39064047D01*
X89846190Y-38945000D01*
X89870000Y-38873571D01*
X89917619Y-38825952D01*
X89965238Y-38802142D01*
X90060476Y-38778333D01*
X90131904Y-38778333D01*
X90227142Y-38802142D01*
X90274761Y-38825952D01*
X90322380Y-38873571D01*
X90346190Y-38945000D01*
X90346190Y-39064047D01*
D12*
X78607142Y-44485714D02*
X78535714Y-44557142D01*
X78321428Y-44628571D01*
X78178571Y-44628571D01*
X77964285Y-44557142D01*
X77821428Y-44414285D01*
X77750000Y-44271428D01*
X77678571Y-43985714D01*
X77678571Y-43771428D01*
X77750000Y-43485714D01*
X77821428Y-43342857D01*
X77964285Y-43200000D01*
X78178571Y-43128571D01*
X78321428Y-43128571D01*
X78535714Y-43200000D01*
X78607142Y-43271428D01*
X79178571Y-44200000D02*
X79892857Y-44200000D01*
X79035714Y-44628571D02*
X79535714Y-43128571D01*
X80035714Y-44628571D01*
X80535714Y-44628571D02*
X80535714Y-43128571D01*
X81392857Y-44628571D01*
X81392857Y-43128571D01*
X82607142Y-43842857D02*
X82821428Y-43914285D01*
X82892857Y-43985714D01*
X82964285Y-44128571D01*
X82964285Y-44342857D01*
X82892857Y-44485714D01*
X82821428Y-44557142D01*
X82678571Y-44628571D01*
X82107142Y-44628571D01*
X82107142Y-43128571D01*
X82607142Y-43128571D01*
X82750000Y-43200000D01*
X82821428Y-43271428D01*
X82892857Y-43414285D01*
X82892857Y-43557142D01*
X82821428Y-43700000D01*
X82750000Y-43771428D01*
X82607142Y-43842857D01*
X82107142Y-43842857D01*
X84250000Y-43628571D02*
X84250000Y-44628571D01*
X83607142Y-43628571D02*
X83607142Y-44414285D01*
X83678571Y-44557142D01*
X83821428Y-44628571D01*
X84035714Y-44628571D01*
X84178571Y-44557142D01*
X84250000Y-44485714D01*
X84964285Y-44628571D02*
X84964285Y-43628571D01*
X84964285Y-43914285D02*
X85035714Y-43771428D01*
X85107142Y-43700000D01*
X85250000Y-43628571D01*
X85392857Y-43628571D01*
X85892857Y-43628571D02*
X85892857Y-44628571D01*
X85892857Y-43771428D02*
X85964285Y-43700000D01*
X86107142Y-43628571D01*
X86321428Y-43628571D01*
X86464285Y-43700000D01*
X86535714Y-43842857D01*
X86535714Y-44628571D01*
X87821428Y-44557142D02*
X87678571Y-44628571D01*
X87392857Y-44628571D01*
X87250000Y-44557142D01*
X87178571Y-44414285D01*
X87178571Y-43842857D01*
X87250000Y-43700000D01*
X87392857Y-43628571D01*
X87678571Y-43628571D01*
X87821428Y-43700000D01*
X87892857Y-43842857D01*
X87892857Y-43985714D01*
X87178571Y-44128571D01*
X88535714Y-44628571D02*
X88535714Y-43628571D01*
X88535714Y-43914285D02*
X88607142Y-43771428D01*
X88678571Y-43700000D01*
X88821428Y-43628571D01*
X88964285Y-43628571D01*
D13*
X80424928Y-40405416D02*
X80472500Y-40421273D01*
X80551785Y-40421273D01*
X80583500Y-40405416D01*
X80599357Y-40389559D01*
X80615214Y-40357845D01*
X80615214Y-40326131D01*
X80599357Y-40294416D01*
X80583500Y-40278559D01*
X80551785Y-40262702D01*
X80488357Y-40246845D01*
X80456642Y-40230988D01*
X80440785Y-40215131D01*
X80424928Y-40183416D01*
X80424928Y-40151702D01*
X80440785Y-40119988D01*
X80456642Y-40104131D01*
X80488357Y-40088273D01*
X80567642Y-40088273D01*
X80615214Y-40104131D01*
X80757928Y-40421273D02*
X80757928Y-40199273D01*
X80757928Y-40088273D02*
X80742071Y-40104131D01*
X80757928Y-40119988D01*
X80773785Y-40104131D01*
X80757928Y-40088273D01*
X80757928Y-40119988D01*
X81059214Y-40199273D02*
X81059214Y-40468845D01*
X81043357Y-40500559D01*
X81027500Y-40516416D01*
X80995785Y-40532273D01*
X80948214Y-40532273D01*
X80916500Y-40516416D01*
X81059214Y-40405416D02*
X81027500Y-40421273D01*
X80964071Y-40421273D01*
X80932357Y-40405416D01*
X80916500Y-40389559D01*
X80900642Y-40357845D01*
X80900642Y-40262702D01*
X80916500Y-40230988D01*
X80932357Y-40215131D01*
X80964071Y-40199273D01*
X81027500Y-40199273D01*
X81059214Y-40215131D01*
D11*
X79158516Y-24070000D02*
X79110897Y-24046190D01*
X79039469Y-24046190D01*
X78968040Y-24070000D01*
X78920421Y-24117619D01*
X78896611Y-24165238D01*
X78872802Y-24260476D01*
X78872802Y-24331904D01*
X78896611Y-24427142D01*
X78920421Y-24474761D01*
X78968040Y-24522380D01*
X79039469Y-24546190D01*
X79087088Y-24546190D01*
X79158516Y-24522380D01*
X79182326Y-24498571D01*
X79182326Y-24331904D01*
X79087088Y-24331904D01*
X79396611Y-24546190D02*
X79396611Y-24046190D01*
X79682326Y-24546190D01*
X79682326Y-24046190D01*
X79920421Y-24546190D02*
X79920421Y-24046190D01*
X80039469Y-24046190D01*
X80110897Y-24070000D01*
X80158516Y-24117619D01*
X80182326Y-24165238D01*
X80206135Y-24260476D01*
X80206135Y-24331904D01*
X80182326Y-24427142D01*
X80158516Y-24474761D01*
X80110897Y-24522380D01*
X80039469Y-24546190D01*
X79920421Y-24546190D01*
X74904761Y-35591216D02*
X74904761Y-35091216D01*
X75095238Y-35091216D01*
X75142857Y-35115026D01*
X75166666Y-35138835D01*
X75190476Y-35186454D01*
X75190476Y-35257883D01*
X75166666Y-35305502D01*
X75142857Y-35329311D01*
X75095238Y-35353121D01*
X74904761Y-35353121D01*
X75690476Y-35543597D02*
X75666666Y-35567406D01*
X75595238Y-35591216D01*
X75547619Y-35591216D01*
X75476190Y-35567406D01*
X75428571Y-35519787D01*
X75404761Y-35472168D01*
X75380952Y-35376930D01*
X75380952Y-35305502D01*
X75404761Y-35210264D01*
X75428571Y-35162645D01*
X75476190Y-35115026D01*
X75547619Y-35091216D01*
X75595238Y-35091216D01*
X75666666Y-35115026D01*
X75690476Y-35138835D01*
X76071428Y-35329311D02*
X75904761Y-35329311D01*
X75904761Y-35591216D02*
X75904761Y-35091216D01*
X76142857Y-35091216D01*
D14*
X72055000Y-28113095D02*
X72055000Y-28315476D01*
X72066904Y-28339285D01*
X72078809Y-28351190D01*
X72102619Y-28363095D01*
X72150238Y-28363095D01*
X72174047Y-28351190D01*
X72185952Y-28339285D01*
X72197857Y-28315476D01*
X72197857Y-28113095D01*
X72305000Y-28351190D02*
X72328809Y-28363095D01*
X72376428Y-28363095D01*
X72400238Y-28351190D01*
X72412142Y-28327380D01*
X72412142Y-28315476D01*
X72400238Y-28291666D01*
X72376428Y-28279761D01*
X72340714Y-28279761D01*
X72316904Y-28267857D01*
X72305000Y-28244047D01*
X72305000Y-28232142D01*
X72316904Y-28208333D01*
X72340714Y-28196428D01*
X72376428Y-28196428D01*
X72400238Y-28208333D01*
X72614523Y-28351190D02*
X72590714Y-28363095D01*
X72543095Y-28363095D01*
X72519285Y-28351190D01*
X72507380Y-28327380D01*
X72507380Y-28232142D01*
X72519285Y-28208333D01*
X72543095Y-28196428D01*
X72590714Y-28196428D01*
X72614523Y-28208333D01*
X72626428Y-28232142D01*
X72626428Y-28255952D01*
X72507380Y-28279761D01*
X72888333Y-28196428D02*
X72983571Y-28196428D01*
X72924047Y-28363095D02*
X72924047Y-28148809D01*
X72935952Y-28125000D01*
X72959761Y-28113095D01*
X72983571Y-28113095D01*
X73102619Y-28363095D02*
X73078809Y-28351190D01*
X73066904Y-28339285D01*
X73055000Y-28315476D01*
X73055000Y-28244047D01*
X73066904Y-28220238D01*
X73078809Y-28208333D01*
X73102619Y-28196428D01*
X73138333Y-28196428D01*
X73162142Y-28208333D01*
X73174047Y-28220238D01*
X73185952Y-28244047D01*
X73185952Y-28315476D01*
X73174047Y-28339285D01*
X73162142Y-28351190D01*
X73138333Y-28363095D01*
X73102619Y-28363095D01*
X73293095Y-28363095D02*
X73293095Y-28196428D01*
X73293095Y-28244047D02*
X73305000Y-28220238D01*
X73316904Y-28208333D01*
X73340714Y-28196428D01*
X73364523Y-28196428D01*
X73674047Y-28363095D02*
X73650238Y-28351190D01*
X73638333Y-28327380D01*
X73638333Y-28113095D01*
X73805000Y-28363095D02*
X73781190Y-28351190D01*
X73769285Y-28339285D01*
X73757380Y-28315476D01*
X73757380Y-28244047D01*
X73769285Y-28220238D01*
X73781190Y-28208333D01*
X73805000Y-28196428D01*
X73840714Y-28196428D01*
X73864523Y-28208333D01*
X73876428Y-28220238D01*
X73888333Y-28244047D01*
X73888333Y-28315476D01*
X73876428Y-28339285D01*
X73864523Y-28351190D01*
X73840714Y-28363095D01*
X73805000Y-28363095D01*
X73971666Y-28196428D02*
X74019285Y-28363095D01*
X74066904Y-28244047D01*
X74114523Y-28363095D01*
X74162142Y-28196428D01*
X74352619Y-28351190D02*
X74328809Y-28363095D01*
X74281190Y-28363095D01*
X74257380Y-28351190D01*
X74245476Y-28327380D01*
X74245476Y-28232142D01*
X74257380Y-28208333D01*
X74281190Y-28196428D01*
X74328809Y-28196428D01*
X74352619Y-28208333D01*
X74364523Y-28232142D01*
X74364523Y-28255952D01*
X74245476Y-28279761D01*
X74471666Y-28363095D02*
X74471666Y-28196428D01*
X74471666Y-28244047D02*
X74483571Y-28220238D01*
X74495476Y-28208333D01*
X74519285Y-28196428D01*
X74543095Y-28196428D01*
X74793095Y-28196428D02*
X74852619Y-28363095D01*
X74912142Y-28196428D01*
X75043095Y-28363095D02*
X75019285Y-28351190D01*
X75007380Y-28339285D01*
X74995476Y-28315476D01*
X74995476Y-28244047D01*
X75007380Y-28220238D01*
X75019285Y-28208333D01*
X75043095Y-28196428D01*
X75078809Y-28196428D01*
X75102619Y-28208333D01*
X75114523Y-28220238D01*
X75126428Y-28244047D01*
X75126428Y-28315476D01*
X75114523Y-28339285D01*
X75102619Y-28351190D01*
X75078809Y-28363095D01*
X75043095Y-28363095D01*
X75269285Y-28363095D02*
X75245476Y-28351190D01*
X75233571Y-28327380D01*
X75233571Y-28113095D01*
X75328809Y-28196428D02*
X75424047Y-28196428D01*
X75364523Y-28113095D02*
X75364523Y-28327380D01*
X75376428Y-28351190D01*
X75400238Y-28363095D01*
X75424047Y-28363095D01*
X75614523Y-28363095D02*
X75614523Y-28232142D01*
X75602619Y-28208333D01*
X75578809Y-28196428D01*
X75531190Y-28196428D01*
X75507380Y-28208333D01*
X75614523Y-28351190D02*
X75590714Y-28363095D01*
X75531190Y-28363095D01*
X75507380Y-28351190D01*
X75495476Y-28327380D01*
X75495476Y-28303571D01*
X75507380Y-28279761D01*
X75531190Y-28267857D01*
X75590714Y-28267857D01*
X75614523Y-28255952D01*
X75840714Y-28196428D02*
X75840714Y-28398809D01*
X75828809Y-28422619D01*
X75816904Y-28434523D01*
X75793095Y-28446428D01*
X75757380Y-28446428D01*
X75733571Y-28434523D01*
X75840714Y-28351190D02*
X75816904Y-28363095D01*
X75769285Y-28363095D01*
X75745476Y-28351190D01*
X75733571Y-28339285D01*
X75721666Y-28315476D01*
X75721666Y-28244047D01*
X75733571Y-28220238D01*
X75745476Y-28208333D01*
X75769285Y-28196428D01*
X75816904Y-28196428D01*
X75840714Y-28208333D01*
X76055000Y-28351190D02*
X76031190Y-28363095D01*
X75983571Y-28363095D01*
X75959761Y-28351190D01*
X75947857Y-28327380D01*
X75947857Y-28232142D01*
X75959761Y-28208333D01*
X75983571Y-28196428D01*
X76031190Y-28196428D01*
X76055000Y-28208333D01*
X76066904Y-28232142D01*
X76066904Y-28255952D01*
X75947857Y-28279761D01*
X76328809Y-28196428D02*
X76424047Y-28196428D01*
X76364523Y-28363095D02*
X76364523Y-28148809D01*
X76376428Y-28125000D01*
X76400238Y-28113095D01*
X76424047Y-28113095D01*
X76614523Y-28363095D02*
X76614523Y-28232142D01*
X76602619Y-28208333D01*
X76578809Y-28196428D01*
X76531190Y-28196428D01*
X76507380Y-28208333D01*
X76614523Y-28351190D02*
X76590714Y-28363095D01*
X76531190Y-28363095D01*
X76507380Y-28351190D01*
X76495476Y-28327380D01*
X76495476Y-28303571D01*
X76507380Y-28279761D01*
X76531190Y-28267857D01*
X76590714Y-28267857D01*
X76614523Y-28255952D01*
X76733571Y-28196428D02*
X76733571Y-28363095D01*
X76733571Y-28220238D02*
X76745476Y-28208333D01*
X76769285Y-28196428D01*
X76805000Y-28196428D01*
X76828809Y-28208333D01*
X76840714Y-28232142D01*
X76840714Y-28363095D01*
X77185952Y-28363095D02*
X77162142Y-28351190D01*
X77150238Y-28339285D01*
X77138333Y-28315476D01*
X77138333Y-28244047D01*
X77150238Y-28220238D01*
X77162142Y-28208333D01*
X77185952Y-28196428D01*
X77221666Y-28196428D01*
X77245476Y-28208333D01*
X77257380Y-28220238D01*
X77269285Y-28244047D01*
X77269285Y-28315476D01*
X77257380Y-28339285D01*
X77245476Y-28351190D01*
X77221666Y-28363095D01*
X77185952Y-28363095D01*
X77376428Y-28196428D02*
X77376428Y-28363095D01*
X77376428Y-28220238D02*
X77388333Y-28208333D01*
X77412142Y-28196428D01*
X77447857Y-28196428D01*
X77471666Y-28208333D01*
X77483571Y-28232142D01*
X77483571Y-28363095D01*
X77638333Y-28363095D02*
X77614523Y-28351190D01*
X77602619Y-28327380D01*
X77602619Y-28113095D01*
X77709761Y-28196428D02*
X77769285Y-28363095D01*
X77828809Y-28196428D02*
X77769285Y-28363095D01*
X77745476Y-28422619D01*
X77733571Y-28434523D01*
X77709761Y-28446428D01*
D11*
X68378571Y-38131216D02*
X68140476Y-38131216D01*
X68140476Y-37631216D01*
X68545238Y-37869311D02*
X68711904Y-37869311D01*
X68783333Y-38131216D02*
X68545238Y-38131216D01*
X68545238Y-37631216D01*
X68783333Y-37631216D01*
X68997619Y-38131216D02*
X68997619Y-37631216D01*
X69116666Y-37631216D01*
X69188095Y-37655026D01*
X69235714Y-37702645D01*
X69259523Y-37750264D01*
X69283333Y-37845502D01*
X69283333Y-37916930D01*
X69259523Y-38012168D01*
X69235714Y-38059787D01*
X69188095Y-38107406D01*
X69116666Y-38131216D01*
X68997619Y-38131216D01*
X90322380Y-35933096D02*
X90346190Y-35861667D01*
X90346190Y-35742620D01*
X90322380Y-35695001D01*
X90298571Y-35671191D01*
X90250952Y-35647381D01*
X90203333Y-35647381D01*
X90155714Y-35671191D01*
X90131904Y-35695001D01*
X90108095Y-35742620D01*
X90084285Y-35837858D01*
X90060476Y-35885477D01*
X90036666Y-35909286D01*
X89989047Y-35933096D01*
X89941428Y-35933096D01*
X89893809Y-35909286D01*
X89870000Y-35885477D01*
X89846190Y-35837858D01*
X89846190Y-35718810D01*
X89870000Y-35647381D01*
X90346190Y-35433096D02*
X90012857Y-35433096D01*
X89846190Y-35433096D02*
X89870000Y-35456905D01*
X89893809Y-35433096D01*
X89870000Y-35409286D01*
X89846190Y-35433096D01*
X89893809Y-35433096D01*
X90012857Y-34980715D02*
X90417619Y-34980715D01*
X90465238Y-35004524D01*
X90489047Y-35028334D01*
X90512857Y-35075953D01*
X90512857Y-35147381D01*
X90489047Y-35195001D01*
X90322380Y-34980715D02*
X90346190Y-35028334D01*
X90346190Y-35123572D01*
X90322380Y-35171191D01*
X90298571Y-35195001D01*
X90250952Y-35218810D01*
X90108095Y-35218810D01*
X90060476Y-35195001D01*
X90036666Y-35171191D01*
X90012857Y-35123572D01*
X90012857Y-35028334D01*
X90036666Y-34980715D01*
X81009121Y-41281175D02*
X80961502Y-41257365D01*
X80890074Y-41257365D01*
X80818645Y-41281175D01*
X80771026Y-41328794D01*
X80747216Y-41376413D01*
X80723407Y-41471651D01*
X80723407Y-41543079D01*
X80747216Y-41638317D01*
X80771026Y-41685936D01*
X80818645Y-41733555D01*
X80890074Y-41757365D01*
X80937693Y-41757365D01*
X81009121Y-41733555D01*
X81032931Y-41709746D01*
X81032931Y-41543079D01*
X80937693Y-41543079D01*
X81247216Y-41757365D02*
X81247216Y-41257365D01*
X81532931Y-41757365D01*
X81532931Y-41257365D01*
X81771026Y-41757365D02*
X81771026Y-41257365D01*
X81890074Y-41257365D01*
X81961502Y-41281175D01*
X82009121Y-41328794D01*
X82032931Y-41376413D01*
X82056740Y-41471651D01*
X82056740Y-41543079D01*
X82032931Y-41638317D01*
X82009121Y-41685936D01*
X81961502Y-41733555D01*
X81890074Y-41757365D01*
X81771026Y-41757365D01*
D14*
X71340714Y-28863095D02*
X71257380Y-28744047D01*
X71197857Y-28863095D02*
X71197857Y-28613095D01*
X71293095Y-28613095D01*
X71316904Y-28625000D01*
X71328809Y-28636904D01*
X71340714Y-28660714D01*
X71340714Y-28696428D01*
X71328809Y-28720238D01*
X71316904Y-28732142D01*
X71293095Y-28744047D01*
X71197857Y-28744047D01*
X71638333Y-28732142D02*
X71828809Y-28732142D01*
X71828809Y-28803571D02*
X71638333Y-28803571D01*
X72209761Y-28958333D02*
X72197857Y-28946428D01*
X72174047Y-28910714D01*
X72162142Y-28886904D01*
X72150238Y-28851190D01*
X72138333Y-28791666D01*
X72138333Y-28744047D01*
X72150238Y-28684523D01*
X72162142Y-28648809D01*
X72174047Y-28625000D01*
X72197857Y-28589285D01*
X72209761Y-28577380D01*
X72269285Y-28613095D02*
X72352619Y-28863095D01*
X72435952Y-28613095D01*
X72507380Y-28851190D02*
X72531190Y-28863095D01*
X72578809Y-28863095D01*
X72602619Y-28851190D01*
X72614523Y-28827380D01*
X72614523Y-28815476D01*
X72602619Y-28791666D01*
X72578809Y-28779761D01*
X72543095Y-28779761D01*
X72519285Y-28767857D01*
X72507380Y-28744047D01*
X72507380Y-28732142D01*
X72519285Y-28708333D01*
X72543095Y-28696428D01*
X72578809Y-28696428D01*
X72602619Y-28708333D01*
X72697857Y-28696428D02*
X72757380Y-28863095D01*
X72816904Y-28696428D02*
X72757380Y-28863095D01*
X72733571Y-28922619D01*
X72721666Y-28934523D01*
X72697857Y-28946428D01*
X72900238Y-28851190D02*
X72924047Y-28863095D01*
X72971666Y-28863095D01*
X72995476Y-28851190D01*
X73007380Y-28827380D01*
X73007380Y-28815476D01*
X72995476Y-28791666D01*
X72971666Y-28779761D01*
X72935952Y-28779761D01*
X72912142Y-28767857D01*
X72900238Y-28744047D01*
X72900238Y-28732142D01*
X72912142Y-28708333D01*
X72935952Y-28696428D01*
X72971666Y-28696428D01*
X72995476Y-28708333D01*
X73078809Y-28696428D02*
X73174047Y-28696428D01*
X73114523Y-28613095D02*
X73114523Y-28827380D01*
X73126428Y-28851190D01*
X73150238Y-28863095D01*
X73174047Y-28863095D01*
X73352619Y-28851190D02*
X73328809Y-28863095D01*
X73281190Y-28863095D01*
X73257380Y-28851190D01*
X73245476Y-28827380D01*
X73245476Y-28732142D01*
X73257380Y-28708333D01*
X73281190Y-28696428D01*
X73328809Y-28696428D01*
X73352619Y-28708333D01*
X73364523Y-28732142D01*
X73364523Y-28755952D01*
X73245476Y-28779761D01*
X73471666Y-28863095D02*
X73471666Y-28696428D01*
X73471666Y-28720238D02*
X73483571Y-28708333D01*
X73507380Y-28696428D01*
X73543095Y-28696428D01*
X73566904Y-28708333D01*
X73578809Y-28732142D01*
X73578809Y-28863095D01*
X73578809Y-28732142D02*
X73590714Y-28708333D01*
X73614523Y-28696428D01*
X73650238Y-28696428D01*
X73674047Y-28708333D01*
X73685952Y-28732142D01*
X73685952Y-28863095D01*
X73995476Y-28767857D02*
X74185952Y-28767857D01*
X74459761Y-28613095D02*
X74543095Y-28863095D01*
X74626428Y-28613095D01*
X74674047Y-28696428D02*
X74769285Y-28696428D01*
X74709761Y-28863095D02*
X74709761Y-28648809D01*
X74721666Y-28625000D01*
X74745476Y-28613095D01*
X74769285Y-28613095D01*
X74959761Y-28863095D02*
X74959761Y-28732142D01*
X74947857Y-28708333D01*
X74924047Y-28696428D01*
X74876428Y-28696428D01*
X74852619Y-28708333D01*
X74959761Y-28851190D02*
X74935952Y-28863095D01*
X74876428Y-28863095D01*
X74852619Y-28851190D01*
X74840714Y-28827380D01*
X74840714Y-28803571D01*
X74852619Y-28779761D01*
X74876428Y-28767857D01*
X74935952Y-28767857D01*
X74959761Y-28755952D01*
X75078809Y-28696428D02*
X75078809Y-28863095D01*
X75078809Y-28720238D02*
X75090714Y-28708333D01*
X75114523Y-28696428D01*
X75150238Y-28696428D01*
X75174047Y-28708333D01*
X75185952Y-28732142D01*
X75185952Y-28863095D01*
X75281190Y-28958333D02*
X75293095Y-28946428D01*
X75316904Y-28910714D01*
X75328809Y-28886904D01*
X75340714Y-28851190D01*
X75352619Y-28791666D01*
X75352619Y-28744047D01*
X75340714Y-28684523D01*
X75328809Y-28648809D01*
X75316904Y-28625000D01*
X75293095Y-28589285D01*
X75281190Y-28577380D01*
X75840714Y-28601190D02*
X75626428Y-28922619D01*
X76185952Y-28958333D02*
X76174047Y-28946428D01*
X76150238Y-28910714D01*
X76138333Y-28886904D01*
X76126428Y-28851190D01*
X76114523Y-28791666D01*
X76114523Y-28744047D01*
X76126428Y-28684523D01*
X76138333Y-28648809D01*
X76150238Y-28625000D01*
X76174047Y-28589285D01*
X76185952Y-28577380D01*
X76257380Y-28613095D02*
X76316904Y-28863095D01*
X76364523Y-28684523D01*
X76412142Y-28863095D01*
X76471666Y-28613095D01*
X76531190Y-28696428D02*
X76626428Y-28696428D01*
X76566904Y-28863095D02*
X76566904Y-28648809D01*
X76578809Y-28625000D01*
X76602619Y-28613095D01*
X76626428Y-28613095D01*
X76816904Y-28863095D02*
X76816904Y-28732142D01*
X76805000Y-28708333D01*
X76781190Y-28696428D01*
X76733571Y-28696428D01*
X76709761Y-28708333D01*
X76816904Y-28851190D02*
X76793095Y-28863095D01*
X76733571Y-28863095D01*
X76709761Y-28851190D01*
X76697857Y-28827380D01*
X76697857Y-28803571D01*
X76709761Y-28779761D01*
X76733571Y-28767857D01*
X76793095Y-28767857D01*
X76816904Y-28755952D01*
X76935952Y-28696428D02*
X76935952Y-28863095D01*
X76935952Y-28720238D02*
X76947857Y-28708333D01*
X76971666Y-28696428D01*
X77007380Y-28696428D01*
X77031190Y-28708333D01*
X77043095Y-28732142D01*
X77043095Y-28863095D01*
X77531190Y-28601190D02*
X77316904Y-28922619D01*
X77769285Y-28613095D02*
X77852619Y-28863095D01*
X77935952Y-28613095D01*
X77983571Y-28696428D02*
X78078809Y-28696428D01*
X78019285Y-28863095D02*
X78019285Y-28648809D01*
X78031190Y-28625000D01*
X78055000Y-28613095D01*
X78078809Y-28613095D01*
X78269285Y-28863095D02*
X78269285Y-28732142D01*
X78257380Y-28708333D01*
X78233571Y-28696428D01*
X78185952Y-28696428D01*
X78162142Y-28708333D01*
X78269285Y-28851190D02*
X78245476Y-28863095D01*
X78185952Y-28863095D01*
X78162142Y-28851190D01*
X78150238Y-28827380D01*
X78150238Y-28803571D01*
X78162142Y-28779761D01*
X78185952Y-28767857D01*
X78245476Y-28767857D01*
X78269285Y-28755952D01*
X78388333Y-28696428D02*
X78388333Y-28863095D01*
X78388333Y-28720238D02*
X78400238Y-28708333D01*
X78424047Y-28696428D01*
X78459761Y-28696428D01*
X78483571Y-28708333D01*
X78495476Y-28732142D01*
X78495476Y-28863095D01*
X78590714Y-28958333D02*
X78602619Y-28946428D01*
X78626428Y-28910714D01*
X78638333Y-28886904D01*
X78650238Y-28851190D01*
X78662142Y-28791666D01*
X78662142Y-28744047D01*
X78650238Y-28684523D01*
X78638333Y-28648809D01*
X78626428Y-28625000D01*
X78602619Y-28589285D01*
X78590714Y-28577380D01*
D11*
X68091666Y-35591216D02*
X68091666Y-35091216D01*
X68091666Y-35329311D02*
X68377380Y-35329311D01*
X68377380Y-35591216D02*
X68377380Y-35091216D01*
X68615476Y-35329311D02*
X68782142Y-35329311D01*
X68853571Y-35591216D02*
X68615476Y-35591216D01*
X68615476Y-35091216D01*
X68853571Y-35091216D01*
X69234523Y-35329311D02*
X69067857Y-35329311D01*
X69067857Y-35591216D02*
X69067857Y-35091216D01*
X69305952Y-35091216D01*
X75329761Y-37631216D02*
X75091666Y-37631216D01*
X75067857Y-37869311D01*
X75091666Y-37845502D01*
X75139285Y-37821692D01*
X75258333Y-37821692D01*
X75305952Y-37845502D01*
X75329761Y-37869311D01*
X75353571Y-37916930D01*
X75353571Y-38035978D01*
X75329761Y-38083597D01*
X75305952Y-38107406D01*
X75258333Y-38131216D01*
X75139285Y-38131216D01*
X75091666Y-38107406D01*
X75067857Y-38083597D01*
X75496428Y-37631216D02*
X75663095Y-38131216D01*
X75829761Y-37631216D01*
X89893809Y-38040238D02*
X89870000Y-38016428D01*
X89846190Y-37968809D01*
X89846190Y-37849761D01*
X89870000Y-37802142D01*
X89893809Y-37778333D01*
X89941428Y-37754523D01*
X89989047Y-37754523D01*
X90060476Y-37778333D01*
X90346190Y-38064047D01*
X90346190Y-37754523D01*
X90012857Y-37325952D02*
X90346190Y-37325952D01*
X89822380Y-37445000D02*
X90179523Y-37564047D01*
X90179523Y-37254523D01*
X89846190Y-37135476D02*
X90346190Y-36968809D01*
X89846190Y-36802142D01*
X90346190Y-26028333D02*
X89846190Y-26028333D01*
X90084285Y-26028333D02*
X90084285Y-25742619D01*
X90346190Y-25742619D02*
X89846190Y-25742619D01*
X90084285Y-25504523D02*
X90084285Y-25337857D01*
X90346190Y-25266428D02*
X90346190Y-25504523D01*
X89846190Y-25504523D01*
X89846190Y-25266428D01*
X90084285Y-24885476D02*
X90084285Y-25052142D01*
X90346190Y-25052142D02*
X89846190Y-25052142D01*
X89846190Y-24814047D01*
X68392857Y-32908359D02*
X68630952Y-32908359D01*
X68345238Y-33051216D02*
X68511904Y-32551216D01*
X68678571Y-33051216D01*
X69107142Y-33051216D02*
X68821428Y-33051216D01*
X68964285Y-33051216D02*
X68964285Y-32551216D01*
X68916666Y-32622645D01*
X68869047Y-32670264D01*
X68821428Y-32694073D01*
D15*
X71501428Y-27839285D02*
X71501428Y-27089285D01*
X71501428Y-27446428D02*
X71930000Y-27446428D01*
X71930000Y-27839285D02*
X71930000Y-27089285D01*
X72287142Y-27446428D02*
X72537142Y-27446428D01*
X72644285Y-27839285D02*
X72287142Y-27839285D01*
X72287142Y-27089285D01*
X72644285Y-27089285D01*
X73215714Y-27446428D02*
X72965714Y-27446428D01*
X72965714Y-27839285D02*
X72965714Y-27089285D01*
X73322857Y-27089285D01*
X74608571Y-27839285D02*
X74358571Y-27482142D01*
X74180000Y-27839285D02*
X74180000Y-27089285D01*
X74465714Y-27089285D01*
X74537142Y-27125000D01*
X74572857Y-27160714D01*
X74608571Y-27232142D01*
X74608571Y-27339285D01*
X74572857Y-27410714D01*
X74537142Y-27446428D01*
X74465714Y-27482142D01*
X74180000Y-27482142D01*
X75215714Y-27803571D02*
X75144285Y-27839285D01*
X75001428Y-27839285D01*
X74930000Y-27803571D01*
X74894285Y-27732142D01*
X74894285Y-27446428D01*
X74930000Y-27375000D01*
X75001428Y-27339285D01*
X75144285Y-27339285D01*
X75215714Y-27375000D01*
X75251428Y-27446428D01*
X75251428Y-27517857D01*
X74894285Y-27589285D01*
X75537142Y-27803571D02*
X75608571Y-27839285D01*
X75751428Y-27839285D01*
X75822857Y-27803571D01*
X75858571Y-27732142D01*
X75858571Y-27696428D01*
X75822857Y-27625000D01*
X75751428Y-27589285D01*
X75644285Y-27589285D01*
X75572857Y-27553571D01*
X75537142Y-27482142D01*
X75537142Y-27446428D01*
X75572857Y-27375000D01*
X75644285Y-27339285D01*
X75751428Y-27339285D01*
X75822857Y-27375000D01*
X76180000Y-27839285D02*
X76180000Y-27339285D01*
X76180000Y-27089285D02*
X76144285Y-27125000D01*
X76180000Y-27160714D01*
X76215714Y-27125000D01*
X76180000Y-27089285D01*
X76180000Y-27160714D01*
X76501428Y-27803571D02*
X76572857Y-27839285D01*
X76715714Y-27839285D01*
X76787142Y-27803571D01*
X76822857Y-27732142D01*
X76822857Y-27696428D01*
X76787142Y-27625000D01*
X76715714Y-27589285D01*
X76608571Y-27589285D01*
X76537142Y-27553571D01*
X76501428Y-27482142D01*
X76501428Y-27446428D01*
X76537142Y-27375000D01*
X76608571Y-27339285D01*
X76715714Y-27339285D01*
X76787142Y-27375000D01*
X77037142Y-27339285D02*
X77322857Y-27339285D01*
X77144285Y-27089285D02*
X77144285Y-27732142D01*
X77180000Y-27803571D01*
X77251428Y-27839285D01*
X77322857Y-27839285D01*
X77680000Y-27839285D02*
X77608571Y-27803571D01*
X77572857Y-27767857D01*
X77537142Y-27696428D01*
X77537142Y-27482142D01*
X77572857Y-27410714D01*
X77608571Y-27375000D01*
X77680000Y-27339285D01*
X77787142Y-27339285D01*
X77858571Y-27375000D01*
X77894285Y-27410714D01*
X77930000Y-27482142D01*
X77930000Y-27696428D01*
X77894285Y-27767857D01*
X77858571Y-27803571D01*
X77787142Y-27839285D01*
X77680000Y-27839285D01*
X78251428Y-27839285D02*
X78251428Y-27339285D01*
X78251428Y-27482142D02*
X78287142Y-27410714D01*
X78322857Y-27375000D01*
X78394285Y-27339285D01*
X78465714Y-27339285D01*
D11*
X81294835Y-38103073D02*
X81056740Y-38103073D01*
X81032931Y-38341168D01*
X81056740Y-38317359D01*
X81104359Y-38293549D01*
X81223407Y-38293549D01*
X81271026Y-38317359D01*
X81294835Y-38341168D01*
X81318645Y-38388787D01*
X81318645Y-38507835D01*
X81294835Y-38555454D01*
X81271026Y-38579263D01*
X81223407Y-38603073D01*
X81104359Y-38603073D01*
X81056740Y-38579263D01*
X81032931Y-38555454D01*
X81461502Y-38103073D02*
X81628169Y-38603073D01*
X81794835Y-38103073D01*
X89846190Y-33540238D02*
X89846190Y-33778333D01*
X90084285Y-33802142D01*
X90060476Y-33778333D01*
X90036666Y-33730714D01*
X90036666Y-33611666D01*
X90060476Y-33564047D01*
X90084285Y-33540238D01*
X90131904Y-33516428D01*
X90250952Y-33516428D01*
X90298571Y-33540238D01*
X90322380Y-33564047D01*
X90346190Y-33611666D01*
X90346190Y-33730714D01*
X90322380Y-33778333D01*
X90298571Y-33802142D01*
X89846190Y-33373571D02*
X90346190Y-33206904D01*
X89846190Y-33040238D01*
X75354761Y-40223809D02*
X75378571Y-40200000D01*
X75426190Y-40176190D01*
X75545238Y-40176190D01*
X75592857Y-40200000D01*
X75616666Y-40223809D01*
X75640476Y-40271428D01*
X75640476Y-40319047D01*
X75616666Y-40390476D01*
X75330952Y-40676190D01*
X75640476Y-40676190D01*
X76069047Y-40342857D02*
X76069047Y-40676190D01*
X75950000Y-40152380D02*
X75830952Y-40509523D01*
X76140476Y-40509523D01*
X76259523Y-40176190D02*
X76426190Y-40676190D01*
X76592857Y-40176190D01*
X90203333Y-27802142D02*
X90203333Y-27564047D01*
X90346190Y-27849761D02*
X89846190Y-27683095D01*
X90346190Y-27516428D01*
X90346190Y-27087857D02*
X90346190Y-27373571D01*
X90346190Y-27230714D02*
X89846190Y-27230714D01*
X89917619Y-27278333D01*
X89965238Y-27325952D01*
X89989047Y-27373571D01*
X68344047Y-40055000D02*
X68296428Y-40031190D01*
X68225000Y-40031190D01*
X68153571Y-40055000D01*
X68105952Y-40102619D01*
X68082142Y-40150238D01*
X68058333Y-40245476D01*
X68058333Y-40316904D01*
X68082142Y-40412142D01*
X68105952Y-40459761D01*
X68153571Y-40507380D01*
X68225000Y-40531190D01*
X68272619Y-40531190D01*
X68344047Y-40507380D01*
X68367857Y-40483571D01*
X68367857Y-40316904D01*
X68272619Y-40316904D01*
X68582142Y-40531190D02*
X68582142Y-40031190D01*
X68867857Y-40531190D01*
X68867857Y-40031190D01*
X69105952Y-40531190D02*
X69105952Y-40031190D01*
X69225000Y-40031190D01*
X69296428Y-40055000D01*
X69344047Y-40102619D01*
X69367857Y-40150238D01*
X69391666Y-40245476D01*
X69391666Y-40316904D01*
X69367857Y-40412142D01*
X69344047Y-40459761D01*
X69296428Y-40507380D01*
X69225000Y-40531190D01*
X69105952Y-40531190D01*
X75042857Y-32908359D02*
X75280952Y-32908359D01*
X74995238Y-33051216D02*
X75161904Y-32551216D01*
X75328571Y-33051216D01*
X75471428Y-32598835D02*
X75495238Y-32575026D01*
X75542857Y-32551216D01*
X75661904Y-32551216D01*
X75709523Y-32575026D01*
X75733333Y-32598835D01*
X75757142Y-32646454D01*
X75757142Y-32694073D01*
X75733333Y-32765502D01*
X75447619Y-33051216D01*
X75757142Y-33051216D01*
D10*
X70347634Y-31360421D02*
X70419063Y-31384231D01*
X70538110Y-31384231D01*
X70585729Y-31360421D01*
X70609539Y-31336612D01*
X70633348Y-31288993D01*
X70633348Y-31241374D01*
X70609539Y-31193755D01*
X70585729Y-31169945D01*
X70538110Y-31146136D01*
X70442872Y-31122326D01*
X70395253Y-31098517D01*
X70371444Y-31074707D01*
X70347634Y-31027088D01*
X70347634Y-30979469D01*
X70371444Y-30931850D01*
X70395253Y-30908041D01*
X70442872Y-30884231D01*
X70561920Y-30884231D01*
X70633348Y-30908041D01*
X70776206Y-31050898D02*
X70966682Y-31050898D01*
X70847634Y-30884231D02*
X70847634Y-31312802D01*
X70871444Y-31360421D01*
X70919063Y-31384231D01*
X70966682Y-31384231D01*
X71323825Y-31360421D02*
X71276206Y-31384231D01*
X71180967Y-31384231D01*
X71133348Y-31360421D01*
X71109539Y-31312802D01*
X71109539Y-31122326D01*
X71133348Y-31074707D01*
X71180967Y-31050898D01*
X71276206Y-31050898D01*
X71323825Y-31074707D01*
X71347634Y-31122326D01*
X71347634Y-31169945D01*
X71109539Y-31217564D01*
X71776206Y-31384231D02*
X71776206Y-31122326D01*
X71752396Y-31074707D01*
X71704777Y-31050898D01*
X71609539Y-31050898D01*
X71561920Y-31074707D01*
X71776206Y-31360421D02*
X71728586Y-31384231D01*
X71609539Y-31384231D01*
X71561920Y-31360421D01*
X71538110Y-31312802D01*
X71538110Y-31265183D01*
X71561920Y-31217564D01*
X71609539Y-31193755D01*
X71728586Y-31193755D01*
X71776206Y-31169945D01*
X72085729Y-31384231D02*
X72038110Y-31360421D01*
X72014301Y-31312802D01*
X72014301Y-30884231D01*
X72204777Y-31050898D02*
X72395253Y-31050898D01*
X72276206Y-30884231D02*
X72276206Y-31312802D01*
X72300015Y-31360421D01*
X72347634Y-31384231D01*
X72395253Y-31384231D01*
X72561920Y-31384231D02*
X72561920Y-30884231D01*
X72776206Y-31384231D02*
X72776206Y-31122326D01*
X72752396Y-31074707D01*
X72704777Y-31050898D01*
X72633348Y-31050898D01*
X72585729Y-31074707D01*
X72561920Y-31098517D01*
X73014301Y-31384231D02*
X73014301Y-30884231D01*
X73014301Y-31074707D02*
X73061920Y-31050898D01*
X73157158Y-31050898D01*
X73204777Y-31074707D01*
X73228586Y-31098517D01*
X73252396Y-31146136D01*
X73252396Y-31288993D01*
X73228586Y-31336612D01*
X73204777Y-31360421D01*
X73157158Y-31384231D01*
X73061920Y-31384231D01*
X73014301Y-31360421D01*
X73680967Y-31050898D02*
X73680967Y-31384231D01*
X73466682Y-31050898D02*
X73466682Y-31312802D01*
X73490491Y-31360421D01*
X73538110Y-31384231D01*
X73609539Y-31384231D01*
X73657158Y-31360421D01*
X73680967Y-31336612D01*
X73919063Y-31384231D02*
X73919063Y-31050898D01*
X73919063Y-31146136D02*
X73942872Y-31098517D01*
X73966682Y-31074707D01*
X74014301Y-31050898D01*
X74061920Y-31050898D01*
X74228586Y-31050898D02*
X74228586Y-31384231D01*
X74228586Y-31098517D02*
X74252396Y-31074707D01*
X74300015Y-31050898D01*
X74371444Y-31050898D01*
X74419063Y-31074707D01*
X74442872Y-31122326D01*
X74442872Y-31384231D01*
X74871444Y-31360421D02*
X74823825Y-31384231D01*
X74728586Y-31384231D01*
X74680967Y-31360421D01*
X74657158Y-31312802D01*
X74657158Y-31122326D01*
X74680967Y-31074707D01*
X74728586Y-31050898D01*
X74823825Y-31050898D01*
X74871444Y-31074707D01*
X74895253Y-31122326D01*
X74895253Y-31169945D01*
X74657158Y-31217564D01*
X75109539Y-31384231D02*
X75109539Y-31050898D01*
X75109539Y-31146136D02*
X75133348Y-31098517D01*
X75157158Y-31074707D01*
X75204777Y-31050898D01*
X75252396Y-31050898D01*
D11*
X84262326Y-24419914D02*
X84500421Y-24419914D01*
X84214707Y-24562771D02*
X84381373Y-24062771D01*
X84548040Y-24562771D01*
X84976611Y-24562771D02*
X84690897Y-24562771D01*
X84833754Y-24562771D02*
X84833754Y-24062771D01*
X84786135Y-24134200D01*
X84738516Y-24181819D01*
X84690897Y-24205628D01*
X90346190Y-32040239D02*
X89846190Y-32040239D01*
X89846190Y-31849762D01*
X89870000Y-31802143D01*
X89893809Y-31778334D01*
X89941428Y-31754524D01*
X90012857Y-31754524D01*
X90060476Y-31778334D01*
X90084285Y-31802143D01*
X90108095Y-31849762D01*
X90108095Y-32040239D01*
X90298571Y-31254524D02*
X90322380Y-31278334D01*
X90346190Y-31349762D01*
X90346190Y-31397381D01*
X90322380Y-31468810D01*
X90274761Y-31516429D01*
X90227142Y-31540239D01*
X90131904Y-31564048D01*
X90060476Y-31564048D01*
X89965238Y-31540239D01*
X89917619Y-31516429D01*
X89870000Y-31468810D01*
X89846190Y-31397381D01*
X89846190Y-31349762D01*
X89870000Y-31278334D01*
X89893809Y-31254524D01*
X90084285Y-30873572D02*
X90084285Y-31040239D01*
X90346190Y-31040239D02*
X89846190Y-31040239D01*
X89846190Y-30802143D01*
X90203333Y-29802142D02*
X90203333Y-29564047D01*
X90346190Y-29849761D02*
X89846190Y-29683095D01*
X90346190Y-29516428D01*
X89893809Y-29373571D02*
X89870000Y-29349761D01*
X89846190Y-29302142D01*
X89846190Y-29183095D01*
X89870000Y-29135476D01*
X89893809Y-29111666D01*
X89941428Y-29087857D01*
X89989047Y-29087857D01*
X90060476Y-29111666D01*
X90346190Y-29397380D01*
X90346190Y-29087857D01*
D15*
X82780000Y-39856814D02*
X80010000Y-39856814D01*
X82780000Y-39856814D02*
X81653496Y-39270393D01*
X82780000Y-39856814D02*
X81653496Y-40443235D01*
X80010000Y-39856814D02*
X79855000Y-39856814D01*
%TO.C,I\u00B2C*%
X88082380Y-23211359D02*
X87082380Y-23211359D01*
X86844285Y-22782787D02*
X86796666Y-22687549D01*
X86796666Y-22544692D01*
X86844285Y-22449454D01*
X86939523Y-22401835D01*
X87034761Y-22401835D01*
X87130000Y-22449454D01*
X87463333Y-22782787D01*
X87463333Y-22401835D01*
X87987142Y-21401835D02*
X88034761Y-21449454D01*
X88082380Y-21592311D01*
X88082380Y-21687549D01*
X88034761Y-21830407D01*
X87939523Y-21925645D01*
X87844285Y-21973264D01*
X87653809Y-22020883D01*
X87510952Y-22020883D01*
X87320476Y-21973264D01*
X87225238Y-21925645D01*
X87130000Y-21830407D01*
X87082380Y-21687549D01*
X87082380Y-21592311D01*
X87130000Y-21449454D01*
X87177619Y-21401835D01*
D10*
%TO.C,Status*%
X80196666Y-36559194D02*
X80268095Y-36583004D01*
X80387142Y-36583004D01*
X80434761Y-36559194D01*
X80458571Y-36535385D01*
X80482380Y-36487766D01*
X80482380Y-36440147D01*
X80458571Y-36392528D01*
X80434761Y-36368718D01*
X80387142Y-36344909D01*
X80291904Y-36321099D01*
X80244285Y-36297290D01*
X80220476Y-36273480D01*
X80196666Y-36225861D01*
X80196666Y-36178242D01*
X80220476Y-36130623D01*
X80244285Y-36106814D01*
X80291904Y-36083004D01*
X80410952Y-36083004D01*
X80482380Y-36106814D01*
X80625238Y-36249671D02*
X80815714Y-36249671D01*
X80696666Y-36083004D02*
X80696666Y-36511575D01*
X80720476Y-36559194D01*
X80768095Y-36583004D01*
X80815714Y-36583004D01*
X81196666Y-36583004D02*
X81196666Y-36321099D01*
X81172857Y-36273480D01*
X81125238Y-36249671D01*
X81030000Y-36249671D01*
X80982380Y-36273480D01*
X81196666Y-36559194D02*
X81149047Y-36583004D01*
X81030000Y-36583004D01*
X80982380Y-36559194D01*
X80958571Y-36511575D01*
X80958571Y-36463956D01*
X80982380Y-36416337D01*
X81030000Y-36392528D01*
X81149047Y-36392528D01*
X81196666Y-36368718D01*
X81363333Y-36249671D02*
X81553809Y-36249671D01*
X81434761Y-36083004D02*
X81434761Y-36511575D01*
X81458571Y-36559194D01*
X81506190Y-36583004D01*
X81553809Y-36583004D01*
X81934761Y-36249671D02*
X81934761Y-36583004D01*
X81720476Y-36249671D02*
X81720476Y-36511575D01*
X81744285Y-36559194D01*
X81791904Y-36583004D01*
X81863333Y-36583004D01*
X81910952Y-36559194D01*
X81934761Y-36535385D01*
X82149047Y-36559194D02*
X82196666Y-36583004D01*
X82291904Y-36583004D01*
X82339523Y-36559194D01*
X82363333Y-36511575D01*
X82363333Y-36487766D01*
X82339523Y-36440147D01*
X82291904Y-36416337D01*
X82220476Y-36416337D01*
X82172857Y-36392528D01*
X82149047Y-36344909D01*
X82149047Y-36321099D01*
X82172857Y-36273480D01*
X82220476Y-36249671D01*
X82291904Y-36249671D01*
X82339523Y-36273480D01*
D15*
%TO.C,Toolboard*%
X88502380Y-41521428D02*
X88502380Y-40950000D01*
X89502380Y-41235714D02*
X88502380Y-41235714D01*
X89502380Y-40473809D02*
X89454761Y-40569047D01*
X89407142Y-40616666D01*
X89311904Y-40664285D01*
X89026190Y-40664285D01*
X88930952Y-40616666D01*
X88883333Y-40569047D01*
X88835714Y-40473809D01*
X88835714Y-40330952D01*
X88883333Y-40235714D01*
X88930952Y-40188095D01*
X89026190Y-40140476D01*
X89311904Y-40140476D01*
X89407142Y-40188095D01*
X89454761Y-40235714D01*
X89502380Y-40330952D01*
X89502380Y-40473809D01*
X89502380Y-39569047D02*
X89454761Y-39664285D01*
X89407142Y-39711904D01*
X89311904Y-39759523D01*
X89026190Y-39759523D01*
X88930952Y-39711904D01*
X88883333Y-39664285D01*
X88835714Y-39569047D01*
X88835714Y-39426190D01*
X88883333Y-39330952D01*
X88930952Y-39283333D01*
X89026190Y-39235714D01*
X89311904Y-39235714D01*
X89407142Y-39283333D01*
X89454761Y-39330952D01*
X89502380Y-39426190D01*
X89502380Y-39569047D01*
X89502380Y-38664285D02*
X89454761Y-38759523D01*
X89359523Y-38807142D01*
X88502380Y-38807142D01*
X89502380Y-38283333D02*
X88502380Y-38283333D01*
X88883333Y-38283333D02*
X88835714Y-38188095D01*
X88835714Y-37997619D01*
X88883333Y-37902380D01*
X88930952Y-37854761D01*
X89026190Y-37807142D01*
X89311904Y-37807142D01*
X89407142Y-37854761D01*
X89454761Y-37902380D01*
X89502380Y-37997619D01*
X89502380Y-38188095D01*
X89454761Y-38283333D01*
X89502380Y-37235714D02*
X89454761Y-37330952D01*
X89407142Y-37378571D01*
X89311904Y-37426190D01*
X89026190Y-37426190D01*
X88930952Y-37378571D01*
X88883333Y-37330952D01*
X88835714Y-37235714D01*
X88835714Y-37092857D01*
X88883333Y-36997619D01*
X88930952Y-36950000D01*
X89026190Y-36902380D01*
X89311904Y-36902380D01*
X89407142Y-36950000D01*
X89454761Y-36997619D01*
X89502380Y-37092857D01*
X89502380Y-37235714D01*
X89502380Y-36045238D02*
X88978571Y-36045238D01*
X88883333Y-36092857D01*
X88835714Y-36188095D01*
X88835714Y-36378571D01*
X88883333Y-36473809D01*
X89454761Y-36045238D02*
X89502380Y-36140476D01*
X89502380Y-36378571D01*
X89454761Y-36473809D01*
X89359523Y-36521428D01*
X89264285Y-36521428D01*
X89169047Y-36473809D01*
X89121428Y-36378571D01*
X89121428Y-36140476D01*
X89073809Y-36045238D01*
X89502380Y-35569047D02*
X88835714Y-35569047D01*
X89026190Y-35569047D02*
X88930952Y-35521428D01*
X88883333Y-35473809D01*
X88835714Y-35378571D01*
X88835714Y-35283333D01*
X89502380Y-34521428D02*
X88502380Y-34521428D01*
X89454761Y-34521428D02*
X89502380Y-34616666D01*
X89502380Y-34807142D01*
X89454761Y-34902380D01*
X89407142Y-34950000D01*
X89311904Y-34997619D01*
X89026190Y-34997619D01*
X88930952Y-34950000D01*
X88883333Y-34902380D01*
X88835714Y-34807142D01*
X88835714Y-34616666D01*
X88883333Y-34521428D01*
D16*
%TO.C,I\u00B2C*%
X85940950Y-21123527D02*
X75669469Y-21000407D01*
X85940950Y-21123527D02*
X85949469Y-23660407D01*
X75669469Y-21000407D02*
X75669469Y-23660407D01*
X85949469Y-23660407D02*
X83349469Y-23660407D01*
X83349469Y-23660407D02*
X75669469Y-23660407D01*
%TO.C,Status*%
X77630000Y-42606814D02*
X84930000Y-42606814D01*
X77630000Y-37106814D02*
X84930000Y-37106814D01*
X77630000Y-38256814D02*
X77630000Y-37106814D01*
%TO.C,Toolboard*%
X91680000Y-40305000D02*
X91680000Y-40585000D01*
X95640000Y-39745000D02*
X97900000Y-39745000D01*
X91680000Y-40585000D02*
X90080000Y-40585000D01*
X91680000Y-41505000D02*
X91680000Y-40585000D01*
X95640000Y-40245000D02*
X97900000Y-40245000D01*
X95640000Y-24145000D02*
X95640000Y-25145000D01*
X95640000Y-25145000D02*
X94040000Y-25145000D01*
X97900000Y-23385000D02*
X90080000Y-23385000D01*
X94040000Y-25145000D02*
X94040000Y-24145000D01*
X94040000Y-39745000D02*
X94040000Y-40745000D01*
X95640000Y-39745000D02*
X94040000Y-39745000D01*
X97900000Y-41505000D02*
X97900000Y-23385000D01*
X95640000Y-40745000D02*
X95640000Y-39745000D01*
X94040000Y-24145000D02*
X95640000Y-24145000D01*
X97900000Y-38945000D02*
X93540000Y-38945000D01*
X90080000Y-40585000D02*
X90080000Y-41505000D01*
X91680000Y-40305000D02*
X90465000Y-40305000D01*
X93540000Y-38945000D02*
X93540000Y-25945000D01*
X94040000Y-40745000D02*
X95640000Y-40745000D01*
X90080000Y-41505000D02*
X97900000Y-41505000D01*
X90080000Y-23385000D02*
X90080000Y-24305000D01*
X91680000Y-24305000D02*
X91680000Y-24585000D01*
X90080000Y-24305000D02*
X91680000Y-24305000D01*
X91680000Y-23385000D02*
X91680000Y-24305000D01*
X93540000Y-25945000D02*
X97900000Y-25945000D01*
%TO.C,HEF Resistor*%
X81410000Y-27940000D02*
X81300000Y-27940000D01*
X69050000Y-27940000D02*
X69160000Y-27940000D01*
X69160000Y-30310000D02*
X81300000Y-30310000D01*
X81300000Y-25570000D02*
X69160000Y-25570000D01*
X69160000Y-25570000D02*
X69160000Y-30310000D01*
X81300000Y-30310000D02*
X81300000Y-25570000D01*
%TO.C,G\u002A\u002A\u002A*%
G36*
X78989873Y-33894153D02*
G01*
X78958988Y-33877204D01*
X78930718Y-33861673D01*
X78906674Y-33848445D01*
X78888469Y-33838406D01*
X78880133Y-33833790D01*
X78848389Y-33816146D01*
X78847157Y-32773316D01*
X78847147Y-32764753D01*
X79402687Y-32764753D01*
X79407443Y-32765566D01*
X79421202Y-32766322D01*
X79443200Y-32767010D01*
X79472672Y-32767618D01*
X79508855Y-32768135D01*
X79550983Y-32768550D01*
X79598292Y-32768851D01*
X79650019Y-32769026D01*
X79692653Y-32769069D01*
X79982620Y-32769069D01*
X80058672Y-32657965D01*
X80081589Y-32624514D01*
X80105394Y-32589818D01*
X80128724Y-32555859D01*
X80150218Y-32524617D01*
X80168515Y-32498074D01*
X80178674Y-32483374D01*
X80197116Y-32456684D01*
X80216762Y-32428170D01*
X80235513Y-32400881D01*
X80251273Y-32377866D01*
X80254258Y-32373491D01*
X80270092Y-32350346D01*
X80286932Y-32325854D01*
X80302283Y-32303641D01*
X80309743Y-32292911D01*
X80322574Y-32274467D01*
X80340119Y-32249168D01*
X80361554Y-32218207D01*
X80386056Y-32182775D01*
X80412802Y-32144065D01*
X80440969Y-32103269D01*
X80469734Y-32061578D01*
X80498273Y-32020185D01*
X80525764Y-31980281D01*
X80551382Y-31943059D01*
X80559319Y-31931519D01*
X80580739Y-31900371D01*
X80602333Y-31868981D01*
X80622850Y-31839165D01*
X80641041Y-31812742D01*
X80655653Y-31791529D01*
X80661831Y-31782567D01*
X80677820Y-31759379D01*
X80696821Y-31731818D01*
X80716304Y-31703553D01*
X80731688Y-31681230D01*
X80769548Y-31626289D01*
X80189470Y-31626289D01*
X80151366Y-31681232D01*
X80128367Y-31714392D01*
X80109648Y-31741377D01*
X80093921Y-31764038D01*
X80079900Y-31784227D01*
X80066301Y-31803795D01*
X80051836Y-31824594D01*
X80035219Y-31848476D01*
X80029210Y-31857112D01*
X79998233Y-31901644D01*
X79966631Y-31947106D01*
X79935163Y-31992405D01*
X79904588Y-32036448D01*
X79875664Y-32078140D01*
X79849151Y-32116387D01*
X79825806Y-32150097D01*
X79806389Y-32178174D01*
X79791659Y-32199527D01*
X79789570Y-32202563D01*
X79778975Y-32217933D01*
X79766093Y-32236556D01*
X79750183Y-32259496D01*
X79730507Y-32287819D01*
X79706326Y-32322589D01*
X79693265Y-32341359D01*
X79681176Y-32358751D01*
X79665414Y-32381455D01*
X79647867Y-32406750D01*
X79630422Y-32431916D01*
X79627336Y-32436370D01*
X79612185Y-32458221D01*
X79592915Y-32485982D01*
X79570989Y-32517547D01*
X79547870Y-32550811D01*
X79525021Y-32583667D01*
X79515554Y-32597274D01*
X79487320Y-32637866D01*
X79464182Y-32671190D01*
X79445640Y-32697987D01*
X79431197Y-32718995D01*
X79420353Y-32734954D01*
X79412611Y-32746605D01*
X79407472Y-32754685D01*
X79404438Y-32759935D01*
X79403010Y-32763095D01*
X79402687Y-32764753D01*
X78847147Y-32764753D01*
X78845925Y-31730485D01*
X78881343Y-31710965D01*
X78895659Y-31703095D01*
X78916872Y-31691460D01*
X78943307Y-31676978D01*
X78973287Y-31660566D01*
X79005139Y-31643142D01*
X79026644Y-31631385D01*
X79056656Y-31614943D01*
X79083925Y-31599930D01*
X79107249Y-31587014D01*
X79125424Y-31576865D01*
X79137248Y-31570148D01*
X79141410Y-31567636D01*
X79147325Y-31564063D01*
X79160114Y-31556854D01*
X79178034Y-31546977D01*
X79199343Y-31535399D01*
X79204898Y-31532405D01*
X79226907Y-31520525D01*
X79251251Y-31507316D01*
X79278831Y-31492284D01*
X79310546Y-31474936D01*
X79347297Y-31454779D01*
X79389983Y-31431320D01*
X79439505Y-31404067D01*
X79490593Y-31375926D01*
X79519789Y-31359841D01*
X79549095Y-31343702D01*
X79579298Y-31327075D01*
X79611186Y-31309529D01*
X79645546Y-31290630D01*
X79683166Y-31269944D01*
X79724832Y-31247040D01*
X79771334Y-31221484D01*
X79823457Y-31192843D01*
X79881990Y-31160685D01*
X79947720Y-31124576D01*
X80000937Y-31095343D01*
X80066357Y-31059409D01*
X80124279Y-31027599D01*
X80175764Y-30999330D01*
X80221871Y-30974021D01*
X80263661Y-30951090D01*
X80302196Y-30929953D01*
X80326922Y-30916395D01*
X80355502Y-30900704D01*
X80385008Y-30884464D01*
X80412741Y-30869165D01*
X80435998Y-30856296D01*
X80445352Y-30851100D01*
X80475119Y-30834537D01*
X80498038Y-30821803D01*
X80515789Y-30811972D01*
X80530054Y-30804116D01*
X80542516Y-30797308D01*
X80554856Y-30790623D01*
X80565002Y-30785153D01*
X80592413Y-30770320D01*
X80623028Y-30753635D01*
X80654332Y-30736478D01*
X80683810Y-30720231D01*
X80708949Y-30706273D01*
X80722524Y-30698657D01*
X80750629Y-30682780D01*
X80815314Y-30718366D01*
X80844944Y-30734695D01*
X80878135Y-30753033D01*
X80910880Y-30771163D01*
X80939172Y-30786868D01*
X80939800Y-30787217D01*
X80961495Y-30799203D01*
X80980001Y-30809270D01*
X80993720Y-30816561D01*
X81001053Y-30820219D01*
X81001805Y-30820482D01*
X81006824Y-30822754D01*
X81017851Y-30828708D01*
X81032352Y-30836969D01*
X81046122Y-30844836D01*
X81066385Y-30856228D01*
X81091066Y-30869987D01*
X81118087Y-30884953D01*
X81138834Y-30896380D01*
X81170064Y-30913544D01*
X81204184Y-30932310D01*
X81237915Y-30950873D01*
X81267980Y-30967430D01*
X81280460Y-30974309D01*
X81306471Y-30988638D01*
X81332787Y-31003114D01*
X81356641Y-31016215D01*
X81375267Y-31026423D01*
X81378134Y-31027990D01*
X81399404Y-31039694D01*
X81424306Y-31053520D01*
X81447980Y-31066766D01*
X81451389Y-31068685D01*
X81472679Y-31080577D01*
X81498692Y-31094947D01*
X81525544Y-31109656D01*
X81541737Y-31118456D01*
X81564098Y-31130599D01*
X81592163Y-31145904D01*
X81623084Y-31162812D01*
X81654014Y-31179769D01*
X81670246Y-31188688D01*
X81697210Y-31203518D01*
X81723144Y-31217778D01*
X81746043Y-31230366D01*
X81763900Y-31240179D01*
X81772803Y-31245068D01*
X81830840Y-31276930D01*
X81883377Y-31305794D01*
X81929873Y-31331363D01*
X81969785Y-31353337D01*
X82002571Y-31371419D01*
X82027690Y-31385310D01*
X82039872Y-31392074D01*
X82063547Y-31405256D01*
X82089341Y-31419617D01*
X82112531Y-31432527D01*
X82117466Y-31435274D01*
X82134045Y-31444404D01*
X82147022Y-31451365D01*
X82154321Y-31455049D01*
X82155164Y-31455360D01*
X82159734Y-31457622D01*
X82171446Y-31463907D01*
X82188922Y-31473460D01*
X82210781Y-31485529D01*
X82233847Y-31498356D01*
X82262530Y-31514341D01*
X82289634Y-31529405D01*
X82316581Y-31544330D01*
X82344791Y-31559901D01*
X82375687Y-31576899D01*
X82410688Y-31596108D01*
X82451218Y-31618310D01*
X82498696Y-31644289D01*
X82506263Y-31648428D01*
X82535326Y-31664336D01*
X82563729Y-31679908D01*
X82589516Y-31694068D01*
X82610732Y-31705743D01*
X82625422Y-31713860D01*
X82625913Y-31714132D01*
X82657657Y-31731759D01*
X82658875Y-32774189D01*
X82660093Y-33816618D01*
X82522132Y-33892025D01*
X82482053Y-33913925D01*
X82438935Y-33937476D01*
X82395089Y-33961416D01*
X82352825Y-33984483D01*
X82314454Y-34005416D01*
X82282287Y-34022954D01*
X82281614Y-34023321D01*
X82233232Y-34049691D01*
X82191735Y-34072320D01*
X82155430Y-34092134D01*
X82122622Y-34110060D01*
X82091618Y-34127024D01*
X82060723Y-34143953D01*
X82028244Y-34161773D01*
X81992485Y-34181411D01*
X81976384Y-34190257D01*
X81941700Y-34209316D01*
X81913767Y-34224658D01*
X81890777Y-34237271D01*
X81870922Y-34248141D01*
X81852393Y-34258255D01*
X81833380Y-34268600D01*
X81812075Y-34280162D01*
X81786669Y-34293927D01*
X81755354Y-34310883D01*
X81739526Y-34319451D01*
X81702932Y-34339308D01*
X81661281Y-34361985D01*
X81618062Y-34385576D01*
X81576765Y-34408178D01*
X81544179Y-34426070D01*
X81514358Y-34442469D01*
X81485827Y-34458144D01*
X81460242Y-34472186D01*
X81439259Y-34483687D01*
X81424535Y-34491737D01*
X81420866Y-34493734D01*
X81401651Y-34504180D01*
X81379890Y-34516027D01*
X81367145Y-34522973D01*
X81351870Y-34531273D01*
X81330724Y-34542720D01*
X81306441Y-34555839D01*
X81281751Y-34569150D01*
X81280460Y-34569845D01*
X81258042Y-34581976D01*
X81238050Y-34592904D01*
X81222413Y-34601567D01*
X81213060Y-34606902D01*
X81212089Y-34607492D01*
X81203708Y-34612332D01*
X81189078Y-34620417D01*
X81170591Y-34630434D01*
X81158368Y-34636972D01*
X81127980Y-34653230D01*
X81100346Y-34668232D01*
X81071400Y-34684199D01*
X81046044Y-34698334D01*
X81033993Y-34705009D01*
X81015873Y-34714969D01*
X80994196Y-34726836D01*
X80972789Y-34738515D01*
X80950319Y-34750759D01*
X80921959Y-34766222D01*
X80890391Y-34783442D01*
X80858294Y-34800956D01*
X80835263Y-34813528D01*
X80809036Y-34827653D01*
X80785487Y-34839968D01*
X80766044Y-34849759D01*
X80752133Y-34856306D01*
X80745181Y-34858895D01*
X80744915Y-34858908D01*
X80737229Y-34856292D01*
X80724751Y-34850014D01*
X80716396Y-34845181D01*
X80701233Y-34836272D01*
X80681374Y-34825007D01*
X80660748Y-34813610D01*
X80657791Y-34812006D01*
X80636562Y-34800473D01*
X80609323Y-34785609D01*
X80577537Y-34768219D01*
X80542668Y-34749106D01*
X80506177Y-34729074D01*
X80469528Y-34708928D01*
X80434183Y-34689472D01*
X80401605Y-34671509D01*
X80373257Y-34655843D01*
X80350600Y-34643279D01*
X80335469Y-34634829D01*
X80319023Y-34625643D01*
X80295863Y-34612798D01*
X80267844Y-34597320D01*
X80236825Y-34580232D01*
X80204661Y-34562560D01*
X80188959Y-34553950D01*
X80139228Y-34526678D01*
X80083281Y-34495956D01*
X80023447Y-34463063D01*
X79962053Y-34429281D01*
X79901428Y-34395892D01*
X79843899Y-34364177D01*
X79791796Y-34335416D01*
X79776288Y-34326847D01*
X79747688Y-34311072D01*
X79713859Y-34292469D01*
X79678153Y-34272877D01*
X79643920Y-34254135D01*
X79627336Y-34245075D01*
X79598261Y-34229175D01*
X79568757Y-34212987D01*
X79541234Y-34197836D01*
X79518101Y-34185048D01*
X79505244Y-34177896D01*
X79488648Y-34168667D01*
X79465382Y-34155792D01*
X79437341Y-34140317D01*
X79406423Y-34123288D01*
X79374524Y-34105752D01*
X79361175Y-34098424D01*
X79315877Y-34073567D01*
X79278266Y-34052923D01*
X79247467Y-34036011D01*
X79222602Y-34022346D01*
X79202796Y-34011447D01*
X79187171Y-34002832D01*
X79174851Y-33996017D01*
X79164960Y-33990521D01*
X79156621Y-33985861D01*
X79153619Y-33984177D01*
X79143273Y-33978424D01*
X79125814Y-33968784D01*
X79102697Y-33956056D01*
X79075376Y-33941041D01*
X79045306Y-33924539D01*
X79035865Y-33919364D01*
X79671289Y-33919364D01*
X79676030Y-33919771D01*
X79689686Y-33920154D01*
X79711403Y-33920505D01*
X79740329Y-33920819D01*
X79775609Y-33921088D01*
X79816392Y-33921306D01*
X79861824Y-33921466D01*
X79911052Y-33921562D01*
X79958205Y-33921588D01*
X80245121Y-33921559D01*
X80249502Y-33915145D01*
X80737369Y-33915145D01*
X80738280Y-33916526D01*
X80742589Y-33917704D01*
X80750951Y-33918695D01*
X80764017Y-33919512D01*
X80782443Y-33920170D01*
X80806880Y-33920685D01*
X80837982Y-33921071D01*
X80876402Y-33921342D01*
X80922794Y-33921513D01*
X80977811Y-33921599D01*
X81025027Y-33921617D01*
X81315170Y-33921617D01*
X81373512Y-33837379D01*
X81393895Y-33807978D01*
X81418277Y-33772858D01*
X81445565Y-33733589D01*
X81474667Y-33691739D01*
X81504489Y-33648880D01*
X81533939Y-33606582D01*
X81561925Y-33566414D01*
X81587354Y-33529946D01*
X81609133Y-33498748D01*
X81622491Y-33479644D01*
X81637878Y-33457615D01*
X81655844Y-33431823D01*
X81673416Y-33406542D01*
X81680297Y-33396622D01*
X81695278Y-33375057D01*
X81710564Y-33353137D01*
X81723878Y-33334125D01*
X81729734Y-33325808D01*
X81737595Y-33314617D01*
X81750075Y-33296768D01*
X81766224Y-33273626D01*
X81785089Y-33246557D01*
X81805718Y-33216924D01*
X81826793Y-33186623D01*
X81848463Y-33155456D01*
X81869512Y-33125194D01*
X81888939Y-33097274D01*
X81905745Y-33073133D01*
X81918930Y-33054209D01*
X81927199Y-33042357D01*
X81941405Y-33022009D01*
X81956706Y-33000055D01*
X81969059Y-32982301D01*
X81977768Y-32969793D01*
X81990911Y-32950949D01*
X82007322Y-32927441D01*
X82025836Y-32900936D01*
X82045288Y-32873103D01*
X82050750Y-32865291D01*
X82068784Y-32839348D01*
X82084772Y-32816059D01*
X82097910Y-32796617D01*
X82107395Y-32782220D01*
X82112423Y-32774060D01*
X82113017Y-32772732D01*
X82108294Y-32772075D01*
X82094648Y-32771456D01*
X82072924Y-32770886D01*
X82043965Y-32770374D01*
X82008616Y-32769932D01*
X81967721Y-32769570D01*
X81922124Y-32769298D01*
X81872670Y-32769128D01*
X81820535Y-32769069D01*
X81527944Y-32769069D01*
X81507198Y-32799592D01*
X81499283Y-32811164D01*
X81486668Y-32829516D01*
X81470217Y-32853397D01*
X81450792Y-32881556D01*
X81429254Y-32912745D01*
X81406466Y-32945712D01*
X81395216Y-32961974D01*
X81370065Y-32998327D01*
X81340802Y-33040629D01*
X81308870Y-33086792D01*
X81275713Y-33134732D01*
X81242772Y-33182362D01*
X81211492Y-33227595D01*
X81192546Y-33254995D01*
X81167205Y-33291640D01*
X81142768Y-33326970D01*
X81119986Y-33359900D01*
X81099608Y-33389347D01*
X81082385Y-33414227D01*
X81069067Y-33433455D01*
X81060405Y-33445947D01*
X81059305Y-33447530D01*
X81049034Y-33462350D01*
X81034719Y-33483067D01*
X81017846Y-33507523D01*
X80999904Y-33533565D01*
X80988534Y-33550087D01*
X80970835Y-33575797D01*
X80953395Y-33601097D01*
X80937655Y-33623897D01*
X80925058Y-33642109D01*
X80919184Y-33650573D01*
X80905456Y-33670303D01*
X80889748Y-33692875D01*
X80876702Y-33711619D01*
X80843093Y-33759940D01*
X80814775Y-33800742D01*
X80791423Y-33834500D01*
X80772715Y-33861686D01*
X80758325Y-33882773D01*
X80747929Y-33898237D01*
X80741203Y-33908549D01*
X80737824Y-33914183D01*
X80737369Y-33915145D01*
X80249502Y-33915145D01*
X80275955Y-33876414D01*
X80291420Y-33853832D01*
X80307674Y-33830200D01*
X80322269Y-33809070D01*
X80328897Y-33799525D01*
X80337938Y-33786534D01*
X80351477Y-33767069D01*
X80368436Y-33742678D01*
X80387742Y-33714908D01*
X80408317Y-33685306D01*
X80422273Y-33665224D01*
X80443068Y-33635317D01*
X80463292Y-33606262D01*
X80481877Y-33579594D01*
X80497752Y-33556846D01*
X80509849Y-33539553D01*
X80515335Y-33531743D01*
X80527975Y-33513712D01*
X80543600Y-33491289D01*
X80559661Y-33468133D01*
X80566937Y-33457600D01*
X80585733Y-33430392D01*
X80608950Y-33396850D01*
X80635423Y-33358655D01*
X80663987Y-33317483D01*
X80693477Y-33275014D01*
X80722726Y-33232925D01*
X80750569Y-33192896D01*
X80775841Y-33156605D01*
X80797376Y-33125730D01*
X80800893Y-33120694D01*
X80815220Y-33100123D01*
X80833213Y-33074194D01*
X80853005Y-33045599D01*
X80872732Y-33017033D01*
X80882069Y-33003486D01*
X80922529Y-32944907D01*
X80958847Y-32892695D01*
X80990527Y-32847563D01*
X81004533Y-32827790D01*
X81016177Y-32811231D01*
X81030239Y-32790980D01*
X81043602Y-32771527D01*
X81057682Y-32751083D01*
X81073006Y-32729136D01*
X81085529Y-32711456D01*
X81092354Y-32701792D01*
X81104083Y-32685026D01*
X81120069Y-32662090D01*
X81139662Y-32633918D01*
X81162216Y-32601441D01*
X81187081Y-32565594D01*
X81213608Y-32527309D01*
X81238950Y-32490700D01*
X81267471Y-32449485D01*
X81295776Y-32408596D01*
X81323075Y-32369172D01*
X81348579Y-32332352D01*
X81371499Y-32299277D01*
X81391045Y-32271085D01*
X81406428Y-32248916D01*
X81414883Y-32236748D01*
X81433252Y-32210330D01*
X81454913Y-32179162D01*
X81477588Y-32146520D01*
X81499001Y-32115682D01*
X81506493Y-32104889D01*
X81525019Y-32078223D01*
X81543996Y-32050958D01*
X81561739Y-32025510D01*
X81576564Y-32004295D01*
X81583075Y-31995006D01*
X81595299Y-31977541D01*
X81611456Y-31954375D01*
X81629920Y-31927842D01*
X81649068Y-31900275D01*
X81661267Y-31882682D01*
X81677722Y-31858996D01*
X81692424Y-31837954D01*
X81704405Y-31820932D01*
X81712698Y-31809302D01*
X81716243Y-31804543D01*
X81720504Y-31798761D01*
X81728969Y-31786646D01*
X81740407Y-31769980D01*
X81753397Y-31750823D01*
X81769736Y-31726747D01*
X81787415Y-31700943D01*
X81803897Y-31677105D01*
X81812960Y-31664137D01*
X81839588Y-31626289D01*
X81256042Y-31626437D01*
X81218510Y-31681304D01*
X81173030Y-31747556D01*
X81127290Y-31813748D01*
X81121818Y-31821636D01*
X81117606Y-31827709D01*
X81108731Y-31840507D01*
X81096094Y-31858729D01*
X81080599Y-31881075D01*
X81063148Y-31906242D01*
X81057474Y-31914426D01*
X81036076Y-31945272D01*
X81013034Y-31978465D01*
X80990197Y-32011341D01*
X80969414Y-32041241D01*
X80954012Y-32063378D01*
X80919752Y-32112717D01*
X80884168Y-32164200D01*
X80849223Y-32214978D01*
X80816881Y-32262199D01*
X80800939Y-32285585D01*
X80788919Y-32303138D01*
X80778918Y-32317524D01*
X80772215Y-32326916D01*
X80770173Y-32329538D01*
X80766247Y-32334683D01*
X80758875Y-32345277D01*
X80753033Y-32353957D01*
X80744690Y-32366275D01*
X80732287Y-32384303D01*
X80717395Y-32405770D01*
X80701584Y-32428405D01*
X80698995Y-32432095D01*
X80685852Y-32450837D01*
X80673796Y-32468081D01*
X80661875Y-32485201D01*
X80649140Y-32503570D01*
X80634641Y-32524561D01*
X80617427Y-32549547D01*
X80596548Y-32579901D01*
X80572266Y-32615233D01*
X80545000Y-32654866D01*
X80519068Y-32692467D01*
X80495304Y-32726828D01*
X80474545Y-32756743D01*
X80457627Y-32781004D01*
X80445411Y-32798371D01*
X80434934Y-32813291D01*
X80420873Y-32833519D01*
X80405141Y-32856292D01*
X80391036Y-32876827D01*
X80374470Y-32900931D01*
X80354651Y-32929623D01*
X80333938Y-32959498D01*
X80314690Y-32987148D01*
X80312625Y-32990105D01*
X80292740Y-33018666D01*
X80270089Y-33051347D01*
X80247407Y-33084196D01*
X80227427Y-33113261D01*
X80226700Y-33114322D01*
X80207448Y-33142338D01*
X80185918Y-33173532D01*
X80164625Y-33204265D01*
X80146085Y-33230900D01*
X80144606Y-33233018D01*
X80129214Y-33255070D01*
X80114814Y-33275756D01*
X80102846Y-33293004D01*
X80094748Y-33304744D01*
X80093702Y-33306274D01*
X80086797Y-33316338D01*
X80075647Y-33332511D01*
X80061575Y-33352878D01*
X80045904Y-33375524D01*
X80039054Y-33385411D01*
X79990505Y-33455465D01*
X79947421Y-33517642D01*
X79909697Y-33572092D01*
X79877231Y-33618962D01*
X79849920Y-33658403D01*
X79827660Y-33690563D01*
X79810349Y-33715590D01*
X79797883Y-33733634D01*
X79796356Y-33735846D01*
X79781048Y-33757989D01*
X79764768Y-33781461D01*
X79750218Y-33802370D01*
X79745384Y-33809292D01*
X79725623Y-33837694D01*
X79707847Y-33863532D01*
X79692791Y-33885713D01*
X79681190Y-33903147D01*
X79673779Y-33914740D01*
X79671289Y-33919364D01*
X79035865Y-33919364D01*
X79021760Y-33911632D01*
X78989873Y-33894153D01*
G37*
%TO.C,J1*%
X61241315Y-40065026D02*
X67241315Y-40065026D01*
X70298386Y-33205026D02*
X69901315Y-33205026D01*
X72838386Y-34985026D02*
X72384244Y-34985026D01*
X69901315Y-39175026D02*
X67241315Y-39175026D01*
X61241315Y-35745026D02*
X61241315Y-34985026D01*
X70298386Y-40065026D02*
X69901315Y-40065026D01*
X69901315Y-31495026D02*
X67241315Y-31495026D01*
X67241315Y-35745026D02*
X61241315Y-35745026D01*
X67241315Y-31495026D02*
X67241315Y-41775026D01*
X67241315Y-40645026D02*
X61241315Y-40645026D01*
X70298386Y-35745026D02*
X69901315Y-35745026D01*
X69901315Y-34095026D02*
X67241315Y-34095026D01*
X72838386Y-33205026D02*
X72384244Y-33205026D01*
X61241315Y-34985026D02*
X67241315Y-34985026D01*
X70298386Y-32445026D02*
X69901315Y-32445026D01*
X72838386Y-37525026D02*
X72384244Y-37525026D01*
X72771315Y-40065026D02*
X72384244Y-40065026D01*
X72771315Y-40825026D02*
X72384244Y-40825026D01*
X72838386Y-38285026D02*
X72384244Y-38285026D01*
X70298386Y-37525026D02*
X69901315Y-37525026D01*
X67241315Y-38285026D02*
X61241315Y-38285026D01*
X61241315Y-40825026D02*
X61241315Y-40065026D01*
X70298386Y-40825026D02*
X69901315Y-40825026D01*
X67241315Y-40765026D02*
X61241315Y-40765026D01*
X75151315Y-40445026D02*
X75151315Y-41715026D01*
X67241315Y-40405026D02*
X61241315Y-40405026D01*
X61241315Y-38285026D02*
X61241315Y-37525026D01*
X67241315Y-40525026D02*
X61241315Y-40525026D01*
X67241315Y-41775026D02*
X69901315Y-41775026D01*
X67241315Y-40285026D02*
X61241315Y-40285026D01*
X75151315Y-41715026D02*
X73881315Y-41715026D01*
X69901315Y-41775026D02*
X69901315Y-31495026D01*
X61241315Y-37525026D02*
X67241315Y-37525026D01*
X61241315Y-32445026D02*
X67241315Y-32445026D01*
X69901315Y-36635026D02*
X67241315Y-36635026D01*
X67241315Y-40825026D02*
X61241315Y-40825026D01*
X72838386Y-35745026D02*
X72384244Y-35745026D01*
X61241315Y-33205026D02*
X61241315Y-32445026D01*
X70298386Y-38285026D02*
X69901315Y-38285026D01*
X67241315Y-33205026D02*
X61241315Y-33205026D01*
X72838386Y-32445026D02*
X72384244Y-32445026D01*
X70298386Y-34985026D02*
X69901315Y-34985026D01*
X67241315Y-40165026D02*
X61241315Y-40165026D01*
%TD*%
M02*
