%TF.GenerationSoftware,KiCad,Pcbnew,(6.0.7)*%
%TF.CreationDate,2022-11-20T15:50:49-05:00*%
%TF.ProjectId,CANBurner,43414e42-7572-46e6-9572-2e6b69636164,2.0*%
%TF.SameCoordinates,Original*%
%TF.FileFunction,Soldermask,Bot*%
%TF.FilePolarity,Negative*%
%FSLAX46Y46*%
G04 Gerber Fmt 4.6, Leading zero omitted, Abs format (unit mm)*
G04 Created by KiCad (PCBNEW (6.0.7)) date 2022-11-20 15:50:49*
%MOMM*%
%LPD*%
G01*
G04 APERTURE LIST*
G04 Aperture macros list*
%AMRoundRect*
0 Rectangle with rounded corners*
0 $1 Rounding radius*
0 $2 $3 $4 $5 $6 $7 $8 $9 X,Y pos of 4 corners*
0 Add a 4 corners polygon primitive as box body*
4,1,4,$2,$3,$4,$5,$6,$7,$8,$9,$2,$3,0*
0 Add four circle primitives for the rounded corners*
1,1,$1+$1,$2,$3*
1,1,$1+$1,$4,$5*
1,1,$1+$1,$6,$7*
1,1,$1+$1,$8,$9*
0 Add four rect primitives between the rounded corners*
20,1,$1+$1,$2,$3,$4,$5,0*
20,1,$1+$1,$4,$5,$6,$7,0*
20,1,$1+$1,$6,$7,$8,$9,0*
20,1,$1+$1,$8,$9,$2,$3,0*%
%AMFreePoly0*
4,1,6,1.000000,0.000000,0.500000,-0.750000,-0.500000,-0.750000,-0.500000,0.750000,0.500000,0.750000,1.000000,0.000000,1.000000,0.000000,$1*%
%AMFreePoly1*
4,1,6,0.500000,-0.750000,-0.650000,-0.750000,-0.150000,0.000000,-0.650000,0.750000,0.500000,0.750000,0.500000,-0.750000,0.500000,-0.750000,$1*%
G04 Aperture macros list end*
%ADD10O,1.700000X1.700000*%
%ADD11RoundRect,0.425000X-0.425000X0.425000X-0.425000X-0.425000X0.425000X-0.425000X0.425000X0.425000X0*%
%ADD12RoundRect,0.300000X0.575000X-0.300000X0.575000X0.300000X-0.575000X0.300000X-0.575000X-0.300000X0*%
%ADD13O,1.750000X1.200000*%
%ADD14C,2.400000*%
%ADD15O,2.400000X2.400000*%
%ADD16R,1.700000X1.700000*%
%ADD17C,1.700000*%
%ADD18FreePoly0,180.000000*%
%ADD19FreePoly1,180.000000*%
G04 APERTURE END LIST*
%TO.C,G\u002A\u002A\u002A*%
G36*
X71530419Y-21054503D02*
G01*
X71783220Y-21114928D01*
X71820207Y-21126978D01*
X72064387Y-21227488D01*
X72285774Y-21355810D01*
X72482793Y-21509483D01*
X72653867Y-21686047D01*
X72797421Y-21883041D01*
X72911879Y-22098006D01*
X72995665Y-22328480D01*
X73047202Y-22572003D01*
X73064916Y-22826114D01*
X73047229Y-23088354D01*
X73011760Y-23281338D01*
X72936040Y-23525837D01*
X72828316Y-23751093D01*
X72688394Y-23957496D01*
X72516076Y-24145436D01*
X72439779Y-24213851D01*
X72228246Y-24370101D01*
X71995127Y-24499618D01*
X71746347Y-24599400D01*
X71487830Y-24666445D01*
X71466952Y-24670066D01*
X71359980Y-24681347D01*
X71220050Y-24686406D01*
X71045184Y-24685328D01*
X70949636Y-24682913D01*
X70849038Y-24678655D01*
X70769825Y-24672195D01*
X70702863Y-24662447D01*
X70639018Y-24648327D01*
X70569156Y-24628748D01*
X70538233Y-24619237D01*
X70310163Y-24529902D01*
X70108621Y-24415190D01*
X69934508Y-24276086D01*
X69788727Y-24113574D01*
X69672182Y-23928639D01*
X69585773Y-23722266D01*
X69530405Y-23495440D01*
X69526815Y-23475502D01*
X69508354Y-23400373D01*
X69479455Y-23316983D01*
X69437125Y-23217427D01*
X69378372Y-23093800D01*
X69355063Y-23046692D01*
X69309361Y-22956170D01*
X69268766Y-22878076D01*
X69236993Y-22819499D01*
X69217760Y-22787525D01*
X69185827Y-22743106D01*
X69259799Y-22780691D01*
X69271308Y-22786254D01*
X69331622Y-22811524D01*
X69410084Y-22840604D01*
X69492754Y-22868253D01*
X69520543Y-22877197D01*
X69595532Y-22903352D01*
X69656967Y-22927574D01*
X69693677Y-22945564D01*
X69695497Y-22946788D01*
X69735566Y-22989280D01*
X69778470Y-23059592D01*
X69819752Y-23149311D01*
X69854957Y-23250025D01*
X69884660Y-23350138D01*
X69836559Y-23338066D01*
X69820585Y-23334276D01*
X69799322Y-23334514D01*
X69794495Y-23354040D01*
X69801234Y-23401612D01*
X69804184Y-23450428D01*
X69795984Y-23476476D01*
X69781064Y-23474491D01*
X69763962Y-23439823D01*
X69750653Y-23418075D01*
X69717942Y-23402415D01*
X69686242Y-23413979D01*
X69666545Y-23449925D01*
X69662580Y-23501710D01*
X69672722Y-23560561D01*
X69695347Y-23617703D01*
X69728827Y-23664362D01*
X69771540Y-23691764D01*
X69818703Y-23692387D01*
X69881365Y-23668384D01*
X69945191Y-23623934D01*
X69999990Y-23564706D01*
X70028940Y-23520929D01*
X70073899Y-23416306D01*
X70084666Y-23306993D01*
X70062492Y-23185396D01*
X70060794Y-23179282D01*
X70059884Y-23160820D01*
X70074100Y-23150390D01*
X70110871Y-23145231D01*
X70177621Y-23142581D01*
X70243376Y-23138227D01*
X70317310Y-23123796D01*
X70390142Y-23095781D01*
X70471450Y-23050308D01*
X70570816Y-22983500D01*
X70602014Y-22962530D01*
X70700903Y-22907248D01*
X70820411Y-22855620D01*
X70964719Y-22806156D01*
X71138005Y-22757368D01*
X71344448Y-22707764D01*
X71442879Y-22685393D01*
X71615558Y-22644539D01*
X71758225Y-22607839D01*
X71875424Y-22573638D01*
X71971700Y-22540281D01*
X72051597Y-22506113D01*
X72119659Y-22469479D01*
X72180431Y-22428725D01*
X72238457Y-22382195D01*
X72273484Y-22353624D01*
X72309885Y-22328120D01*
X72327386Y-22321682D01*
X72328520Y-22330460D01*
X72313867Y-22364170D01*
X72281966Y-22414920D01*
X72237911Y-22475833D01*
X72186796Y-22540028D01*
X72133713Y-22600626D01*
X72083757Y-22650747D01*
X72019463Y-22705339D01*
X71937851Y-22762940D01*
X71845842Y-22814577D01*
X71738119Y-22862577D01*
X71609367Y-22909266D01*
X71454271Y-22956971D01*
X71267515Y-23008019D01*
X71267406Y-23008048D01*
X71135565Y-23044728D01*
X71027303Y-23079297D01*
X70945907Y-23110496D01*
X70894660Y-23137068D01*
X70876848Y-23157751D01*
X70879879Y-23165545D01*
X70911301Y-23181182D01*
X70972763Y-23191394D01*
X71059230Y-23195564D01*
X71165666Y-23193075D01*
X71266065Y-23183991D01*
X71345558Y-23166526D01*
X71417070Y-23137536D01*
X71458970Y-23118409D01*
X71497799Y-23104942D01*
X71512784Y-23106012D01*
X71505540Y-23119973D01*
X71477823Y-23154271D01*
X71436461Y-23198178D01*
X71411214Y-23222088D01*
X71345558Y-23272935D01*
X71267441Y-23317403D01*
X71171903Y-23357404D01*
X71053980Y-23394847D01*
X70908709Y-23431644D01*
X70731128Y-23469703D01*
X70702076Y-23479858D01*
X70700333Y-23494136D01*
X70730099Y-23508566D01*
X70788392Y-23520503D01*
X70826230Y-23523128D01*
X70906001Y-23521263D01*
X70996879Y-23513378D01*
X71083373Y-23500972D01*
X71149993Y-23485542D01*
X71153203Y-23484581D01*
X71166079Y-23486242D01*
X71153879Y-23503447D01*
X71122247Y-23531805D01*
X71076826Y-23566926D01*
X71023258Y-23604418D01*
X70967187Y-23639892D01*
X70914256Y-23668957D01*
X70877064Y-23686882D01*
X70829983Y-23706537D01*
X70784334Y-23719276D01*
X70730407Y-23726868D01*
X70658493Y-23731080D01*
X70558881Y-23733682D01*
X70550450Y-23733864D01*
X70461787Y-23736897D01*
X70388136Y-23741388D01*
X70336961Y-23746760D01*
X70315729Y-23752438D01*
X70315184Y-23760251D01*
X70336464Y-23781780D01*
X70380685Y-23807027D01*
X70438935Y-23831935D01*
X70502304Y-23852446D01*
X70561882Y-23864505D01*
X70660804Y-23876221D01*
X70531383Y-23919878D01*
X70458522Y-23940744D01*
X70377215Y-23957221D01*
X70312086Y-23963535D01*
X70282005Y-23964251D01*
X70238129Y-23972439D01*
X70224338Y-23993299D01*
X70239629Y-24031213D01*
X70282997Y-24090560D01*
X70362825Y-24177546D01*
X70499374Y-24283305D01*
X70652697Y-24359889D01*
X70817934Y-24406546D01*
X70990222Y-24422524D01*
X71164702Y-24407073D01*
X71336512Y-24359439D01*
X71500792Y-24278872D01*
X71540372Y-24255992D01*
X71581149Y-24236147D01*
X71600419Y-24231975D01*
X71600761Y-24232483D01*
X71589697Y-24248548D01*
X71555762Y-24278570D01*
X71506847Y-24316641D01*
X71450841Y-24356855D01*
X71395637Y-24393305D01*
X71349124Y-24420085D01*
X71316285Y-24438209D01*
X71291678Y-24459297D01*
X71301836Y-24469754D01*
X71345965Y-24469184D01*
X71423270Y-24457189D01*
X71626193Y-24408002D01*
X71819421Y-24334667D01*
X71983490Y-24239486D01*
X72119867Y-24120869D01*
X72230023Y-23977223D01*
X72315427Y-23806958D01*
X72377548Y-23608483D01*
X72417856Y-23380207D01*
X72424309Y-23327895D01*
X72433163Y-23261264D01*
X72439950Y-23225432D01*
X72446244Y-23216339D01*
X72453620Y-23229927D01*
X72463651Y-23262135D01*
X72496647Y-23398348D01*
X72516029Y-23562208D01*
X72509758Y-23708836D01*
X72509662Y-23709508D01*
X72502663Y-23771542D01*
X72501277Y-23815752D01*
X72505808Y-23832607D01*
X72508342Y-23832221D01*
X72533456Y-23812738D01*
X72569344Y-23769786D01*
X72610127Y-23711651D01*
X72649929Y-23646621D01*
X72682870Y-23582982D01*
X72688718Y-23569908D01*
X72743800Y-23402047D01*
X72773044Y-23216114D01*
X72777525Y-23019320D01*
X72758314Y-22818878D01*
X72716485Y-22621999D01*
X72653109Y-22435895D01*
X72569260Y-22267779D01*
X72466009Y-22124863D01*
X72431593Y-22082353D01*
X72411802Y-22049366D01*
X72414675Y-22037025D01*
X72445396Y-22045231D01*
X72499462Y-22074465D01*
X72562473Y-22118532D01*
X72625023Y-22170735D01*
X72677708Y-22224374D01*
X72708682Y-22258149D01*
X72741249Y-22287276D01*
X72758347Y-22294014D01*
X72762765Y-22284567D01*
X72758736Y-22244101D01*
X72738067Y-22182236D01*
X72704003Y-22105426D01*
X72659790Y-22020123D01*
X72608674Y-21932781D01*
X72553900Y-21849854D01*
X72498715Y-21777794D01*
X72412363Y-21685493D01*
X72265507Y-21563591D01*
X72104792Y-21465956D01*
X71936301Y-21395499D01*
X71766117Y-21355130D01*
X71600322Y-21347763D01*
X71582178Y-21348701D01*
X71529863Y-21347551D01*
X71510292Y-21339816D01*
X71520587Y-21327390D01*
X71557874Y-21312166D01*
X71619275Y-21296036D01*
X71701916Y-21280894D01*
X71858807Y-21257069D01*
X71774639Y-21218201D01*
X71675512Y-21179230D01*
X71542738Y-21141152D01*
X71399498Y-21111866D01*
X71254776Y-21092528D01*
X71117556Y-21084295D01*
X70996820Y-21088325D01*
X70901552Y-21105774D01*
X70873779Y-21113736D01*
X70806875Y-21129069D01*
X70753693Y-21136477D01*
X70751728Y-21136596D01*
X70703752Y-21144734D01*
X70635635Y-21162096D01*
X70561451Y-21185120D01*
X70543394Y-21191179D01*
X70477701Y-21211145D01*
X70444207Y-21217711D01*
X70441349Y-21212535D01*
X70467566Y-21197276D01*
X70521296Y-21173591D01*
X70600978Y-21143140D01*
X70759537Y-21093425D01*
X71015825Y-21043817D01*
X71273704Y-21030821D01*
X71530419Y-21054503D01*
G37*
%TD*%
D10*
%TO.C,I\u00B2C*%
X84619469Y-22330407D03*
X82079469Y-22330407D03*
D11*
X79539469Y-22330407D03*
D10*
X76999469Y-22330407D03*
%TD*%
D12*
%TO.C,Toolboard*%
X91540000Y-39445000D03*
D13*
X91540000Y-37445000D03*
X91540000Y-35445000D03*
X91540000Y-33445000D03*
X91540000Y-31445000D03*
X91540000Y-29445000D03*
X91540000Y-27445000D03*
X91540000Y-25445000D03*
%TD*%
D14*
%TO.C,HEF Resistor*%
X82850000Y-27940000D03*
D15*
X67610000Y-27940000D03*
%TD*%
D10*
%TO.C,J1*%
X71341315Y-32825026D03*
X73881315Y-32825026D03*
X71341315Y-35365026D03*
X73881315Y-35365026D03*
X71341315Y-37905026D03*
X73881315Y-37905026D03*
D16*
X71341315Y-40445026D03*
D17*
X73881315Y-40445026D03*
%TD*%
D18*
%TO.C,Bypass*%
X74385000Y-27925000D03*
D19*
X72935000Y-27925000D03*
%TD*%
D18*
%TO.C,LED Bypass*%
X69305000Y-45910000D03*
D19*
X67855000Y-45910000D03*
%TD*%
M02*
