%TF.GenerationSoftware,KiCad,Pcbnew,(6.0.7)*%
%TF.CreationDate,2022-11-20T15:50:49-05:00*%
%TF.ProjectId,CANBurner,43414e42-7572-46e6-9572-2e6b69636164,2.0*%
%TF.SameCoordinates,Original*%
%TF.FileFunction,Copper,L2,Bot*%
%TF.FilePolarity,Positive*%
%FSLAX46Y46*%
G04 Gerber Fmt 4.6, Leading zero omitted, Abs format (unit mm)*
G04 Created by KiCad (PCBNEW (6.0.7)) date 2022-11-20 15:50:49*
%MOMM*%
%LPD*%
G01*
G04 APERTURE LIST*
G04 Aperture macros list*
%AMRoundRect*
0 Rectangle with rounded corners*
0 $1 Rounding radius*
0 $2 $3 $4 $5 $6 $7 $8 $9 X,Y pos of 4 corners*
0 Add a 4 corners polygon primitive as box body*
4,1,4,$2,$3,$4,$5,$6,$7,$8,$9,$2,$3,0*
0 Add four circle primitives for the rounded corners*
1,1,$1+$1,$2,$3*
1,1,$1+$1,$4,$5*
1,1,$1+$1,$6,$7*
1,1,$1+$1,$8,$9*
0 Add four rect primitives between the rounded corners*
20,1,$1+$1,$2,$3,$4,$5,0*
20,1,$1+$1,$4,$5,$6,$7,0*
20,1,$1+$1,$6,$7,$8,$9,0*
20,1,$1+$1,$8,$9,$2,$3,0*%
%AMFreePoly0*
4,1,6,1.000000,0.000000,0.500000,-0.750000,-0.500000,-0.750000,-0.500000,0.750000,0.500000,0.750000,1.000000,0.000000,1.000000,0.000000,$1*%
%AMFreePoly1*
4,1,6,0.500000,-0.750000,-0.650000,-0.750000,-0.150000,0.000000,-0.650000,0.750000,0.500000,0.750000,0.500000,-0.750000,0.500000,-0.750000,$1*%
G04 Aperture macros list end*
%TA.AperFunction,ComponentPad*%
%ADD10O,1.700000X1.700000*%
%TD*%
%TA.AperFunction,ComponentPad*%
%ADD11RoundRect,0.425000X-0.425000X0.425000X-0.425000X-0.425000X0.425000X-0.425000X0.425000X0.425000X0*%
%TD*%
%TA.AperFunction,ComponentPad*%
%ADD12RoundRect,0.300000X0.575000X-0.300000X0.575000X0.300000X-0.575000X0.300000X-0.575000X-0.300000X0*%
%TD*%
%TA.AperFunction,ComponentPad*%
%ADD13O,1.750000X1.200000*%
%TD*%
%TA.AperFunction,ComponentPad*%
%ADD14C,2.400000*%
%TD*%
%TA.AperFunction,ComponentPad*%
%ADD15O,2.400000X2.400000*%
%TD*%
%TA.AperFunction,ComponentPad*%
%ADD16R,1.700000X1.700000*%
%TD*%
%TA.AperFunction,ComponentPad*%
%ADD17C,1.700000*%
%TD*%
%TA.AperFunction,SMDPad,CuDef*%
%ADD18FreePoly0,180.000000*%
%TD*%
%TA.AperFunction,SMDPad,CuDef*%
%ADD19FreePoly1,180.000000*%
%TD*%
%TA.AperFunction,ViaPad*%
%ADD20C,0.800000*%
%TD*%
%TA.AperFunction,Conductor*%
%ADD21C,0.500000*%
%TD*%
G04 APERTURE END LIST*
D10*
%TO.P,I\u00B2C,1*%
%TO.N,/A1*%
X84619469Y-22330407D03*
%TO.P,I\u00B2C,2*%
%TO.N,/A2*%
X82079469Y-22330407D03*
D11*
%TO.P,I\u00B2C,3*%
%TO.N,/GND*%
X79539469Y-22330407D03*
D10*
%TO.P,I\u00B2C,4*%
%TO.N,/5V*%
X76999469Y-22330407D03*
%TD*%
D12*
%TO.P,Toolboard,1*%
%TO.N,/GND*%
X91540000Y-39445000D03*
D13*
%TO.P,Toolboard,2*%
%TO.N,/24V*%
X91540000Y-37445000D03*
%TO.P,Toolboard,3*%
%TO.N,/Sig*%
X91540000Y-35445000D03*
%TO.P,Toolboard,4*%
%TO.N,/5V*%
X91540000Y-33445000D03*
%TO.P,Toolboard,5*%
%TO.N,/PCF*%
X91540000Y-31445000D03*
%TO.P,Toolboard,6*%
%TO.N,/A2*%
X91540000Y-29445000D03*
%TO.P,Toolboard,7*%
%TO.N,/A1*%
X91540000Y-27445000D03*
%TO.P,Toolboard,8*%
%TO.N,/HEF*%
X91540000Y-25445000D03*
%TD*%
D14*
%TO.P,HEF Resistor,1*%
%TO.N,/HEF*%
X82850000Y-27940000D03*
D15*
%TO.P,HEF Resistor,2*%
X67610000Y-27940000D03*
%TD*%
D10*
%TO.P,J1,1,Pin_1*%
%TO.N,/A1*%
X71341315Y-32825026D03*
%TO.P,J1,2,Pin_2*%
%TO.N,/A2*%
X73881315Y-32825026D03*
%TO.P,J1,3,Pin_3*%
%TO.N,/HEF*%
X71341315Y-35365026D03*
%TO.P,J1,4,Pin_4*%
%TO.N,/PCF*%
X73881315Y-35365026D03*
%TO.P,J1,5,Pin_5*%
%TO.N,/Sig*%
X71341315Y-37905026D03*
%TO.P,J1,6,Pin_6*%
%TO.N,/5V*%
X73881315Y-37905026D03*
D16*
%TO.P,J1,7,Pin_7*%
%TO.N,/GND*%
X71341315Y-40445026D03*
D17*
%TO.P,J1,8,Pin_8*%
%TO.N,/24V*%
X73881315Y-40445026D03*
%TD*%
D18*
%TO.P,Bypass,1*%
%TO.N,/HEF*%
X74385000Y-27925000D03*
D19*
%TO.P,Bypass,2*%
X72935000Y-27925000D03*
%TD*%
D18*
%TO.P,LED Bypass,1*%
%TO.N,/Sig*%
X69305000Y-45910000D03*
D19*
%TO.P,LED Bypass,2*%
X67855000Y-45910000D03*
%TD*%
D20*
%TO.N,/Sig*%
X81280000Y-40319805D03*
X85250000Y-39355000D03*
X77459972Y-39369999D03*
%TD*%
D21*
%TO.N,/24V*%
X91482500Y-37502500D02*
X91540000Y-37445000D01*
X75323828Y-39002513D02*
X73881315Y-40445026D01*
X78806362Y-37560000D02*
X91343682Y-37560000D01*
X75323857Y-39002542D02*
G75*
G02*
X78806362Y-37560000I3482543J-3482458D01*
G01*
X91343682Y-37559992D02*
G75*
G03*
X91482499Y-37502499I18J196292D01*
G01*
%TO.N,/HEF*%
X74392500Y-27932500D02*
X74385000Y-27925000D01*
X72927500Y-27932500D02*
X72935000Y-27925000D01*
X74410606Y-27940000D02*
X82850000Y-27940000D01*
X72909393Y-27940000D02*
X67610000Y-27940000D01*
X74410606Y-27939997D02*
G75*
G02*
X74392500Y-27932500I-6J25597D01*
G01*
X72909393Y-27939997D02*
G75*
G03*
X72927500Y-27932500I7J25597D01*
G01*
%TO.N,/A1*%
X84619469Y-25318745D02*
X84619469Y-22330407D01*
X85338750Y-29486250D02*
X85960000Y-28865000D01*
X84096250Y-30728750D02*
X85338750Y-29486250D01*
X90368428Y-27445000D02*
X89262671Y-27445000D01*
X72078828Y-32087513D02*
X71341315Y-32825026D01*
X86745723Y-27445000D02*
X90368428Y-27445000D01*
X82596419Y-31350000D02*
X73859341Y-31350000D01*
X85338750Y-29486250D02*
X84096250Y-30728750D01*
X85338750Y-29486250D02*
X86048750Y-28776250D01*
X90368428Y-27445000D02*
G75*
G02*
X90368428Y-27445000I0J0D01*
G01*
X86048758Y-28776258D02*
G75*
G02*
X89262671Y-27445000I3213942J-3213942D01*
G01*
X82596419Y-31350008D02*
G75*
G03*
X84096250Y-30728750I-19J2121108D01*
G01*
X72078813Y-32087498D02*
G75*
G02*
X73859341Y-31350000I1780487J-1780502D01*
G01*
X85338750Y-29486250D02*
G75*
G02*
X85338750Y-29486250I0J0D01*
G01*
X86745723Y-27444970D02*
G75*
G02*
X85242234Y-26822234I-23J2126270D01*
G01*
X85242262Y-26822206D02*
G75*
G02*
X84619469Y-25318745I1503438J1503506D01*
G01*
%TO.N,/A2*%
X92186800Y-22336800D02*
X92095542Y-22245542D01*
X82836630Y-21573245D02*
X82079469Y-22330407D01*
X92532500Y-28452500D02*
X91540000Y-29445000D01*
X84664580Y-20816084D02*
X88644525Y-20816084D01*
X93525000Y-26056393D02*
X93525000Y-25567500D01*
X93524999Y-25567500D02*
G75*
G03*
X92186799Y-22336801I-4568899J0D01*
G01*
X88644525Y-20816079D02*
G75*
G02*
X92095541Y-22245543I-25J-4880521D01*
G01*
X82836639Y-21573254D02*
G75*
G02*
X84664580Y-20816084I1827961J-1827946D01*
G01*
X92532502Y-28452502D02*
G75*
G03*
X93525000Y-26056393I-2396102J2396102D01*
G01*
%TO.N,/Sig*%
X93013145Y-39033948D02*
X93013145Y-37878498D01*
X80229999Y-42319999D02*
X80944055Y-41605944D01*
X66770000Y-42640000D02*
X66763672Y-42633672D01*
X79061207Y-44963792D02*
X75870217Y-48154782D01*
X75157500Y-48450000D02*
X74322500Y-48450000D01*
X69382718Y-37905026D02*
X71341315Y-37905026D01*
X77467471Y-39362499D02*
X77459972Y-39369999D01*
X91691011Y-35596011D02*
X92334072Y-36239072D01*
X66040000Y-45585649D02*
X66040000Y-42933427D01*
X68532375Y-43370000D02*
X77695075Y-43370000D01*
X82908963Y-43370000D02*
X88677093Y-43370000D01*
X74322500Y-48450000D02*
X73716572Y-48450000D01*
X69691572Y-45910000D02*
X69230000Y-45910000D01*
X70479526Y-46236381D02*
X71969472Y-47726327D01*
X81280000Y-40794902D02*
X81280000Y-40319805D01*
X66364350Y-45910000D02*
X67930000Y-45910000D01*
X66040000Y-42933427D02*
X66040000Y-40886572D01*
X66763672Y-39139472D02*
X67019059Y-38884085D01*
X77485576Y-39355000D02*
X85090000Y-39355000D01*
X91604072Y-35560000D02*
X91553145Y-35560000D01*
X68532375Y-43370009D02*
G75*
G02*
X66770001Y-42639999I25J2492409D01*
G01*
X66039988Y-40886572D02*
G75*
G02*
X66763672Y-39139472I2470812J-28D01*
G01*
X69691572Y-45910010D02*
G75*
G02*
X70479526Y-46236381I28J-1114290D01*
G01*
X66134985Y-45815015D02*
G75*
G02*
X66040000Y-45585649I229315J229315D01*
G01*
X88677093Y-43369981D02*
G75*
G03*
X91743145Y-42100000I7J4336081D01*
G01*
X93013132Y-37878498D02*
G75*
G03*
X92334072Y-36239072I-2318532J-2D01*
G01*
X80944057Y-41605946D02*
G75*
G03*
X81280000Y-40794902I-811057J811046D01*
G01*
X77695075Y-43369988D02*
G75*
G03*
X80229999Y-42319999I25J3584888D01*
G01*
X73716572Y-48450011D02*
G75*
G02*
X71969472Y-47726327I28J2470811D01*
G01*
X91604072Y-35560005D02*
G75*
G02*
X91691011Y-35596011I28J-122895D01*
G01*
X66364350Y-45910049D02*
G75*
G02*
X66135001Y-45814999I50J324349D01*
G01*
X66039990Y-42933427D02*
G75*
G02*
X66763672Y-42633672I423910J27D01*
G01*
X79061236Y-44963821D02*
G75*
G02*
X82908963Y-43370000I3847764J-3847679D01*
G01*
X91743119Y-42099974D02*
G75*
G03*
X93013145Y-39033948I-3066019J3066074D01*
G01*
X77467484Y-39362512D02*
G75*
G02*
X77485576Y-39355000I18116J-18088D01*
G01*
X67019060Y-38884086D02*
G75*
G02*
X69382718Y-37905026I2363640J-2363614D01*
G01*
X66763653Y-42633691D02*
G75*
G02*
X66040000Y-40886572I1747147J1747091D01*
G01*
X75157500Y-48450009D02*
G75*
G03*
X75870217Y-48154782I0J1007909D01*
G01*
%TD*%
M02*
