%TF.GenerationSoftware,KiCad,Pcbnew,(6.0.7)*%
%TF.CreationDate,2022-11-20T15:50:49-05:00*%
%TF.ProjectId,CANBurner,43414e42-7572-46e6-9572-2e6b69636164,2.0*%
%TF.SameCoordinates,Original*%
%TF.FileFunction,Other,User*%
%FSLAX46Y46*%
G04 Gerber Fmt 4.6, Leading zero omitted, Abs format (unit mm)*
G04 Created by KiCad (PCBNEW (6.0.7)) date 2022-11-20 15:50:49*
%MOMM*%
%LPD*%
G01*
G04 APERTURE LIST*
%ADD10C,0.050000*%
G04 APERTURE END LIST*
D10*
%TO.C,I\u00B2C*%
X86419469Y-24080407D02*
X75219469Y-24080407D01*
X86419469Y-20530407D02*
X86419469Y-24080407D01*
X75219469Y-24080407D02*
X75219469Y-20530407D01*
X75219469Y-20530407D02*
X86419469Y-20530407D01*
%TO.C,Status*%
X77830000Y-37106814D02*
X77830000Y-42606814D01*
X77830000Y-42606814D02*
X84730000Y-42606814D01*
X84730000Y-42606814D02*
X84730000Y-37106814D01*
X84730000Y-37106814D02*
X77830000Y-37106814D01*
%TO.C,Toolboard*%
X89690000Y-41895000D02*
X98290000Y-41895000D01*
X89690000Y-22995000D02*
X89690000Y-41895000D01*
X98290000Y-41895000D02*
X98290000Y-22995000D01*
X98290000Y-22995000D02*
X89690000Y-22995000D01*
%TO.C,HEF Resistor*%
X84300000Y-30440000D02*
X84300000Y-25440000D01*
X84300000Y-25440000D02*
X66160000Y-25440000D01*
X66160000Y-30440000D02*
X84300000Y-30440000D01*
X66160000Y-25440000D02*
X66160000Y-30440000D01*
%TO.C,J1*%
X75681315Y-42245026D02*
X75681315Y-31045026D01*
X60781315Y-31045026D02*
X60781315Y-42245026D01*
X75681315Y-31045026D02*
X60781315Y-31045026D01*
X60781315Y-42245026D02*
X75681315Y-42245026D01*
%TD*%
M02*
