%TF.GenerationSoftware,KiCad,Pcbnew,(6.0.7)*%
%TF.CreationDate,2022-11-20T15:50:49-05:00*%
%TF.ProjectId,CANBurner,43414e42-7572-46e6-9572-2e6b69636164,2.0*%
%TF.SameCoordinates,Original*%
%TF.FileFunction,Copper,L1,Top*%
%TF.FilePolarity,Positive*%
%FSLAX46Y46*%
G04 Gerber Fmt 4.6, Leading zero omitted, Abs format (unit mm)*
G04 Created by KiCad (PCBNEW (6.0.7)) date 2022-11-20 15:50:49*
%MOMM*%
%LPD*%
G01*
G04 APERTURE LIST*
G04 Aperture macros list*
%AMRoundRect*
0 Rectangle with rounded corners*
0 $1 Rounding radius*
0 $2 $3 $4 $5 $6 $7 $8 $9 X,Y pos of 4 corners*
0 Add a 4 corners polygon primitive as box body*
4,1,4,$2,$3,$4,$5,$6,$7,$8,$9,$2,$3,0*
0 Add four circle primitives for the rounded corners*
1,1,$1+$1,$2,$3*
1,1,$1+$1,$4,$5*
1,1,$1+$1,$6,$7*
1,1,$1+$1,$8,$9*
0 Add four rect primitives between the rounded corners*
20,1,$1+$1,$2,$3,$4,$5,0*
20,1,$1+$1,$4,$5,$6,$7,0*
20,1,$1+$1,$6,$7,$8,$9,0*
20,1,$1+$1,$8,$9,$2,$3,0*%
G04 Aperture macros list end*
%TA.AperFunction,ComponentPad*%
%ADD10O,1.700000X1.700000*%
%TD*%
%TA.AperFunction,ComponentPad*%
%ADD11RoundRect,0.425000X-0.425000X0.425000X-0.425000X-0.425000X0.425000X-0.425000X0.425000X0.425000X0*%
%TD*%
%TA.AperFunction,SMDPad,CuDef*%
%ADD12R,1.500000X1.000000*%
%TD*%
%TA.AperFunction,ComponentPad*%
%ADD13RoundRect,0.300000X0.575000X-0.300000X0.575000X0.300000X-0.575000X0.300000X-0.575000X-0.300000X0*%
%TD*%
%TA.AperFunction,ComponentPad*%
%ADD14O,1.750000X1.200000*%
%TD*%
%TA.AperFunction,ComponentPad*%
%ADD15C,2.400000*%
%TD*%
%TA.AperFunction,ComponentPad*%
%ADD16O,2.400000X2.400000*%
%TD*%
%TA.AperFunction,ComponentPad*%
%ADD17R,1.700000X1.700000*%
%TD*%
%TA.AperFunction,ComponentPad*%
%ADD18C,1.700000*%
%TD*%
%TA.AperFunction,ViaPad*%
%ADD19C,0.800000*%
%TD*%
%TA.AperFunction,Conductor*%
%ADD20C,0.500000*%
%TD*%
G04 APERTURE END LIST*
D10*
%TO.P,I\u00B2C,1*%
%TO.N,/A1*%
X84619469Y-22330407D03*
%TO.P,I\u00B2C,2*%
%TO.N,/A2*%
X82079469Y-22330407D03*
D11*
%TO.P,I\u00B2C,3*%
%TO.N,/GND*%
X79539469Y-22330407D03*
D10*
%TO.P,I\u00B2C,4*%
%TO.N,/5V*%
X76999469Y-22330407D03*
%TD*%
D12*
%TO.P,Status,1*%
%TO.N,/5V*%
X83730000Y-38256814D03*
%TO.P,Status,2*%
%TO.N,/Sig*%
X83730000Y-39856814D03*
%TO.P,Status,3*%
%TO.N,/GND*%
X83730000Y-41456814D03*
%TO.P,Status,4*%
X78830000Y-41456814D03*
%TO.P,Status,5*%
%TO.N,/Sig*%
X78830000Y-39856814D03*
%TO.P,Status,6*%
%TO.N,/5V*%
X78830000Y-38256814D03*
%TD*%
D13*
%TO.P,Toolboard,1*%
%TO.N,/GND*%
X91540000Y-39445000D03*
D14*
%TO.P,Toolboard,2*%
%TO.N,/24V*%
X91540000Y-37445000D03*
%TO.P,Toolboard,3*%
%TO.N,/Sig*%
X91540000Y-35445000D03*
%TO.P,Toolboard,4*%
%TO.N,/5V*%
X91540000Y-33445000D03*
%TO.P,Toolboard,5*%
%TO.N,/PCF*%
X91540000Y-31445000D03*
%TO.P,Toolboard,6*%
%TO.N,/A2*%
X91540000Y-29445000D03*
%TO.P,Toolboard,7*%
%TO.N,/A1*%
X91540000Y-27445000D03*
%TO.P,Toolboard,8*%
%TO.N,/HEF*%
X91540000Y-25445000D03*
%TD*%
D15*
%TO.P,HEF Resistor,1*%
%TO.N,/HEF*%
X82850000Y-27940000D03*
D16*
%TO.P,HEF Resistor,2*%
X67610000Y-27940000D03*
%TD*%
D10*
%TO.P,J1,1,Pin_1*%
%TO.N,/A1*%
X71341315Y-32825026D03*
%TO.P,J1,2,Pin_2*%
%TO.N,/A2*%
X73881315Y-32825026D03*
%TO.P,J1,3,Pin_3*%
%TO.N,/HEF*%
X71341315Y-35365026D03*
%TO.P,J1,4,Pin_4*%
%TO.N,/PCF*%
X73881315Y-35365026D03*
%TO.P,J1,5,Pin_5*%
%TO.N,/Sig*%
X71341315Y-37905026D03*
%TO.P,J1,6,Pin_6*%
%TO.N,/5V*%
X73881315Y-37905026D03*
D17*
%TO.P,J1,7,Pin_7*%
%TO.N,/GND*%
X71341315Y-40445026D03*
D18*
%TO.P,J1,8,Pin_8*%
%TO.N,/24V*%
X73881315Y-40445026D03*
%TD*%
D19*
%TO.N,/Sig*%
X81280000Y-40319805D03*
X85250000Y-39355000D03*
X77459972Y-39369999D03*
%TD*%
D20*
%TO.N,/HEF*%
X67610000Y-34545570D02*
X67610000Y-27975000D01*
X85865768Y-27940000D02*
X82850000Y-27940000D01*
X90832500Y-25445000D02*
X91540000Y-25445000D01*
X88877499Y-26692499D02*
X89624721Y-25945278D01*
X68429455Y-35365026D02*
X71341315Y-35365026D01*
X68429455Y-35365066D02*
G75*
G02*
X67850013Y-35125013I45J819466D01*
G01*
X89624712Y-25945269D02*
G75*
G02*
X90832500Y-25445000I1207788J-1207831D01*
G01*
X85865768Y-27939985D02*
G75*
G03*
X88877499Y-26692499I32J4259185D01*
G01*
X67849989Y-35125037D02*
G75*
G02*
X67610000Y-34545570I579511J579437D01*
G01*
%TO.N,/A2*%
X74993828Y-31712513D02*
X73881315Y-32825026D01*
X77679671Y-30600000D02*
X82793061Y-30600000D01*
X85303844Y-29560000D02*
X91343682Y-29560000D01*
X91482500Y-29502500D02*
X91540000Y-29445000D01*
X84048429Y-30079976D02*
G75*
G02*
X85303844Y-29560000I1255371J-1255424D01*
G01*
X82793061Y-30599970D02*
G75*
G03*
X84048453Y-30080000I39J1775370D01*
G01*
X91343682Y-29559992D02*
G75*
G03*
X91482499Y-29502499I18J196292D01*
G01*
X74993854Y-31712539D02*
G75*
G02*
X77679671Y-30600000I2685846J-2685761D01*
G01*
%TO.N,/PCF*%
X82309166Y-35365026D02*
X73881315Y-35365026D01*
X89892641Y-30480000D02*
X85988025Y-30480000D01*
X83820000Y-32648025D02*
X83820000Y-33854192D01*
X91057500Y-30962500D02*
X91540000Y-31445000D01*
X83820011Y-32648025D02*
G75*
G02*
X84455000Y-31115000I2167989J25D01*
G01*
X89892641Y-30479983D02*
G75*
G02*
X91057500Y-30962500I-41J-1647417D01*
G01*
X82309166Y-35365004D02*
G75*
G03*
X83377487Y-34922513I34J1510804D01*
G01*
X84454992Y-31114992D02*
G75*
G02*
X85988025Y-30480000I1533008J-1533008D01*
G01*
X83377484Y-34922510D02*
G75*
G03*
X83820000Y-33854192I-1068284J1068310D01*
G01*
%TO.N,/Sig*%
X90912500Y-35445000D02*
X91540000Y-35445000D01*
X89841290Y-35888709D02*
X86772747Y-38957252D01*
X77998954Y-39369999D02*
X77459972Y-39369999D01*
X78586592Y-39613406D02*
X78830000Y-39856814D01*
X81511495Y-40088309D02*
X81280000Y-40319805D01*
X82070375Y-39856814D02*
X83730000Y-39856814D01*
X85250000Y-39355000D02*
X85812500Y-39355000D01*
X89841294Y-35888713D02*
G75*
G02*
X90912500Y-35445000I1071206J-1071187D01*
G01*
X77998954Y-39370019D02*
G75*
G02*
X78586591Y-39613407I46J-830981D01*
G01*
X85812500Y-39354997D02*
G75*
G03*
X86772746Y-38957251I0J1357997D01*
G01*
X81511506Y-40088320D02*
G75*
G02*
X82070375Y-39856814I558894J-558880D01*
G01*
%TO.N,/5V*%
X74057209Y-38080920D02*
X73881315Y-37905026D01*
X81128448Y-38256814D02*
X82858407Y-38256814D01*
X84601593Y-38256814D02*
X82858407Y-38256814D01*
X89841290Y-33888709D02*
X86089495Y-37640504D01*
X92202499Y-32782499D02*
X91983709Y-33001290D01*
X82111559Y-25325000D02*
X87184357Y-25325000D01*
X78496765Y-23827703D02*
X76999469Y-22330407D01*
X92600398Y-24320000D02*
X89610642Y-24320000D01*
X92865000Y-24584601D02*
X92865000Y-31183083D01*
X81128448Y-38256814D02*
X76531551Y-38256814D01*
X76531551Y-38256814D02*
X74481854Y-38256814D01*
X92864999Y-24584601D02*
G75*
G03*
X92787500Y-24397500I-264599J1D01*
G01*
X92600398Y-24320001D02*
G75*
G02*
X92787500Y-24397500I2J-264599D01*
G01*
X92202505Y-32782505D02*
G75*
G03*
X92865000Y-31183083I-1599405J1599405D01*
G01*
X89841294Y-33888713D02*
G75*
G02*
X90912500Y-33445000I1071206J-1071187D01*
G01*
X74481854Y-38256853D02*
G75*
G02*
X74057209Y-38080920I46J600553D01*
G01*
X90912500Y-33445004D02*
G75*
G03*
X91983708Y-33001289I0J1514904D01*
G01*
X84601593Y-38256807D02*
G75*
G03*
X86089495Y-37640504I7J2104207D01*
G01*
X88397488Y-24822488D02*
G75*
G02*
X89610642Y-24320000I1213112J-1213112D01*
G01*
X87184357Y-25324953D02*
G75*
G03*
X88397500Y-24822500I43J1715653D01*
G01*
X82111559Y-25325026D02*
G75*
G02*
X78496765Y-23827703I41J5112126D01*
G01*
%TO.N,/GND*%
X91811974Y-23050000D02*
X88619949Y-23050000D01*
X85240050Y-24450000D02*
X83157840Y-24450000D01*
X92702499Y-38282499D02*
X91868709Y-39116290D01*
X71341315Y-40596598D02*
X71341315Y-40445026D01*
X86001593Y-41456814D02*
X86931935Y-41456814D01*
X89726290Y-40003709D02*
X89221593Y-40508407D01*
X77601132Y-41456814D02*
X77988165Y-41456814D01*
X76048343Y-42100000D02*
X73649033Y-42100000D01*
X93980000Y-35198342D02*
X93980000Y-25218025D01*
X79671834Y-41456814D02*
X81458407Y-41456814D01*
X86001593Y-41456814D02*
X81458407Y-41456814D01*
X79671834Y-41456814D02*
X77988165Y-41456814D01*
X80599265Y-23390203D02*
X79539469Y-22330407D01*
X72017230Y-41424085D02*
X71448492Y-40855347D01*
X93979989Y-25218025D02*
G75*
G03*
X93345000Y-23685000I-2167989J25D01*
G01*
X73649033Y-42099981D02*
G75*
G02*
X72017231Y-41424084I-33J2307681D01*
G01*
X76048343Y-42100027D02*
G75*
G03*
X76824738Y-41778407I-43J1098027D01*
G01*
X86929986Y-23749986D02*
G75*
G02*
X88619949Y-23050000I1689914J-1689914D01*
G01*
X89726294Y-40003713D02*
G75*
G02*
X90797500Y-39560000I1071206J-1071187D01*
G01*
X90797500Y-39560004D02*
G75*
G03*
X91868708Y-39116289I0J1514904D01*
G01*
X91811974Y-23050011D02*
G75*
G02*
X93345000Y-23685000I26J-2167989D01*
G01*
X71448500Y-40855339D02*
G75*
G02*
X71341315Y-40596598I258700J258739D01*
G01*
X86931935Y-41456824D02*
G75*
G03*
X89221592Y-40508406I-35J3238124D01*
G01*
X83157840Y-24449962D02*
G75*
G02*
X80599266Y-23390202I-40J3618362D01*
G01*
X76824722Y-41778391D02*
G75*
G02*
X77601132Y-41456814I776378J-776409D01*
G01*
X92702488Y-38282488D02*
G75*
G03*
X93980000Y-35198342I-3084188J3084188D01*
G01*
X85240050Y-24450020D02*
G75*
G03*
X86929999Y-23749999I-50J2390020D01*
G01*
%TD*%
M02*
