%TF.GenerationSoftware,KiCad,Pcbnew,(6.0.7)*%
%TF.CreationDate,2022-11-20T15:50:49-05:00*%
%TF.ProjectId,CANBurner,43414e42-7572-46e6-9572-2e6b69636164,2.0*%
%TF.SameCoordinates,Original*%
%TF.FileFunction,AssemblyDrawing,Top*%
%FSLAX46Y46*%
G04 Gerber Fmt 4.6, Leading zero omitted, Abs format (unit mm)*
G04 Created by KiCad (PCBNEW (6.0.7)) date 2022-11-20 15:50:49*
%MOMM*%
%LPD*%
G01*
G04 APERTURE LIST*
%ADD10C,0.150000*%
%ADD11C,0.100000*%
G04 APERTURE END LIST*
D10*
%TO.C,Status*%
X79546666Y-40180623D02*
X79660952Y-40218718D01*
X79851428Y-40218718D01*
X79927619Y-40180623D01*
X79965714Y-40142528D01*
X80003809Y-40066337D01*
X80003809Y-39990147D01*
X79965714Y-39913956D01*
X79927619Y-39875861D01*
X79851428Y-39837766D01*
X79699047Y-39799671D01*
X79622857Y-39761575D01*
X79584761Y-39723480D01*
X79546666Y-39647290D01*
X79546666Y-39571099D01*
X79584761Y-39494909D01*
X79622857Y-39456814D01*
X79699047Y-39418718D01*
X79889523Y-39418718D01*
X80003809Y-39456814D01*
X80232380Y-39685385D02*
X80537142Y-39685385D01*
X80346666Y-39418718D02*
X80346666Y-40104433D01*
X80384761Y-40180623D01*
X80460952Y-40218718D01*
X80537142Y-40218718D01*
X81146666Y-40218718D02*
X81146666Y-39799671D01*
X81108571Y-39723480D01*
X81032380Y-39685385D01*
X80880000Y-39685385D01*
X80803809Y-39723480D01*
X81146666Y-40180623D02*
X81070476Y-40218718D01*
X80880000Y-40218718D01*
X80803809Y-40180623D01*
X80765714Y-40104433D01*
X80765714Y-40028242D01*
X80803809Y-39952052D01*
X80880000Y-39913956D01*
X81070476Y-39913956D01*
X81146666Y-39875861D01*
X81413333Y-39685385D02*
X81718095Y-39685385D01*
X81527619Y-39418718D02*
X81527619Y-40104433D01*
X81565714Y-40180623D01*
X81641904Y-40218718D01*
X81718095Y-40218718D01*
X82327619Y-39685385D02*
X82327619Y-40218718D01*
X81984761Y-39685385D02*
X81984761Y-40104433D01*
X82022857Y-40180623D01*
X82099047Y-40218718D01*
X82213333Y-40218718D01*
X82289523Y-40180623D01*
X82327619Y-40142528D01*
X82670476Y-40180623D02*
X82746666Y-40218718D01*
X82899047Y-40218718D01*
X82975238Y-40180623D01*
X83013333Y-40104433D01*
X83013333Y-40066337D01*
X82975238Y-39990147D01*
X82899047Y-39952052D01*
X82784761Y-39952052D01*
X82708571Y-39913956D01*
X82670476Y-39837766D01*
X82670476Y-39799671D01*
X82708571Y-39723480D01*
X82784761Y-39685385D01*
X82899047Y-39685385D01*
X82975238Y-39723480D01*
%TO.C,Toolboard*%
X93492380Y-36016428D02*
X93492380Y-35445000D01*
X94492380Y-35730714D02*
X93492380Y-35730714D01*
X94492380Y-34968809D02*
X94444761Y-35064047D01*
X94397142Y-35111666D01*
X94301904Y-35159285D01*
X94016190Y-35159285D01*
X93920952Y-35111666D01*
X93873333Y-35064047D01*
X93825714Y-34968809D01*
X93825714Y-34825952D01*
X93873333Y-34730714D01*
X93920952Y-34683095D01*
X94016190Y-34635476D01*
X94301904Y-34635476D01*
X94397142Y-34683095D01*
X94444761Y-34730714D01*
X94492380Y-34825952D01*
X94492380Y-34968809D01*
X94492380Y-34064047D02*
X94444761Y-34159285D01*
X94397142Y-34206904D01*
X94301904Y-34254523D01*
X94016190Y-34254523D01*
X93920952Y-34206904D01*
X93873333Y-34159285D01*
X93825714Y-34064047D01*
X93825714Y-33921190D01*
X93873333Y-33825952D01*
X93920952Y-33778333D01*
X94016190Y-33730714D01*
X94301904Y-33730714D01*
X94397142Y-33778333D01*
X94444761Y-33825952D01*
X94492380Y-33921190D01*
X94492380Y-34064047D01*
X94492380Y-33159285D02*
X94444761Y-33254523D01*
X94349523Y-33302142D01*
X93492380Y-33302142D01*
X94492380Y-32778333D02*
X93492380Y-32778333D01*
X93873333Y-32778333D02*
X93825714Y-32683095D01*
X93825714Y-32492619D01*
X93873333Y-32397380D01*
X93920952Y-32349761D01*
X94016190Y-32302142D01*
X94301904Y-32302142D01*
X94397142Y-32349761D01*
X94444761Y-32397380D01*
X94492380Y-32492619D01*
X94492380Y-32683095D01*
X94444761Y-32778333D01*
X94492380Y-31730714D02*
X94444761Y-31825952D01*
X94397142Y-31873571D01*
X94301904Y-31921190D01*
X94016190Y-31921190D01*
X93920952Y-31873571D01*
X93873333Y-31825952D01*
X93825714Y-31730714D01*
X93825714Y-31587857D01*
X93873333Y-31492619D01*
X93920952Y-31445000D01*
X94016190Y-31397380D01*
X94301904Y-31397380D01*
X94397142Y-31445000D01*
X94444761Y-31492619D01*
X94492380Y-31587857D01*
X94492380Y-31730714D01*
X94492380Y-30540238D02*
X93968571Y-30540238D01*
X93873333Y-30587857D01*
X93825714Y-30683095D01*
X93825714Y-30873571D01*
X93873333Y-30968809D01*
X94444761Y-30540238D02*
X94492380Y-30635476D01*
X94492380Y-30873571D01*
X94444761Y-30968809D01*
X94349523Y-31016428D01*
X94254285Y-31016428D01*
X94159047Y-30968809D01*
X94111428Y-30873571D01*
X94111428Y-30635476D01*
X94063809Y-30540238D01*
X94492380Y-30064047D02*
X93825714Y-30064047D01*
X94016190Y-30064047D02*
X93920952Y-30016428D01*
X93873333Y-29968809D01*
X93825714Y-29873571D01*
X93825714Y-29778333D01*
X94492380Y-29016428D02*
X93492380Y-29016428D01*
X94444761Y-29016428D02*
X94492380Y-29111666D01*
X94492380Y-29302142D01*
X94444761Y-29397380D01*
X94397142Y-29445000D01*
X94301904Y-29492619D01*
X94016190Y-29492619D01*
X93920952Y-29445000D01*
X93873333Y-29397380D01*
X93825714Y-29302142D01*
X93825714Y-29111666D01*
X93873333Y-29016428D01*
%TO.C,HEF Resistor*%
X70358571Y-28392380D02*
X70358571Y-27392380D01*
X70358571Y-27868571D02*
X70930000Y-27868571D01*
X70930000Y-28392380D02*
X70930000Y-27392380D01*
X71406190Y-27868571D02*
X71739523Y-27868571D01*
X71882380Y-28392380D02*
X71406190Y-28392380D01*
X71406190Y-27392380D01*
X71882380Y-27392380D01*
X72644285Y-27868571D02*
X72310952Y-27868571D01*
X72310952Y-28392380D02*
X72310952Y-27392380D01*
X72787142Y-27392380D01*
X74501428Y-28392380D02*
X74168095Y-27916190D01*
X73930000Y-28392380D02*
X73930000Y-27392380D01*
X74310952Y-27392380D01*
X74406190Y-27440000D01*
X74453809Y-27487619D01*
X74501428Y-27582857D01*
X74501428Y-27725714D01*
X74453809Y-27820952D01*
X74406190Y-27868571D01*
X74310952Y-27916190D01*
X73930000Y-27916190D01*
X75310952Y-28344761D02*
X75215714Y-28392380D01*
X75025238Y-28392380D01*
X74930000Y-28344761D01*
X74882380Y-28249523D01*
X74882380Y-27868571D01*
X74930000Y-27773333D01*
X75025238Y-27725714D01*
X75215714Y-27725714D01*
X75310952Y-27773333D01*
X75358571Y-27868571D01*
X75358571Y-27963809D01*
X74882380Y-28059047D01*
X75739523Y-28344761D02*
X75834761Y-28392380D01*
X76025238Y-28392380D01*
X76120476Y-28344761D01*
X76168095Y-28249523D01*
X76168095Y-28201904D01*
X76120476Y-28106666D01*
X76025238Y-28059047D01*
X75882380Y-28059047D01*
X75787142Y-28011428D01*
X75739523Y-27916190D01*
X75739523Y-27868571D01*
X75787142Y-27773333D01*
X75882380Y-27725714D01*
X76025238Y-27725714D01*
X76120476Y-27773333D01*
X76596666Y-28392380D02*
X76596666Y-27725714D01*
X76596666Y-27392380D02*
X76549047Y-27440000D01*
X76596666Y-27487619D01*
X76644285Y-27440000D01*
X76596666Y-27392380D01*
X76596666Y-27487619D01*
X77025238Y-28344761D02*
X77120476Y-28392380D01*
X77310952Y-28392380D01*
X77406190Y-28344761D01*
X77453809Y-28249523D01*
X77453809Y-28201904D01*
X77406190Y-28106666D01*
X77310952Y-28059047D01*
X77168095Y-28059047D01*
X77072857Y-28011428D01*
X77025238Y-27916190D01*
X77025238Y-27868571D01*
X77072857Y-27773333D01*
X77168095Y-27725714D01*
X77310952Y-27725714D01*
X77406190Y-27773333D01*
X77739523Y-27725714D02*
X78120476Y-27725714D01*
X77882380Y-27392380D02*
X77882380Y-28249523D01*
X77930000Y-28344761D01*
X78025238Y-28392380D01*
X78120476Y-28392380D01*
X78596666Y-28392380D02*
X78501428Y-28344761D01*
X78453809Y-28297142D01*
X78406190Y-28201904D01*
X78406190Y-27916190D01*
X78453809Y-27820952D01*
X78501428Y-27773333D01*
X78596666Y-27725714D01*
X78739523Y-27725714D01*
X78834761Y-27773333D01*
X78882380Y-27820952D01*
X78930000Y-27916190D01*
X78930000Y-28201904D01*
X78882380Y-28297142D01*
X78834761Y-28344761D01*
X78739523Y-28392380D01*
X78596666Y-28392380D01*
X79358571Y-28392380D02*
X79358571Y-27725714D01*
X79358571Y-27916190D02*
X79406190Y-27820952D01*
X79453809Y-27773333D01*
X79549047Y-27725714D01*
X79644285Y-27725714D01*
D11*
%TO.C,I\u00B2C*%
X75729469Y-21060407D02*
X85889469Y-21060407D01*
X75729469Y-23600407D02*
X75729469Y-21060407D01*
X85889469Y-21060407D02*
X85881594Y-23598675D01*
X85881594Y-23598675D02*
X75729469Y-23600407D01*
%TO.C,Status*%
X83780000Y-42356814D02*
X78780000Y-42356814D01*
X78780000Y-38356814D02*
X79780000Y-37356814D01*
X78780000Y-42356814D02*
X78780000Y-37356814D01*
X78780000Y-37356814D02*
X83780000Y-37356814D01*
X83780000Y-37356814D02*
X83780000Y-42356814D01*
X83280000Y-39856814D02*
G75*
G03*
X83280000Y-39856814I-2000000J0D01*
G01*
%TO.C,Toolboard*%
X91790000Y-24195000D02*
X91790000Y-40695000D01*
X90190000Y-40695000D02*
X90190000Y-41395000D01*
X92415000Y-39445000D02*
X92915000Y-39945000D01*
X92915000Y-38945000D02*
X92415000Y-39445000D01*
X90190000Y-24195000D02*
X91790000Y-24195000D01*
X90190000Y-41395000D02*
X97790000Y-41395000D01*
X90190000Y-23495000D02*
X90190000Y-24195000D01*
X92915000Y-39945000D02*
X92915000Y-38945000D01*
X97790000Y-41395000D02*
X97790000Y-23495000D01*
X97790000Y-23495000D02*
X90190000Y-23495000D01*
X91790000Y-40695000D02*
X90190000Y-40695000D01*
%TO.C,HEF Resistor*%
X69280000Y-25690000D02*
X69280000Y-30190000D01*
X82850000Y-27940000D02*
X81180000Y-27940000D01*
X69280000Y-30190000D02*
X81180000Y-30190000D01*
X81180000Y-30190000D02*
X81180000Y-25690000D01*
X81180000Y-25690000D02*
X69280000Y-25690000D01*
X67610000Y-27940000D02*
X69280000Y-27940000D01*
%TO.C,J1*%
X67301315Y-31555026D02*
X69841315Y-31555026D01*
X69206315Y-41715026D02*
X67301315Y-41715026D01*
X74201315Y-33145026D02*
X69841315Y-33145026D01*
X61301315Y-38225026D02*
X61301315Y-37585026D01*
X67301315Y-38225026D02*
X61301315Y-38225026D01*
X67301315Y-35045026D02*
X61301315Y-35045026D01*
X61301315Y-40765026D02*
X61301315Y-40125026D01*
X67301315Y-33145026D02*
X61301315Y-33145026D01*
X61301315Y-33145026D02*
X61301315Y-32505026D01*
X74201315Y-37585026D02*
X69841315Y-37585026D01*
X67301315Y-37585026D02*
X61301315Y-37585026D01*
X74201315Y-40765026D02*
X74201315Y-40125026D01*
X74201315Y-38225026D02*
X74201315Y-37585026D01*
X74201315Y-35045026D02*
X69841315Y-35045026D01*
X74201315Y-35685026D02*
X69841315Y-35685026D01*
X67301315Y-40125026D02*
X61301315Y-40125026D01*
X69841315Y-41080026D02*
X69206315Y-41715026D01*
X61301315Y-35685026D02*
X61301315Y-35045026D01*
X74201315Y-32505026D02*
X69841315Y-32505026D01*
X74201315Y-40125026D02*
X69841315Y-40125026D01*
X74201315Y-33145026D02*
X74201315Y-32505026D01*
X67301315Y-41715026D02*
X67301315Y-31555026D01*
X67301315Y-35685026D02*
X61301315Y-35685026D01*
X67301315Y-32505026D02*
X61301315Y-32505026D01*
X74201315Y-38225026D02*
X69841315Y-38225026D01*
X74201315Y-35685026D02*
X74201315Y-35045026D01*
X69841315Y-31555026D02*
X69841315Y-41080026D01*
X67301315Y-40765026D02*
X61301315Y-40765026D01*
X74201315Y-40765026D02*
X69841315Y-40765026D01*
%TD*%
M02*
