%TF.GenerationSoftware,KiCad,Pcbnew,(6.0.7)*%
%TF.CreationDate,2022-11-20T15:50:49-05:00*%
%TF.ProjectId,CANBurner,43414e42-7572-46e6-9572-2e6b69636164,2.0*%
%TF.SameCoordinates,Original*%
%TF.FileFunction,AssemblyDrawing,Bot*%
%FSLAX46Y46*%
G04 Gerber Fmt 4.6, Leading zero omitted, Abs format (unit mm)*
G04 Created by KiCad (PCBNEW (6.0.7)) date 2022-11-20 15:50:49*
%MOMM*%
%LPD*%
G01*
G04 APERTURE LIST*
%ADD10C,0.150000*%
G04 APERTURE END LIST*
D10*
%TO.C,LED Bypass*%
X72199047Y-48262380D02*
X72675238Y-48262380D01*
X72675238Y-47262380D01*
X71865714Y-47738571D02*
X71532380Y-47738571D01*
X71389523Y-48262380D02*
X71865714Y-48262380D01*
X71865714Y-47262380D01*
X71389523Y-47262380D01*
X70960952Y-48262380D02*
X70960952Y-47262380D01*
X70722857Y-47262380D01*
X70580000Y-47310000D01*
X70484761Y-47405238D01*
X70437142Y-47500476D01*
X70389523Y-47690952D01*
X70389523Y-47833809D01*
X70437142Y-48024285D01*
X70484761Y-48119523D01*
X70580000Y-48214761D01*
X70722857Y-48262380D01*
X70960952Y-48262380D01*
X68865714Y-47738571D02*
X68722857Y-47786190D01*
X68675238Y-47833809D01*
X68627619Y-47929047D01*
X68627619Y-48071904D01*
X68675238Y-48167142D01*
X68722857Y-48214761D01*
X68818095Y-48262380D01*
X69199047Y-48262380D01*
X69199047Y-47262380D01*
X68865714Y-47262380D01*
X68770476Y-47310000D01*
X68722857Y-47357619D01*
X68675238Y-47452857D01*
X68675238Y-47548095D01*
X68722857Y-47643333D01*
X68770476Y-47690952D01*
X68865714Y-47738571D01*
X69199047Y-47738571D01*
X68294285Y-47595714D02*
X68056190Y-48262380D01*
X67818095Y-47595714D02*
X68056190Y-48262380D01*
X68151428Y-48500476D01*
X68199047Y-48548095D01*
X68294285Y-48595714D01*
X67437142Y-47595714D02*
X67437142Y-48595714D01*
X67437142Y-47643333D02*
X67341904Y-47595714D01*
X67151428Y-47595714D01*
X67056190Y-47643333D01*
X67008571Y-47690952D01*
X66960952Y-47786190D01*
X66960952Y-48071904D01*
X67008571Y-48167142D01*
X67056190Y-48214761D01*
X67151428Y-48262380D01*
X67341904Y-48262380D01*
X67437142Y-48214761D01*
X66103809Y-48262380D02*
X66103809Y-47738571D01*
X66151428Y-47643333D01*
X66246666Y-47595714D01*
X66437142Y-47595714D01*
X66532380Y-47643333D01*
X66103809Y-48214761D02*
X66199047Y-48262380D01*
X66437142Y-48262380D01*
X66532380Y-48214761D01*
X66580000Y-48119523D01*
X66580000Y-48024285D01*
X66532380Y-47929047D01*
X66437142Y-47881428D01*
X66199047Y-47881428D01*
X66103809Y-47833809D01*
X65675238Y-48214761D02*
X65580000Y-48262380D01*
X65389523Y-48262380D01*
X65294285Y-48214761D01*
X65246666Y-48119523D01*
X65246666Y-48071904D01*
X65294285Y-47976666D01*
X65389523Y-47929047D01*
X65532380Y-47929047D01*
X65627619Y-47881428D01*
X65675238Y-47786190D01*
X65675238Y-47738571D01*
X65627619Y-47643333D01*
X65532380Y-47595714D01*
X65389523Y-47595714D01*
X65294285Y-47643333D01*
X64865714Y-48214761D02*
X64770476Y-48262380D01*
X64579999Y-48262380D01*
X64484761Y-48214761D01*
X64437142Y-48119523D01*
X64437142Y-48071904D01*
X64484761Y-47976666D01*
X64579999Y-47929047D01*
X64722857Y-47929047D01*
X64818095Y-47881428D01*
X64865714Y-47786190D01*
X64865714Y-47738571D01*
X64818095Y-47643333D01*
X64722857Y-47595714D01*
X64579999Y-47595714D01*
X64484761Y-47643333D01*
%TD*%
M02*
