G04 Layer: TopLayer*
G04 EasyEDA v6.5.3, 2022-04-30 06:46:22*
G04 ee3e3f8623474824adc305f6a8106e34,debd25b7e7f645e7808fdd9718494454,10*
G04 Gerber Generator version 0.2*
G04 Scale: 100 percent, Rotated: No, Reflected: No *
G04 Dimensions in millimeters *
G04 leading zeros omitted , absolute positions ,4 integer and 5 decimal *
%FSLAX45Y45*%
%MOMM*%

%ADD11C,0.5000*%
%ADD12C,1.0000*%
%ADD14C,1.5748*%
%ADD15R,1.5748X1.5748*%

%LPD*%
G36*
X18203214Y3827322D02*
G01*
X18198592Y3827881D01*
X15949269Y4677511D01*
X15946424Y4679137D01*
X15944240Y4681626D01*
X15572282Y5272633D01*
X15571114Y5275275D01*
X15570707Y5278069D01*
X15570707Y6241643D01*
X15571419Y6245301D01*
X15885871Y7054088D01*
X15888157Y7057542D01*
X15891611Y7059828D01*
X15895675Y7060539D01*
X15899688Y7059574D01*
X15902990Y7057085D01*
X15905022Y7053478D01*
X15905429Y7049363D01*
X15904972Y7044588D01*
X15904972Y7025944D01*
X15906851Y7007453D01*
X15910661Y6989216D01*
X15916351Y6971436D01*
X15923818Y6954367D01*
X15932962Y6938162D01*
X15943783Y6923024D01*
X15956076Y6909003D01*
X15969742Y6896353D01*
X15984626Y6885178D01*
X16000577Y6875576D01*
X16017443Y6867702D01*
X16035070Y6861556D01*
X16053206Y6857288D01*
X16071646Y6854901D01*
X16090290Y6854444D01*
X16108832Y6855866D01*
X16127171Y6859219D01*
X16145052Y6864400D01*
X16162324Y6871411D01*
X16178733Y6880199D01*
X16194176Y6890562D01*
X16208501Y6902500D01*
X16221506Y6915861D01*
X16233038Y6930440D01*
X16243046Y6946188D01*
X16251377Y6962851D01*
X16257930Y6980275D01*
X16262705Y6998258D01*
X16265550Y7016648D01*
X16266515Y7035241D01*
X16265550Y7053884D01*
X16262705Y7072274D01*
X16257930Y7090257D01*
X16251377Y7107681D01*
X16243046Y7124344D01*
X16233038Y7140092D01*
X16221506Y7154672D01*
X16208501Y7168032D01*
X16194176Y7179970D01*
X16178733Y7190333D01*
X16162324Y7199122D01*
X16145052Y7206132D01*
X16127171Y7211314D01*
X16108832Y7214666D01*
X16090290Y7216089D01*
X16071646Y7215631D01*
X16053206Y7213244D01*
X16035070Y7208977D01*
X16017443Y7202830D01*
X16000577Y7194956D01*
X15984626Y7185355D01*
X15969742Y7174179D01*
X15956076Y7161530D01*
X15943580Y7147255D01*
X15940532Y7144461D01*
X15936569Y7143089D01*
X15932454Y7143445D01*
X15928746Y7145426D01*
X15926206Y7148677D01*
X15925139Y7152741D01*
X15925850Y7156856D01*
X15929000Y7164933D01*
X15930880Y7168032D01*
X15939922Y7178141D01*
X15953435Y7190689D01*
X15967963Y7201966D01*
X15983508Y7211923D01*
X15999866Y7220407D01*
X16016935Y7227417D01*
X16034562Y7232802D01*
X16052901Y7236714D01*
X16229177Y7266076D01*
X16232733Y7266025D01*
X16236035Y7264806D01*
X18928943Y5678779D01*
X18932245Y5675680D01*
X18933871Y5671515D01*
X18933515Y5667044D01*
X18931229Y5663133D01*
X18927521Y5660593D01*
X18923101Y5659882D01*
X18918783Y5661202D01*
X17742001Y6330543D01*
X17734788Y6333947D01*
X17726202Y6336436D01*
X17716957Y6337401D01*
X17005604Y6350101D01*
X16265398Y6354826D01*
X16262146Y6355384D01*
X16259251Y6356959D01*
X16257016Y6359347D01*
X16251123Y6368135D01*
X16242080Y6378397D01*
X16231819Y6387439D01*
X16220440Y6395059D01*
X16208146Y6401104D01*
X16195192Y6405473D01*
X16181781Y6408166D01*
X16168116Y6409080D01*
X16154450Y6408166D01*
X16141039Y6405473D01*
X16128085Y6401104D01*
X16115792Y6395059D01*
X16104412Y6387439D01*
X16094151Y6378397D01*
X16085108Y6368135D01*
X16077488Y6356756D01*
X16071443Y6344462D01*
X16067074Y6331508D01*
X16064382Y6318097D01*
X16063468Y6304432D01*
X16064382Y6290767D01*
X16067074Y6277356D01*
X16071443Y6264402D01*
X16077488Y6252108D01*
X16085108Y6240729D01*
X16094151Y6230467D01*
X16104412Y6221425D01*
X16115792Y6213805D01*
X16128085Y6207760D01*
X16141039Y6203391D01*
X16154450Y6200698D01*
X16168116Y6199784D01*
X16181781Y6200698D01*
X16195192Y6203391D01*
X16208146Y6207760D01*
X16220440Y6213805D01*
X16231819Y6221425D01*
X16242080Y6230467D01*
X16251123Y6240729D01*
X16256304Y6248501D01*
X16258590Y6250940D01*
X16261537Y6252464D01*
X16264839Y6253022D01*
X17004741Y6248298D01*
X17700040Y6235903D01*
X17702530Y6235496D01*
X17704866Y6234531D01*
X19053302Y5467553D01*
X19056350Y5464911D01*
X19058128Y5461304D01*
X19090386Y5338622D01*
X19090690Y5335371D01*
X19089928Y5332171D01*
X19088201Y5329377D01*
X19081292Y5321503D01*
X19073672Y5310124D01*
X19068491Y5299608D01*
X18944132Y5084267D01*
X18941592Y5078425D01*
X18940526Y5072735D01*
X18940729Y5066944D01*
X18942253Y5061356D01*
X18944945Y5056225D01*
X18948704Y5051856D01*
X18953835Y5048097D01*
X19089268Y4969916D01*
X19095110Y4967376D01*
X19100749Y4966309D01*
X19106540Y4966512D01*
X19112128Y4967986D01*
X19117259Y4970678D01*
X19121628Y4974488D01*
X19125438Y4979619D01*
X19249847Y5195112D01*
X19252895Y5202123D01*
X19254927Y5205476D01*
X19260972Y5217769D01*
X19265341Y5230723D01*
X19268033Y5244134D01*
X19268948Y5257800D01*
X19268033Y5271465D01*
X19265341Y5284876D01*
X19260972Y5297830D01*
X19254927Y5310124D01*
X19247307Y5321503D01*
X19238264Y5331764D01*
X19228003Y5340807D01*
X19216624Y5348427D01*
X19204330Y5354472D01*
X19195440Y5357469D01*
X19192494Y5359044D01*
X19190208Y5361482D01*
X19188836Y5364530D01*
X19150076Y5511800D01*
X19148501Y5516880D01*
X19147028Y5520334D01*
X19144691Y5524855D01*
X19142659Y5528056D01*
X19139662Y5531967D01*
X19137884Y5535523D01*
X19137630Y5539536D01*
X19138900Y5543296D01*
X19141541Y5546242D01*
X19145148Y5548020D01*
X19149110Y5548223D01*
X19152870Y5546902D01*
X20871891Y4534509D01*
X20874126Y4532731D01*
X20875752Y4530445D01*
X20944128Y4400296D01*
X20952968Y4381449D01*
X20959775Y4363008D01*
X20964956Y4344111D01*
X20968512Y4324756D01*
X20970392Y4305198D01*
X20970595Y4285589D01*
X20969122Y4265980D01*
X20965922Y4246575D01*
X20961146Y4227576D01*
X20954695Y4208983D01*
X20946719Y4191050D01*
X20937220Y4173829D01*
X20926298Y4157522D01*
X20914004Y4142232D01*
X20900440Y4128008D01*
X20885708Y4115003D01*
X20869910Y4103319D01*
X20859699Y4097020D01*
X20855381Y4095546D01*
G37*

%LPC*%
G36*
X18097906Y3899204D02*
G01*
X18239333Y3899255D01*
X18248172Y3900068D01*
X18250611Y3900474D01*
X18259247Y3902608D01*
X18261584Y3903370D01*
X18269813Y3906774D01*
X18271998Y3907891D01*
X18279618Y3912514D01*
X18288457Y3919575D01*
X18507862Y4138929D01*
X18513552Y4145229D01*
X18515330Y4147565D01*
X18521426Y4157167D01*
X18524982Y4164888D01*
X18727166Y4671771D01*
X18853708Y5000802D01*
X18899479Y5110073D01*
X19023685Y5325211D01*
X19027241Y5334355D01*
X19032372Y5344769D01*
X19036741Y5357723D01*
X19039433Y5371134D01*
X19040348Y5384800D01*
X19039433Y5398465D01*
X19036741Y5411876D01*
X19032372Y5424830D01*
X19026327Y5437124D01*
X19018707Y5448503D01*
X19009664Y5458764D01*
X18999403Y5467807D01*
X18988024Y5475427D01*
X18975730Y5481472D01*
X18962776Y5485841D01*
X18949365Y5488533D01*
X18935700Y5489448D01*
X18922034Y5488533D01*
X18908623Y5485841D01*
X18895669Y5481472D01*
X18883376Y5475427D01*
X18871996Y5467807D01*
X18861735Y5458764D01*
X18852692Y5448503D01*
X18845072Y5437124D01*
X18839027Y5424830D01*
X18837859Y5421985D01*
X18717971Y5214315D01*
X18715431Y5208473D01*
X18714364Y5202834D01*
X18714567Y5197043D01*
X18716091Y5191455D01*
X18718784Y5186324D01*
X18722543Y5181955D01*
X18727674Y5178145D01*
X18748654Y5166055D01*
X18751397Y5163718D01*
X18753175Y5160518D01*
X18753683Y5156911D01*
X18752921Y5153355D01*
X18712434Y5056378D01*
X18585586Y4726635D01*
X18390412Y4237329D01*
X18388177Y4233926D01*
X18208244Y4053992D01*
X18204942Y4051757D01*
X18201030Y4050995D01*
X18117312Y4050995D01*
X18112841Y4052011D01*
X17799507Y4204208D01*
X17796510Y4206494D01*
X17794478Y4209643D01*
X17793817Y4213352D01*
X17793817Y4259732D01*
X17745659Y4259732D01*
X17748910Y4253128D01*
X17752161Y4248251D01*
X17753736Y4244187D01*
X17753482Y4239818D01*
X17751348Y4235958D01*
X17747843Y4233316D01*
X17743525Y4232452D01*
X17739258Y4233468D01*
X17720259Y4242714D01*
X17716957Y4245305D01*
X17714976Y4248962D01*
X17685766Y4347108D01*
X17685359Y4350918D01*
X17686375Y4354525D01*
X17689779Y4361281D01*
X17774869Y4595114D01*
X17776342Y4601311D01*
X17776444Y4607102D01*
X17775224Y4612741D01*
X17772786Y4618024D01*
X17769230Y4622596D01*
X17764760Y4626254D01*
X17759019Y4629048D01*
X17612106Y4682540D01*
X17605908Y4684064D01*
X17600168Y4684115D01*
X17594478Y4682896D01*
X17589246Y4680458D01*
X17584674Y4676902D01*
X17581016Y4672431D01*
X17578171Y4666742D01*
X17501666Y4456531D01*
X17499888Y4453382D01*
X17493843Y4441088D01*
X17489474Y4428134D01*
X17486782Y4414723D01*
X17486528Y4410608D01*
X17485563Y4406950D01*
X17483378Y4403902D01*
X17435728Y4358538D01*
X17432578Y4356557D01*
X17428972Y4355744D01*
X17425314Y4356354D01*
X17094149Y4473244D01*
X17090847Y4475124D01*
X17088510Y4478070D01*
X17087392Y4481677D01*
X17074184Y4599635D01*
X17074388Y4603140D01*
X17075810Y4606391D01*
X17080890Y4613960D01*
X17086935Y4626203D01*
X17091304Y4639157D01*
X17093438Y4649317D01*
X17173448Y4869027D01*
X17174921Y4875225D01*
X17174972Y4881016D01*
X17173752Y4886655D01*
X17171314Y4891887D01*
X17167758Y4896459D01*
X17163288Y4900117D01*
X17157598Y4902962D01*
X17010684Y4956454D01*
X17004487Y4957927D01*
X16998696Y4958029D01*
X16993057Y4956810D01*
X16987824Y4954320D01*
X16983252Y4950815D01*
X16979544Y4946294D01*
X16976750Y4940604D01*
X16891609Y4706772D01*
X16889425Y4701692D01*
X16886021Y4698898D01*
X16821150Y4666437D01*
X16817136Y4665370D01*
X16813022Y4666030D01*
X16809516Y4668266D01*
X16807180Y4671720D01*
X16806468Y4675784D01*
X16807383Y4679848D01*
X16809923Y4683201D01*
X16815104Y4687773D01*
X16824147Y4698034D01*
X16831767Y4709414D01*
X16834002Y4713986D01*
X16835221Y4715916D01*
X16838726Y4720183D01*
X16841571Y4725873D01*
X16926661Y4959756D01*
X16928185Y4965903D01*
X16928236Y4971694D01*
X16927017Y4977384D01*
X16924578Y4982616D01*
X16921022Y4987188D01*
X16916552Y4990846D01*
X16910862Y4993690D01*
X16763949Y5047183D01*
X16757751Y5048656D01*
X16751960Y5048707D01*
X16746321Y5047488D01*
X16741038Y5045049D01*
X16736466Y5041493D01*
X16732808Y5037023D01*
X16730014Y5031333D01*
X16651782Y4816449D01*
X16644467Y4801768D01*
X16640098Y4788814D01*
X16637406Y4775403D01*
X16636492Y4761738D01*
X16637406Y4748072D01*
X16640098Y4734661D01*
X16644467Y4721707D01*
X16650512Y4709414D01*
X16658132Y4698034D01*
X16667175Y4687773D01*
X16677436Y4678730D01*
X16688816Y4671110D01*
X16701109Y4665065D01*
X16714063Y4660696D01*
X16727474Y4658004D01*
X16741140Y4657090D01*
X16754805Y4658004D01*
X16762882Y4659630D01*
X16767048Y4659579D01*
X16770807Y4657902D01*
X16773601Y4654854D01*
X16774972Y4650943D01*
X16774617Y4646777D01*
X16772686Y4643120D01*
X16769435Y4640580D01*
X16725950Y4618837D01*
X16721886Y4617770D01*
X16717772Y4618431D01*
X16213074Y4813401D01*
X16209263Y4815992D01*
X16182949Y4844440D01*
X16180866Y4847844D01*
X16180257Y4851806D01*
X16181222Y4855718D01*
X16183610Y4858918D01*
X16187064Y4860950D01*
X16191026Y4861509D01*
X16194887Y4860442D01*
X16203269Y4856327D01*
X16216223Y4851958D01*
X16229634Y4849266D01*
X16243300Y4848352D01*
X16256965Y4849266D01*
X16270376Y4851958D01*
X16283330Y4856327D01*
X16295624Y4862372D01*
X16307003Y4869992D01*
X16317264Y4879035D01*
X16326307Y4889296D01*
X16333927Y4900676D01*
X16339972Y4912969D01*
X16344341Y4925923D01*
X16347490Y4941011D01*
X16422319Y5146598D01*
X16423792Y5152796D01*
X16423894Y5158587D01*
X16422674Y5164226D01*
X16420236Y5169509D01*
X16416680Y5174030D01*
X16412210Y5177739D01*
X16406469Y5180533D01*
X16259556Y5234025D01*
X16253358Y5235498D01*
X16247567Y5235600D01*
X16241928Y5234381D01*
X16236696Y5231942D01*
X16232124Y5228386D01*
X16228466Y5223916D01*
X16225621Y5218226D01*
X16197326Y5140401D01*
X16195090Y5136896D01*
X16191687Y5134508D01*
X16187623Y5133746D01*
X16183559Y5134660D01*
X16180206Y5137099D01*
X15991738Y5347258D01*
X15989807Y5350459D01*
X15989147Y5354116D01*
X15989655Y5466486D01*
X15990316Y5470042D01*
X15992195Y5473141D01*
X15997123Y5478729D01*
X16004743Y5490108D01*
X16010788Y5502402D01*
X16015157Y5515356D01*
X16017849Y5528767D01*
X16018763Y5542432D01*
X16017849Y5556097D01*
X16015157Y5569508D01*
X16010788Y5582462D01*
X16004743Y5594756D01*
X15997123Y5606135D01*
X15988080Y5616397D01*
X15977819Y5625439D01*
X15966440Y5633059D01*
X15954146Y5639104D01*
X15941192Y5643473D01*
X15927781Y5646166D01*
X15914116Y5647080D01*
X15900450Y5646166D01*
X15887039Y5643473D01*
X15876828Y5640019D01*
X15872866Y5639511D01*
X15869005Y5640578D01*
X15865856Y5643016D01*
X15863874Y5646470D01*
X15863417Y5650433D01*
X15864484Y5654294D01*
X15866973Y5657392D01*
X15905073Y5689549D01*
X15908426Y5691428D01*
X15912287Y5691936D01*
X15914116Y5691784D01*
X15927781Y5692698D01*
X15941192Y5695391D01*
X15954146Y5699760D01*
X15966440Y5705805D01*
X15977819Y5713425D01*
X15988080Y5722467D01*
X15997123Y5732729D01*
X16004743Y5744108D01*
X16010788Y5756402D01*
X16015157Y5769356D01*
X16017849Y5782767D01*
X16018763Y5796432D01*
X16017849Y5810097D01*
X16015157Y5823508D01*
X16010788Y5836462D01*
X16004743Y5848756D01*
X15997123Y5860135D01*
X15988080Y5870397D01*
X15977819Y5879439D01*
X15966440Y5887059D01*
X15954146Y5893104D01*
X15941192Y5897473D01*
X15927781Y5900166D01*
X15914116Y5901080D01*
X15900450Y5900166D01*
X15887039Y5897473D01*
X15874085Y5893104D01*
X15861792Y5887059D01*
X15850412Y5879439D01*
X15840151Y5870397D01*
X15831108Y5860135D01*
X15823488Y5848756D01*
X15817443Y5836462D01*
X15813074Y5823508D01*
X15810636Y5811418D01*
X15809417Y5808268D01*
X15807232Y5805627D01*
X15648533Y5671667D01*
X15640151Y5663438D01*
X15633344Y5654395D01*
X15627959Y5644388D01*
X15624098Y5633720D01*
X15621863Y5622544D01*
X15621304Y5613095D01*
X15621304Y5258155D01*
X15622168Y5246624D01*
X15624657Y5235549D01*
X15628772Y5224983D01*
X15634462Y5215128D01*
X15641726Y5205984D01*
X16111118Y4698542D01*
X16119703Y4690567D01*
X16129050Y4684166D01*
X16140125Y4678832D01*
X16698366Y4463186D01*
X16704665Y4461002D01*
X16709339Y4459833D01*
X16715790Y4458665D01*
X16720566Y4458208D01*
X16727119Y4458004D01*
X16731945Y4458258D01*
X16738396Y4459020D01*
X16743121Y4459986D01*
X16749420Y4461713D01*
X16753941Y4463389D01*
X16760088Y4466132D01*
X16914012Y4543145D01*
X16917720Y4544212D01*
X16921581Y4543755D01*
X16924985Y4541926D01*
X16927474Y4538929D01*
X16928642Y4535220D01*
X16942562Y4411319D01*
X16943374Y4405680D01*
X16944695Y4399991D01*
X16946270Y4394758D01*
X16948404Y4389272D01*
X16950791Y4384344D01*
X16953738Y4379214D01*
X16956786Y4374692D01*
X16960443Y4370120D01*
X16964202Y4366107D01*
X16968470Y4362094D01*
X16972737Y4358640D01*
X16977614Y4355338D01*
X16982338Y4352594D01*
X16987621Y4350054D01*
X16992904Y4347972D01*
X17428210Y4194454D01*
X17435576Y4192625D01*
X17439284Y4192015D01*
X17446853Y4191355D01*
X17450612Y4191304D01*
X17458232Y4191762D01*
X17461941Y4192270D01*
X17469358Y4193844D01*
X17472964Y4194911D01*
X17480076Y4197604D01*
X17483480Y4199178D01*
X17490084Y4202887D01*
X17493234Y4204970D01*
X17499228Y4209592D01*
X17541087Y4249267D01*
X17544542Y4251401D01*
X17548656Y4252010D01*
X17552619Y4250994D01*
X17555870Y4248404D01*
X17557800Y4244797D01*
X17580203Y4169562D01*
X17582286Y4163466D01*
X17584267Y4158792D01*
X17587163Y4153255D01*
X17589855Y4148886D01*
X17593513Y4143857D01*
X17596815Y4139946D01*
X17601234Y4135526D01*
X17605044Y4132173D01*
X17610074Y4128414D01*
X17614341Y4125671D01*
X17620030Y4122623D01*
X18063972Y3906977D01*
X18074894Y3902659D01*
X18085917Y3900119D01*
G37*
G36*
X18088508Y4105249D02*
G01*
X18102122Y4106164D01*
X18115584Y4108805D01*
X18128538Y4113225D01*
X18140781Y4119270D01*
X18152160Y4126890D01*
X18162473Y4135882D01*
X18171515Y4146194D01*
X18179084Y4157573D01*
X18185130Y4169816D01*
X18188076Y4178452D01*
X18272709Y4410964D01*
X18274182Y4417161D01*
X18274284Y4422952D01*
X18273064Y4428591D01*
X18270626Y4433874D01*
X18267070Y4438446D01*
X18262600Y4442104D01*
X18256859Y4444898D01*
X18238012Y4451756D01*
X18234660Y4453839D01*
X18232323Y4456988D01*
X18231358Y4460798D01*
X18231916Y4464710D01*
X18272404Y4580128D01*
X18274690Y4589170D01*
X18275350Y4598009D01*
X18274487Y4606848D01*
X18272099Y4615383D01*
X18268238Y4623358D01*
X18263006Y4630623D01*
X18258129Y4635601D01*
X16914266Y5834481D01*
X16905782Y5840577D01*
X16897705Y5844336D01*
X16889171Y5846622D01*
X16879874Y5847435D01*
X16265042Y5847435D01*
X16261740Y5847994D01*
X16258844Y5849518D01*
X16256558Y5851956D01*
X16251123Y5860135D01*
X16242080Y5870397D01*
X16231819Y5879439D01*
X16220440Y5887059D01*
X16208146Y5893104D01*
X16195192Y5897473D01*
X16181781Y5900166D01*
X16168116Y5901080D01*
X16154450Y5900166D01*
X16141039Y5897473D01*
X16128085Y5893104D01*
X16115792Y5887059D01*
X16104412Y5879439D01*
X16094151Y5870397D01*
X16085108Y5860135D01*
X16077488Y5848756D01*
X16071443Y5836462D01*
X16067074Y5823508D01*
X16064382Y5810097D01*
X16063468Y5796432D01*
X16064382Y5782767D01*
X16067074Y5769356D01*
X16071443Y5756402D01*
X16077488Y5744108D01*
X16085108Y5732729D01*
X16094151Y5722467D01*
X16104412Y5713425D01*
X16115792Y5705805D01*
X16128085Y5699760D01*
X16141039Y5695391D01*
X16154450Y5692698D01*
X16168116Y5691784D01*
X16181781Y5692698D01*
X16195192Y5695391D01*
X16208146Y5699760D01*
X16220440Y5705805D01*
X16231819Y5713425D01*
X16242080Y5722467D01*
X16251123Y5732729D01*
X16256711Y5741111D01*
X16258997Y5743549D01*
X16261892Y5745073D01*
X16265144Y5745632D01*
X16857065Y5745632D01*
X16860672Y5744972D01*
X16863822Y5743041D01*
X18160136Y4586630D01*
X18162524Y4583430D01*
X18163489Y4579620D01*
X18162930Y4575657D01*
X18136311Y4499762D01*
X18134279Y4496308D01*
X18131078Y4493920D01*
X18127218Y4492955D01*
X18123255Y4493564D01*
X18109946Y4498390D01*
X18103748Y4499914D01*
X18098008Y4499965D01*
X18092318Y4498746D01*
X18087086Y4496308D01*
X18082514Y4492752D01*
X18078856Y4488281D01*
X18076011Y4482592D01*
X17990921Y4248708D01*
X17989499Y4243019D01*
X17987416Y4236974D01*
X17984774Y4223512D01*
X17983860Y4209897D01*
X17984774Y4196232D01*
X17987416Y4182821D01*
X17991836Y4169816D01*
X17997881Y4157573D01*
X18005501Y4146194D01*
X18014492Y4135882D01*
X18024805Y4126890D01*
X18036184Y4119270D01*
X18048427Y4113225D01*
X18061432Y4108805D01*
X18074843Y4106164D01*
G37*
G36*
X20746313Y4112260D02*
G01*
X20764855Y4113733D01*
X20783194Y4117035D01*
X20801076Y4122267D01*
X20818348Y4129278D01*
X20834756Y4138015D01*
X20850199Y4148429D01*
X20864525Y4160367D01*
X20877530Y4173677D01*
X20889061Y4188307D01*
X20899069Y4204004D01*
X20907400Y4220667D01*
X20913953Y4238091D01*
X20918728Y4256125D01*
X20921573Y4274515D01*
X20922538Y4293108D01*
X20921573Y4311700D01*
X20918728Y4330090D01*
X20913953Y4348124D01*
X20907400Y4365548D01*
X20899069Y4382211D01*
X20889061Y4397908D01*
X20877530Y4412538D01*
X20864525Y4425848D01*
X20850199Y4437786D01*
X20834756Y4448200D01*
X20818348Y4456938D01*
X20801076Y4463948D01*
X20783194Y4469180D01*
X20764855Y4472482D01*
X20746313Y4473956D01*
X20727670Y4473448D01*
X20709229Y4471060D01*
X20691094Y4466793D01*
X20673466Y4460697D01*
X20656600Y4452772D01*
X20640649Y4443171D01*
X20625765Y4431995D01*
X20612100Y4419346D01*
X20599806Y4405376D01*
X20588986Y4390186D01*
X20579842Y4373981D01*
X20572374Y4356912D01*
X20566684Y4339183D01*
X20562874Y4320946D01*
X20560995Y4302404D01*
X20560995Y4283811D01*
X20562874Y4265269D01*
X20566684Y4247032D01*
X20572374Y4229303D01*
X20579842Y4212234D01*
X20588986Y4196029D01*
X20599806Y4180840D01*
X20612100Y4166870D01*
X20625765Y4154220D01*
X20640649Y4143044D01*
X20656600Y4133443D01*
X20673466Y4125518D01*
X20691094Y4119422D01*
X20709229Y4115155D01*
X20727670Y4112768D01*
G37*
G36*
X17885257Y4211574D02*
G01*
X17891810Y4214825D01*
X17903190Y4222445D01*
X17913502Y4231487D01*
X17922494Y4241749D01*
X17930114Y4253128D01*
X17933365Y4259732D01*
X17885257Y4259732D01*
G37*
G36*
X17744744Y4351172D02*
G01*
X17793817Y4351172D01*
X17793817Y4379976D01*
X17759730Y4392371D01*
G37*
G36*
X18003520Y4450181D02*
G01*
X18022519Y4502404D01*
X18023992Y4508601D01*
X18024094Y4514392D01*
X18022874Y4520031D01*
X18020436Y4525314D01*
X18016880Y4529886D01*
X18012410Y4533544D01*
X18006669Y4536338D01*
X17976189Y4547463D01*
X17948148Y4470349D01*
G37*
G36*
X17257064Y4474718D02*
G01*
X17263668Y4477969D01*
X17275048Y4485589D01*
X17285309Y4494580D01*
X17294352Y4504893D01*
X17301972Y4516272D01*
X17305223Y4522876D01*
X17257064Y4522876D01*
G37*
G36*
X17165624Y4474718D02*
G01*
X17165624Y4522876D01*
X17117466Y4522876D01*
X17120717Y4516272D01*
X17128337Y4504893D01*
X17137380Y4494580D01*
X17147641Y4485589D01*
X17159020Y4477969D01*
G37*
G36*
X17862194Y4501642D02*
G01*
X17890236Y4578756D01*
X17859756Y4589830D01*
X17853558Y4591354D01*
X17847818Y4591405D01*
X17842128Y4590186D01*
X17836896Y4587748D01*
X17832324Y4584192D01*
X17828666Y4579721D01*
X17825821Y4574032D01*
X17806822Y4521809D01*
G37*
G36*
X17333061Y4596028D02*
G01*
X17335906Y4603953D01*
X17330369Y4605985D01*
X17332198Y4600295D01*
G37*
G36*
X17276978Y4614316D02*
G01*
X17307458Y4614316D01*
X17280534Y4624120D01*
G37*
G36*
X17117466Y4614316D02*
G01*
X17165624Y4614316D01*
X17165624Y4665929D01*
X17139208Y4675530D01*
X17120209Y4623308D01*
X17118838Y4617618D01*
G37*
G36*
X19568109Y4694529D02*
G01*
X19573900Y4694732D01*
X19579488Y4696206D01*
X19584619Y4698898D01*
X19588988Y4702708D01*
X19592798Y4707839D01*
X19717207Y4923332D01*
X19721474Y4933746D01*
X19724827Y4938776D01*
X19730872Y4951069D01*
X19735241Y4964023D01*
X19737933Y4977434D01*
X19738848Y4991100D01*
X19737933Y5004765D01*
X19735241Y5018176D01*
X19730872Y5031130D01*
X19724827Y5043424D01*
X19717207Y5054803D01*
X19708164Y5065064D01*
X19697903Y5074107D01*
X19686524Y5081727D01*
X19674230Y5087772D01*
X19661276Y5092141D01*
X19647865Y5094833D01*
X19634200Y5095748D01*
X19620534Y5094833D01*
X19607123Y5092141D01*
X19594169Y5087772D01*
X19581876Y5081727D01*
X19570496Y5074107D01*
X19560235Y5065064D01*
X19551192Y5054803D01*
X19543572Y5043424D01*
X19536206Y5028488D01*
X19411492Y4812487D01*
X19408952Y4806645D01*
X19407886Y4800955D01*
X19408089Y4795164D01*
X19409613Y4789576D01*
X19412305Y4784445D01*
X19416064Y4780076D01*
X19421195Y4776317D01*
X19556628Y4698136D01*
X19562470Y4695596D01*
G37*
G36*
X17382998Y4733340D02*
G01*
X17402048Y4785563D01*
X17403521Y4791760D01*
X17403572Y4797552D01*
X17402352Y4803190D01*
X17399914Y4808423D01*
X17396358Y4812995D01*
X17391888Y4816652D01*
X17386198Y4819497D01*
X17355718Y4830622D01*
X17327626Y4753508D01*
G37*
G36*
X16492219Y4752848D02*
G01*
X16505885Y4753762D01*
X16519296Y4756454D01*
X16532250Y4760823D01*
X16544544Y4766868D01*
X16555923Y4774488D01*
X16566184Y4783531D01*
X16575227Y4793792D01*
X16582847Y4805172D01*
X16588892Y4817465D01*
X16593261Y4830419D01*
X16595953Y4843272D01*
X16672712Y5054092D01*
X16674185Y5060289D01*
X16674236Y5066030D01*
X16673017Y5071719D01*
X16670578Y5076952D01*
X16667022Y5081524D01*
X16662552Y5085181D01*
X16656862Y5088026D01*
X16509949Y5141518D01*
X16503751Y5142992D01*
X16497960Y5143042D01*
X16492321Y5141823D01*
X16487038Y5139385D01*
X16482517Y5135829D01*
X16478808Y5131358D01*
X16476014Y5125669D01*
X16390874Y4891836D01*
X16389400Y4885639D01*
X16389400Y4875631D01*
X16388486Y4871161D01*
X16387572Y4857496D01*
X16388486Y4843830D01*
X16391178Y4830419D01*
X16395547Y4817465D01*
X16401592Y4805172D01*
X16409212Y4793792D01*
X16418255Y4783531D01*
X16428516Y4774488D01*
X16439896Y4766868D01*
X16452189Y4760823D01*
X16465143Y4756454D01*
X16478554Y4753762D01*
G37*
G36*
X17241723Y4784801D02*
G01*
X17269764Y4861864D01*
X17239284Y4872990D01*
X17233087Y4874463D01*
X17227296Y4874564D01*
X17221657Y4873345D01*
X17216424Y4870907D01*
X17211852Y4867351D01*
X17208144Y4862880D01*
X17205350Y4857140D01*
X17186351Y4804918D01*
G37*
G36*
X19331889Y4831689D02*
G01*
X19337680Y4831892D01*
X19343268Y4833366D01*
X19348399Y4836058D01*
X19352768Y4839868D01*
X19356578Y4844999D01*
X19481088Y5060594D01*
X19489572Y5078069D01*
X19493941Y5091023D01*
X19496633Y5104434D01*
X19497548Y5118100D01*
X19496633Y5131765D01*
X19493941Y5145176D01*
X19489572Y5158130D01*
X19483527Y5170424D01*
X19475907Y5181803D01*
X19466864Y5192064D01*
X19456603Y5201107D01*
X19445224Y5208727D01*
X19432930Y5214772D01*
X19419976Y5219141D01*
X19406565Y5221833D01*
X19392900Y5222748D01*
X19379234Y5221833D01*
X19365823Y5219141D01*
X19352869Y5214772D01*
X19340576Y5208727D01*
X19329196Y5201107D01*
X19318935Y5192064D01*
X19309892Y5181803D01*
X19302272Y5170424D01*
X19299377Y5164582D01*
X19175272Y4949647D01*
X19172732Y4943805D01*
X19171666Y4938115D01*
X19171869Y4932324D01*
X19173393Y4926736D01*
X19176085Y4921605D01*
X19179844Y4917236D01*
X19184975Y4913477D01*
X19320408Y4835296D01*
X19326250Y4832756D01*
G37*
G36*
X18653252Y5224119D02*
G01*
X18659043Y5224373D01*
X18664631Y5225846D01*
X18669762Y5228539D01*
X18674130Y5232349D01*
X18677890Y5237480D01*
X18705728Y5285587D01*
X18654674Y5315051D01*
X18613628Y5243982D01*
X18641720Y5227777D01*
X18647562Y5225237D01*
G37*
G36*
X18534430Y5289702D02*
G01*
X18575477Y5360771D01*
X18524423Y5390235D01*
X18496635Y5342128D01*
X18494095Y5336286D01*
X18493028Y5330596D01*
X18493232Y5324805D01*
X18494756Y5319217D01*
X18497448Y5314086D01*
X18501207Y5309717D01*
X18506338Y5305958D01*
G37*
G36*
X18774562Y5404815D02*
G01*
X18802502Y5453380D01*
X18752820Y5453380D01*
X18752820Y5417362D01*
G37*
G36*
X16213836Y5437784D02*
G01*
X16246297Y5437784D01*
X16252596Y5438495D01*
X16258082Y5440426D01*
X16262959Y5443474D01*
X16267074Y5447588D01*
X16270122Y5452465D01*
X16272052Y5457952D01*
X16272763Y5464251D01*
X16272763Y5496712D01*
X16213836Y5496712D01*
G37*
G36*
X16089934Y5437784D02*
G01*
X16122396Y5437784D01*
X16122396Y5496712D01*
X16063468Y5496712D01*
X16063468Y5464251D01*
X16064179Y5457952D01*
X16066109Y5452465D01*
X16069157Y5447588D01*
X16073272Y5443474D01*
X16078149Y5440426D01*
X16083635Y5438495D01*
G37*
G36*
X18613221Y5544820D02*
G01*
X18661380Y5544820D01*
X18661380Y5592978D01*
X18654776Y5589727D01*
X18643396Y5582107D01*
X18633135Y5573064D01*
X18624092Y5562803D01*
X18616472Y5551424D01*
G37*
G36*
X18752820Y5544820D02*
G01*
X18800978Y5544820D01*
X18797727Y5551424D01*
X18790107Y5562803D01*
X18781064Y5573064D01*
X18770803Y5582107D01*
X18759424Y5589727D01*
X18752820Y5592978D01*
G37*
G36*
X16213836Y5588152D02*
G01*
X16272763Y5588152D01*
X16272763Y5620613D01*
X16272052Y5626912D01*
X16270122Y5632399D01*
X16267074Y5637276D01*
X16262959Y5641390D01*
X16258082Y5644438D01*
X16252596Y5646369D01*
X16246297Y5647080D01*
X16213836Y5647080D01*
G37*
G36*
X16063468Y5588152D02*
G01*
X16122396Y5588152D01*
X16122396Y5647080D01*
X16089934Y5647080D01*
X16083635Y5646369D01*
X16078149Y5644438D01*
X16073272Y5641390D01*
X16069157Y5637276D01*
X16066109Y5632399D01*
X16064179Y5626912D01*
X16063468Y5620613D01*
G37*
G36*
X15914116Y5945784D02*
G01*
X15927781Y5946698D01*
X15941192Y5949391D01*
X15954146Y5953760D01*
X15966440Y5959805D01*
X15977819Y5967425D01*
X15988080Y5976467D01*
X15997123Y5986729D01*
X16004743Y5998108D01*
X16010788Y6010402D01*
X16015157Y6023356D01*
X16017849Y6036767D01*
X16018763Y6050432D01*
X16017849Y6064097D01*
X16015157Y6077508D01*
X16010788Y6090462D01*
X16004743Y6102756D01*
X15997123Y6114135D01*
X15988080Y6124397D01*
X15977819Y6133439D01*
X15966440Y6141059D01*
X15954146Y6147104D01*
X15941192Y6151473D01*
X15927781Y6154166D01*
X15914116Y6155080D01*
X15900450Y6154166D01*
X15887039Y6151473D01*
X15874085Y6147104D01*
X15861792Y6141059D01*
X15850412Y6133439D01*
X15840151Y6124397D01*
X15831108Y6114135D01*
X15823488Y6102756D01*
X15817443Y6090462D01*
X15813074Y6077508D01*
X15810382Y6064097D01*
X15809468Y6050432D01*
X15810382Y6036767D01*
X15813074Y6023356D01*
X15817443Y6010402D01*
X15823488Y5998108D01*
X15831108Y5986729D01*
X15840151Y5976467D01*
X15850412Y5967425D01*
X15861792Y5959805D01*
X15874085Y5953760D01*
X15887039Y5949391D01*
X15900450Y5946698D01*
G37*
G36*
X16168116Y5945784D02*
G01*
X16181781Y5946698D01*
X16195192Y5949391D01*
X16208146Y5953760D01*
X16220440Y5959805D01*
X16231819Y5967425D01*
X16242080Y5976467D01*
X16251123Y5986729D01*
X16258743Y5998108D01*
X16264788Y6010402D01*
X16269157Y6023356D01*
X16271849Y6036767D01*
X16272763Y6050432D01*
X16271849Y6064097D01*
X16269157Y6077508D01*
X16264788Y6090462D01*
X16258743Y6102756D01*
X16251123Y6114135D01*
X16242080Y6124397D01*
X16231819Y6133439D01*
X16220440Y6141059D01*
X16208146Y6147104D01*
X16195192Y6151473D01*
X16181781Y6154166D01*
X16168116Y6155080D01*
X16154450Y6154166D01*
X16141039Y6151473D01*
X16128085Y6147104D01*
X16115792Y6141059D01*
X16104412Y6133439D01*
X16094151Y6124397D01*
X16085108Y6114135D01*
X16077488Y6102756D01*
X16071443Y6090462D01*
X16067074Y6077508D01*
X16064382Y6064097D01*
X16063468Y6050432D01*
X16064382Y6036767D01*
X16067074Y6023356D01*
X16071443Y6010402D01*
X16077488Y5998108D01*
X16085108Y5986729D01*
X16094151Y5976467D01*
X16104412Y5967425D01*
X16115792Y5959805D01*
X16128085Y5953760D01*
X16141039Y5949391D01*
X16154450Y5946698D01*
G37*
G36*
X15914116Y6199784D02*
G01*
X15927781Y6200698D01*
X15941192Y6203391D01*
X15954146Y6207760D01*
X15966440Y6213805D01*
X15977819Y6221425D01*
X15988080Y6230467D01*
X15997123Y6240729D01*
X16004743Y6252108D01*
X16010788Y6264402D01*
X16015157Y6277356D01*
X16017849Y6290767D01*
X16018763Y6304432D01*
X16017849Y6318097D01*
X16015157Y6331508D01*
X16010788Y6344462D01*
X16004743Y6356756D01*
X15997123Y6368135D01*
X15988080Y6378397D01*
X15977819Y6387439D01*
X15966440Y6395059D01*
X15954146Y6401104D01*
X15941192Y6405473D01*
X15927781Y6408166D01*
X15914116Y6409080D01*
X15900450Y6408166D01*
X15887039Y6405473D01*
X15874085Y6401104D01*
X15861792Y6395059D01*
X15850412Y6387439D01*
X15840151Y6378397D01*
X15831108Y6368135D01*
X15823488Y6356756D01*
X15817443Y6344462D01*
X15813074Y6331508D01*
X15810382Y6318097D01*
X15809468Y6304432D01*
X15810382Y6290767D01*
X15813074Y6277356D01*
X15817443Y6264402D01*
X15823488Y6252108D01*
X15831108Y6240729D01*
X15840151Y6230467D01*
X15850412Y6221425D01*
X15861792Y6213805D01*
X15874085Y6207760D01*
X15887039Y6203391D01*
X15900450Y6200698D01*
G37*

%LPD*%
D11*
X17881600Y4421378D02*
G01*
X17839436Y4305554D01*
D12*
X15914116Y5796534D02*
G01*
X15697200Y5613400D01*
X15697200Y5257800D01*
X16167100Y4749800D01*
X16725900Y4533900D01*
X16990313Y4666234D01*
X15914116Y5542437D02*
G01*
X15913100Y5321300D01*
X16243300Y4953005D01*
X16990313Y4666234D02*
G01*
X17018000Y4419600D01*
X17449800Y4267200D01*
X17590516Y4401057D01*
D11*
X16168116Y6304534D02*
G01*
X17005300Y6299200D01*
X17716500Y6286500D01*
X19100800Y5499100D01*
X19164300Y5257800D01*
D12*
X18866647Y5228546D02*
G01*
X18783300Y5029200D01*
X18656300Y4699000D01*
X18454370Y4192778D01*
X18236691Y3975100D01*
X18097500Y3975100D01*
X17653000Y4191000D01*
X17590516Y4401057D01*
D11*
X16168116Y5796534D02*
G01*
X16880331Y5796534D01*
X18224500Y4597400D01*
X18088609Y4209795D01*
X17839436Y4305554D02*
G01*
X17945100Y4610100D01*
X16936720Y5542534D01*
X16168116Y5542534D01*
G36*
X17149267Y4878428D02*
G01*
X17063760Y4643503D01*
X16915759Y4697371D01*
X17001266Y4932296D01*
G37*
G36*
X16902523Y4969144D02*
G01*
X16817017Y4734219D01*
X16669016Y4788087D01*
X16754523Y5023012D01*
G37*
G36*
X16648526Y5063484D02*
G01*
X16563019Y4828560D01*
X16415019Y4882428D01*
X16500525Y5117353D01*
G37*
G36*
X16398151Y5156014D02*
G01*
X16312644Y4921089D01*
X16164643Y4974958D01*
X16250150Y5209882D01*
G37*
G36*
X19001511Y5338643D02*
G01*
X18876510Y5122136D01*
X18740114Y5200886D01*
X18865115Y5417393D01*
G37*
G36*
X19227688Y5208567D02*
G01*
X19102687Y4992060D01*
X18966291Y5070812D01*
X19091292Y5287319D01*
G37*
G36*
X19458828Y5073947D02*
G01*
X19333827Y4857440D01*
X19197431Y4936192D01*
X19322432Y5152699D01*
G37*
G36*
X19695048Y4936787D02*
G01*
X19570047Y4720280D01*
X19433651Y4799032D01*
X19558652Y5015539D01*
G37*
G36*
X18248543Y4420382D02*
G01*
X18163037Y4185457D01*
X18015036Y4239326D01*
X18100542Y4474250D01*
G37*
G36*
X17998353Y4511822D02*
G01*
X17912847Y4276897D01*
X17764846Y4330766D01*
X17850352Y4565690D01*
G37*
G36*
X17750703Y4604532D02*
G01*
X17665197Y4369607D01*
X17517196Y4423476D01*
X17602702Y4658400D01*
G37*
G36*
X17377867Y4794971D02*
G01*
X17292360Y4560046D01*
X17144359Y4613915D01*
X17229866Y4848839D01*
G37*
G36*
X18780178Y5466425D02*
G01*
X18655177Y5249918D01*
X18518781Y5328671D01*
X18643782Y5545178D01*
G37*
D14*
G01*
X15914116Y6304432D03*
D15*
G01*
X16168116Y5542432D03*
D14*
G01*
X15914116Y5542432D03*
G01*
X16168116Y5796432D03*
G01*
X15914116Y5796432D03*
G01*
X16168116Y6050432D03*
G01*
X15914116Y6050432D03*
G01*
X16168116Y6304432D03*
G01*
X16243300Y4953000D03*
G01*
X16492220Y4857495D03*
G01*
X16741140Y4761737D03*
G01*
X16990263Y4666259D03*
G01*
X17590516Y4401057D03*
G01*
X17839512Y4305452D03*
G01*
X18088483Y4209872D03*
G01*
X19634200Y4991100D03*
G01*
X19392900Y5118100D03*
G01*
X19164300Y5257800D03*
G01*
X18935700Y5384800D03*
G01*
X17211344Y4568570D03*
G01*
X18707100Y5499100D03*
M02*
