G04 Layer: TopSolderMaskLayer*
G04 EasyEDA v6.5.3, 2022-04-30 06:46:22*
G04 ee3e3f8623474824adc305f6a8106e34,debd25b7e7f645e7808fdd9718494454,10*
G04 Gerber Generator version 0.2*
G04 Scale: 100 percent, Rotated: No, Reflected: No *
G04 Dimensions in millimeters *
G04 leading zeros omitted , absolute positions ,4 integer and 5 decimal *
%FSLAX45Y45*%
%MOMM*%

%ADD19C,1.6764*%

%LPD*%
G36*
X17066768Y4637023D02*
G01*
X16909288Y4694428D01*
X16998188Y4938776D01*
X17155668Y4881371D01*
G37*
G36*
X16820134Y4727702D02*
G01*
X16662400Y4785105D01*
X16751554Y5029454D01*
X16909034Y4972304D01*
G37*
G36*
X16566134Y4821936D02*
G01*
X16408400Y4879339D01*
X16497554Y5123942D01*
X16655034Y5066537D01*
G37*
G36*
X16315690Y4914645D02*
G01*
X16158209Y4971795D01*
X16247109Y5216397D01*
X16404590Y5158994D01*
G37*
G36*
X18878295Y5115305D02*
G01*
X18733261Y5199126D01*
X18863309Y5424423D01*
X19008343Y5340604D01*
G37*
G36*
X19104609Y4985004D02*
G01*
X18959322Y5069078D01*
X19089370Y5294376D01*
X19234658Y5210302D01*
G37*
G36*
X19335750Y4850384D02*
G01*
X19190461Y4934457D01*
X19320509Y5159755D01*
X19465798Y5075681D01*
G37*
G36*
X19571970Y4713223D02*
G01*
X19426681Y4797297D01*
X19556729Y5022595D01*
X19702018Y4938521D01*
G37*
G36*
X18166079Y4179062D02*
G01*
X18008600Y4236212D01*
X18097500Y4480813D01*
X18254979Y4423410D01*
G37*
G36*
X17915890Y4270502D02*
G01*
X17758409Y4327652D01*
X17847309Y4572254D01*
X18004790Y4514850D01*
G37*
G36*
X17668240Y4363212D02*
G01*
X17510759Y4420362D01*
X17599659Y4664963D01*
X17757140Y4607560D01*
G37*
G36*
X17295368Y4553457D02*
G01*
X17137888Y4610862D01*
X17226788Y4855463D01*
X17384268Y4798060D01*
G37*
G36*
X18657061Y5243068D02*
G01*
X18511774Y5326887D01*
X18641822Y5552186D01*
X18787109Y5468365D01*
G37*
D19*
G01*
X15914116Y6304432D03*
G36*
X16084295Y5458713D02*
G01*
X16084295Y5626354D01*
X16251936Y5626354D01*
X16251936Y5458713D01*
G37*
G01*
X15914116Y5542432D03*
G01*
X16168116Y5796432D03*
G01*
X15914116Y5796432D03*
G01*
X16168116Y6050432D03*
G01*
X15914116Y6050432D03*
G01*
X16168116Y6304432D03*
G01*
X16243300Y4953000D03*
G01*
X16492220Y4857495D03*
G01*
X16741140Y4761737D03*
G01*
X16990263Y4666259D03*
G01*
X17590516Y4401057D03*
G01*
X17839512Y4305452D03*
G01*
X18088483Y4209872D03*
G01*
X19634200Y4991100D03*
G01*
X19392900Y5118100D03*
G01*
X19164300Y5257800D03*
G01*
X18935700Y5384800D03*
G01*
X17211344Y4568570D03*
G01*
X18707100Y5499100D03*
M02*
