G04 Layer: TopSilkscreenLayer*
G04 EasyEDA v6.5.3, 2022-04-30 06:46:22*
G04 ee3e3f8623474824adc305f6a8106e34,debd25b7e7f645e7808fdd9718494454,10*
G04 Gerber Generator version 0.2*
G04 Scale: 100 percent, Rotated: No, Reflected: No *
G04 Dimensions in millimeters *
G04 leading zeros omitted , absolute positions ,4 integer and 5 decimal *
%FSLAX45Y45*%
%MOMM*%

%ADD16C,0.2032*%

%LPD*%
G36*
X17635270Y6111849D02*
G01*
X17631054Y6110224D01*
X17622570Y6106109D01*
X17594122Y6091123D01*
X17552365Y6068263D01*
X17499787Y6038900D01*
X17438928Y6004458D01*
X17132096Y5828182D01*
X17132096Y5542534D01*
X17283074Y5542534D01*
X17283480Y5543753D01*
X17327727Y5611317D01*
X17484090Y5848451D01*
X17632730Y5848451D01*
X17427956Y5537606D01*
X17339665Y5537657D01*
X17316754Y5537860D01*
X17294707Y5538774D01*
X17290186Y5539282D01*
X17286884Y5539892D01*
X17284649Y5540654D01*
X17283430Y5541518D01*
X17283074Y5542534D01*
X17132096Y5542534D01*
X17132096Y5247081D01*
X17167705Y5226608D01*
X17352010Y5226608D01*
X17390821Y5284673D01*
X17733924Y5805678D01*
X17762677Y5848451D01*
X17910657Y5848451D01*
X17502835Y5229098D01*
X17364574Y5226812D01*
X17630648Y5226812D01*
X17835422Y5537606D01*
X17936057Y5537504D01*
X17955514Y5537149D01*
X17968671Y5536488D01*
X17973192Y5535980D01*
X17976494Y5535371D01*
X17978729Y5534609D01*
X17979948Y5533745D01*
X17980304Y5532729D01*
X17979491Y5530900D01*
X17935651Y5463946D01*
X17779288Y5226812D01*
X17364574Y5226812D01*
X17352010Y5226608D01*
X17167705Y5226608D01*
X17441214Y5069484D01*
X17506086Y5032603D01*
X17560696Y5001869D01*
X17601844Y4979111D01*
X17626279Y4966055D01*
X17631257Y4963769D01*
X17632121Y4963769D01*
X17637099Y4966055D01*
X17661585Y4979111D01*
X17702682Y5001869D01*
X17757292Y5032603D01*
X17822214Y5069484D01*
X18131282Y5247081D01*
X18131282Y5828182D01*
X17759934Y6041491D01*
X17665090Y6095492D01*
X17636032Y6111697D01*
G37*
G36*
X17658842Y4784344D02*
G01*
X17645380Y4749546D01*
X17668951Y4740300D01*
X17672050Y4738471D01*
X17674183Y4736439D01*
X17674894Y4734814D01*
X17675047Y4732934D01*
X17674590Y4730750D01*
X17669256Y4717034D01*
X17668240Y4715103D01*
X17667020Y4713579D01*
X17665598Y4712563D01*
X17663922Y4711954D01*
X17661839Y4711801D01*
X17659400Y4712004D01*
X17656657Y4712665D01*
X17653508Y4713732D01*
X17644364Y4718050D01*
X17633696Y4724400D01*
X17630902Y4716526D01*
X17641265Y4710938D01*
X17645989Y4708702D01*
X17655387Y4705197D01*
X17658892Y4704130D01*
X17662194Y4703470D01*
X17665649Y4703267D01*
X17668697Y4703521D01*
X17671389Y4704283D01*
X17674082Y4705807D01*
X17676469Y4708093D01*
X17678349Y4711141D01*
X17685258Y4728718D01*
X17685816Y4730851D01*
X17686020Y4732832D01*
X17685816Y4734763D01*
X17685258Y4736592D01*
X17683226Y4739843D01*
X17680686Y4742434D01*
X17677384Y4744516D01*
X17673574Y4746244D01*
X17657572Y4752340D01*
X17665446Y4773422D01*
X17695926Y4761738D01*
X17698720Y4769104D01*
G37*
G36*
X17711420Y4764278D02*
G01*
X17711674Y4684522D01*
X17723612Y4679950D01*
X17777714Y4738624D01*
X17767554Y4742688D01*
X17722342Y4691634D01*
X17721580Y4692142D01*
X17722088Y4759960D01*
G37*
G36*
X17967706Y4667504D02*
G01*
X17964658Y4667300D01*
X17961813Y4666742D01*
X17959171Y4665776D01*
X17956784Y4664456D01*
X17954548Y4662728D01*
X17952618Y4660646D01*
X17950992Y4658156D01*
X17949672Y4655312D01*
X17936514Y4620361D01*
X17936057Y4618177D01*
X17936210Y4613656D01*
X17937327Y4609795D01*
X17939258Y4606290D01*
X17942204Y4603191D01*
X17945862Y4599940D01*
X17949621Y4597400D01*
X17953228Y4595368D01*
X17961864Y4591558D01*
X17974360Y4587748D01*
X17988534Y4584954D01*
X18002758Y4622292D01*
X17977104Y4632198D01*
X17974310Y4624832D01*
X17990566Y4618736D01*
X17981168Y4594606D01*
X17976850Y4595215D01*
X17968823Y4597146D01*
X17963083Y4599228D01*
X17959425Y4601006D01*
X17956174Y4602886D01*
X17952974Y4605070D01*
X17950027Y4607610D01*
X17947894Y4610506D01*
X17947132Y4612132D01*
X17946674Y4615484D01*
X17946878Y4617212D01*
X17947386Y4618990D01*
X17960086Y4651502D01*
X17969179Y4658918D01*
X17986756Y4655820D01*
X17991988Y4653534D01*
X18004840Y4646930D01*
X18009362Y4644136D01*
X18012410Y4652010D01*
X18001691Y4657648D01*
X17986552Y4663998D01*
X17981218Y4665624D01*
X17976037Y4666691D01*
X17970601Y4667351D01*
G37*
G36*
X18226938Y4570526D02*
G01*
X18224195Y4570222D01*
X18221756Y4569510D01*
X18219674Y4568444D01*
X18217845Y4566970D01*
X18216270Y4565142D01*
X18214797Y4562906D01*
X18213578Y4560316D01*
X18210276Y4550613D01*
X18209768Y4546854D01*
X18210022Y4543501D01*
X18211038Y4540504D01*
X18212765Y4537710D01*
X18215508Y4535170D01*
X18219115Y4532884D01*
X18223738Y4530852D01*
X18234761Y4526534D01*
X18237149Y4525213D01*
X18238978Y4523841D01*
X18240248Y4522470D01*
X18240908Y4520996D01*
X18241111Y4519320D01*
X18240908Y4517440D01*
X18236946Y4506214D01*
X18235777Y4504080D01*
X18234355Y4502505D01*
X18232628Y4501540D01*
X18230596Y4501134D01*
X18228208Y4501083D01*
X18225363Y4501540D01*
X18222112Y4502353D01*
X18218404Y4503674D01*
X18213578Y4505807D01*
X18208548Y4508347D01*
X18197830Y4514850D01*
X18194528Y4506214D01*
X18205297Y4500422D01*
X18214848Y4496308D01*
X18219267Y4494733D01*
X18223280Y4493564D01*
X18226989Y4492853D01*
X18230342Y4492498D01*
X18233390Y4492498D01*
X18236234Y4492955D01*
X18238876Y4493869D01*
X18241264Y4495292D01*
X18243346Y4497222D01*
X18245175Y4499610D01*
X18246902Y4502556D01*
X18248376Y4505960D01*
X18251119Y4513834D01*
X18251830Y4516424D01*
X18252186Y4520946D01*
X18251881Y4522927D01*
X18251170Y4524806D01*
X18250103Y4526635D01*
X18248630Y4528312D01*
X18246648Y4529836D01*
X18244210Y4531309D01*
X18237962Y4534154D01*
X18226684Y4538726D01*
X18224296Y4539996D01*
X18222468Y4541266D01*
X18221198Y4542536D01*
X18220486Y4543907D01*
X18220182Y4545380D01*
X18220232Y4547057D01*
X18220690Y4548886D01*
X18223738Y4556760D01*
X18224754Y4558792D01*
X18226074Y4560366D01*
X18227700Y4561484D01*
X18229580Y4562094D01*
X18231967Y4562195D01*
X18235117Y4561738D01*
X18238978Y4560671D01*
X18243550Y4559046D01*
X18251170Y4555540D01*
X18261330Y4550156D01*
X18264378Y4558030D01*
X18254827Y4562652D01*
X18247106Y4565904D01*
X18242127Y4567732D01*
X18237657Y4569104D01*
X18233644Y4570018D01*
X18230088Y4570476D01*
G37*
G36*
X16621150Y5236260D02*
G01*
X16618356Y5235905D01*
X16615968Y5235244D01*
X16613886Y5234127D01*
X16612057Y5232704D01*
X16610431Y5230825D01*
X16609009Y5228640D01*
X16607790Y5225999D01*
X16604488Y5216296D01*
X16603980Y5212537D01*
X16604234Y5209184D01*
X16605250Y5206187D01*
X16606977Y5203393D01*
X16609669Y5200853D01*
X16613327Y5198567D01*
X16617950Y5196535D01*
X16628973Y5192217D01*
X16631361Y5190896D01*
X16633139Y5189575D01*
X16634460Y5188153D01*
X16635120Y5186680D01*
X16635323Y5185003D01*
X16635120Y5183124D01*
X16631157Y5171897D01*
X16629989Y5169814D01*
X16628567Y5168239D01*
X16626789Y5167274D01*
X16624807Y5166817D01*
X16622420Y5166817D01*
X16619575Y5167223D01*
X16616324Y5168087D01*
X16612616Y5169357D01*
X16607790Y5171490D01*
X16602760Y5174081D01*
X16597528Y5177078D01*
X16592042Y5180533D01*
X16588740Y5171897D01*
X16599509Y5166156D01*
X16609060Y5161991D01*
X16617492Y5159298D01*
X16621201Y5158536D01*
X16624554Y5158181D01*
X16627601Y5158181D01*
X16630446Y5158638D01*
X16633088Y5159603D01*
X16635476Y5160975D01*
X16637507Y5162905D01*
X16639387Y5165293D01*
X16641063Y5168239D01*
X16642588Y5171643D01*
X16645331Y5179568D01*
X16646347Y5184495D01*
X16646398Y5186629D01*
X16646093Y5188661D01*
X16645382Y5190540D01*
X16644315Y5192318D01*
X16642842Y5193995D01*
X16640810Y5195519D01*
X16635476Y5198465D01*
X16623792Y5203139D01*
X16618508Y5205679D01*
X16616680Y5206949D01*
X16615410Y5208219D01*
X16614698Y5209590D01*
X16614394Y5211114D01*
X16614444Y5212791D01*
X16614901Y5214569D01*
X16617950Y5222443D01*
X16618966Y5224526D01*
X16620286Y5226100D01*
X16621912Y5227167D01*
X16623792Y5227777D01*
X16626179Y5227878D01*
X16629329Y5227421D01*
X16633139Y5226354D01*
X16637762Y5224729D01*
X16645382Y5221274D01*
X16655542Y5215839D01*
X16658590Y5223713D01*
X16649039Y5228386D01*
X16641318Y5231587D01*
X16636339Y5233416D01*
X16631869Y5234787D01*
X16627805Y5235702D01*
X16624300Y5236159D01*
G37*
G36*
X16850817Y5152847D02*
G01*
X16815217Y5114239D01*
X16828211Y5114239D01*
X16852036Y5141163D01*
X16853052Y5140655D01*
X16852849Y5104841D01*
X16828211Y5114239D01*
X16815217Y5114239D01*
X16796715Y5094173D01*
X16807129Y5090109D01*
X16822877Y5108143D01*
X16852595Y5096713D01*
X16852290Y5072837D01*
X16863263Y5068519D01*
X16862704Y5148275D01*
G37*
G36*
X16901058Y5132527D02*
G01*
X16898315Y5124907D01*
X16910405Y5122265D01*
X16915282Y5120944D01*
X16919397Y5119573D01*
X16925645Y5116576D01*
X16927779Y5115153D01*
X16929252Y5113731D01*
X16930166Y5112207D01*
X16930522Y5110429D01*
X16930420Y5108397D01*
X16929811Y5106111D01*
X16926001Y5096713D01*
X16924477Y5093868D01*
X16922242Y5091785D01*
X16919244Y5090464D01*
X16915536Y5089855D01*
X16897248Y5088940D01*
X16891508Y5088178D01*
X16888358Y5087416D01*
X16885666Y5086502D01*
X16883430Y5085334D01*
X16881297Y5083708D01*
X16879316Y5081524D01*
X16877792Y5078882D01*
X16872356Y5064963D01*
X16918838Y5047183D01*
X16921886Y5054549D01*
X16885056Y5068773D01*
X16886885Y5073345D01*
X16888358Y5076037D01*
X16890695Y5078018D01*
X16893743Y5079339D01*
X16897502Y5079949D01*
X16919346Y5081371D01*
X16924274Y5082032D01*
X16927931Y5082946D01*
X16930827Y5084318D01*
X16933164Y5086400D01*
X16935094Y5089296D01*
X16940174Y5102555D01*
X16941292Y5106416D01*
X16941546Y5109972D01*
X16940936Y5113172D01*
X16939463Y5116017D01*
X16937075Y5118709D01*
X16933722Y5121249D01*
X16929455Y5123688D01*
X16918482Y5128056D01*
X16906900Y5131358D01*
G37*
G36*
X16292068Y5360365D02*
G01*
X16289274Y5352999D01*
X16301415Y5350205D01*
X16306292Y5348833D01*
X16310356Y5347411D01*
X16313810Y5345938D01*
X16316655Y5344414D01*
X16318788Y5342991D01*
X16320262Y5341569D01*
X16321176Y5340045D01*
X16321532Y5338267D01*
X16321430Y5336235D01*
X16320769Y5333949D01*
X16316960Y5324551D01*
X16315436Y5321757D01*
X16313200Y5319674D01*
X16310254Y5318302D01*
X16306546Y5317693D01*
X16288207Y5316829D01*
X16282517Y5316016D01*
X16276675Y5314391D01*
X16274440Y5313222D01*
X16272256Y5311546D01*
X16270274Y5309412D01*
X16268750Y5306720D01*
X16263366Y5292801D01*
X16309848Y5275021D01*
X16312896Y5282387D01*
X16276066Y5296611D01*
X16277844Y5301183D01*
X16279368Y5303875D01*
X16281654Y5305907D01*
X16284701Y5307177D01*
X16288512Y5307787D01*
X16310305Y5309362D01*
X16315283Y5309971D01*
X16318992Y5310886D01*
X16321938Y5312410D01*
X16324173Y5314442D01*
X16326053Y5317337D01*
X16331184Y5330393D01*
X16332301Y5334304D01*
X16332504Y5337810D01*
X16331895Y5341010D01*
X16330422Y5343855D01*
X16328136Y5346598D01*
X16324834Y5349138D01*
X16320516Y5351526D01*
X16309441Y5355894D01*
X16303701Y5357723D01*
X16297910Y5359196D01*
G37*
G36*
X16381222Y5327091D02*
G01*
X16332200Y5293563D01*
X16330498Y5289245D01*
X16340328Y5289245D01*
X16380968Y5317439D01*
X16366236Y5279339D01*
X16340328Y5289245D01*
X16330498Y5289245D01*
X16328898Y5285181D01*
X16363442Y5271973D01*
X16357600Y5256733D01*
X16366490Y5253431D01*
X16372332Y5268417D01*
X16379698Y5265623D01*
X16382746Y5272989D01*
X16375126Y5275783D01*
X16393160Y5322519D01*
G37*
G36*
X16407638Y5316931D02*
G01*
X16407892Y5237429D01*
X16420084Y5232857D01*
X16474186Y5291531D01*
X16463772Y5295341D01*
X16418813Y5244541D01*
X16417798Y5244795D01*
X16418560Y5312867D01*
G37*
G36*
X17080992Y5068824D02*
G01*
X17067530Y5034026D01*
X17091101Y5024780D01*
X17094200Y5022951D01*
X17096333Y5020970D01*
X17097044Y5019294D01*
X17097197Y5017414D01*
X17096740Y5015230D01*
X17091406Y5001514D01*
X17090390Y4999583D01*
X17089170Y4998110D01*
X17087748Y4997043D01*
X17086072Y4996434D01*
X17083989Y4996281D01*
X17081550Y4996484D01*
X17078807Y4997145D01*
X17075658Y4998212D01*
X17066514Y5002530D01*
X17055846Y5008880D01*
X17053052Y5001006D01*
X17063415Y4995418D01*
X17068139Y4993182D01*
X17077537Y4989677D01*
X17081042Y4988610D01*
X17084344Y4988001D01*
X17087799Y4987747D01*
X17090847Y4988001D01*
X17093539Y4988814D01*
X17096232Y4990338D01*
X17097502Y4991354D01*
X17099584Y4994046D01*
X17101312Y4997450D01*
X17107408Y5013198D01*
X17107966Y5015331D01*
X17108170Y5017312D01*
X17107966Y5019243D01*
X17107408Y5021072D01*
X17105376Y5024323D01*
X17102836Y5026914D01*
X17099534Y5028996D01*
X17095724Y5030724D01*
X17079722Y5036820D01*
X17087596Y5057902D01*
X17118076Y5046218D01*
X17120870Y5053584D01*
G37*
G36*
X17133570Y5048758D02*
G01*
X17133824Y4969002D01*
X17145762Y4964430D01*
X17199864Y5023104D01*
X17189704Y5027168D01*
X17144492Y4976114D01*
X17143730Y4976622D01*
X17144238Y5044440D01*
G37*
G36*
X19403771Y4750612D02*
G01*
X19341287Y4701082D01*
X19350685Y4695748D01*
X19403009Y4738928D01*
X19404025Y4738420D01*
X19392849Y4671364D01*
X19402755Y4665522D01*
X19414947Y4744262D01*
G37*
G36*
X19453301Y4722164D02*
G01*
X19445427Y4707940D01*
X19438315Y4712004D01*
X19434505Y4705146D01*
X19441363Y4701082D01*
X19417992Y4660950D01*
X19429171Y4660950D01*
X19449491Y4696510D01*
X19473621Y4682540D01*
X19429171Y4660950D01*
X19417992Y4660950D01*
X19416217Y4657902D01*
X19427393Y4651298D01*
X19480987Y4676952D01*
X19485559Y4684826D01*
X19453555Y4703368D01*
X19461683Y4717338D01*
G37*
G36*
X19505879Y4691684D02*
G01*
X19501815Y4684826D01*
X19535851Y4665268D01*
X19533565Y4660950D01*
X19531584Y4658410D01*
X19528993Y4656734D01*
X19525742Y4655870D01*
X19521881Y4655870D01*
X19500088Y4657953D01*
X19493179Y4658156D01*
X19489674Y4657394D01*
X19486829Y4656124D01*
X19484441Y4653889D01*
X19482257Y4650790D01*
X19476161Y4640376D01*
X19474484Y4636668D01*
X19473672Y4633214D01*
X19473824Y4629912D01*
X19474891Y4626914D01*
X19476770Y4623866D01*
X19479666Y4620818D01*
X19483527Y4617770D01*
X19488353Y4614722D01*
X19499173Y4609185D01*
X19504660Y4606848D01*
X19510197Y4604816D01*
X19514261Y4611674D01*
X19502628Y4616246D01*
X19498005Y4618329D01*
X19494195Y4620310D01*
X19488404Y4624171D01*
X19486524Y4625949D01*
X19485305Y4627676D01*
X19484695Y4629302D01*
X19484594Y4631080D01*
X19485051Y4633112D01*
X19486067Y4635296D01*
X19491147Y4643932D01*
X19493077Y4646422D01*
X19495617Y4648098D01*
X19498665Y4648962D01*
X19502323Y4649012D01*
X19520763Y4646980D01*
X19526605Y4646879D01*
X19529907Y4647133D01*
X19532549Y4647641D01*
X19534835Y4648454D01*
X19537222Y4649825D01*
X19539610Y4651756D01*
X19541642Y4653991D01*
X19549059Y4666792D01*
G37*
G36*
X19221907Y4852873D02*
G01*
X19219011Y4852822D01*
X19216319Y4852263D01*
X19213830Y4851196D01*
X19211493Y4849672D01*
X19209258Y4847590D01*
X19207124Y4844999D01*
X19202400Y4837277D01*
X19200012Y4832045D01*
X19199098Y4827625D01*
X19199047Y4825593D01*
X19199402Y4823663D01*
X19200164Y4821783D01*
X19201384Y4819954D01*
X19203009Y4818075D01*
X19207683Y4814265D01*
X19218656Y4807762D01*
X19223431Y4804562D01*
X19224955Y4802987D01*
X19226022Y4801412D01*
X19226580Y4799990D01*
X19226733Y4798466D01*
X19226428Y4796840D01*
X19225768Y4795062D01*
X19220078Y4785969D01*
X19218503Y4784547D01*
X19216776Y4783683D01*
X19214846Y4783378D01*
X19212458Y4783734D01*
X19209512Y4784750D01*
X19205854Y4786426D01*
X19198336Y4790694D01*
X19190208Y4796383D01*
X19185382Y4800193D01*
X19181064Y4793030D01*
X19189852Y4786934D01*
X19197066Y4782362D01*
X19205854Y4777841D01*
X19209664Y4776317D01*
X19213068Y4775301D01*
X19216116Y4774742D01*
X19218910Y4774590D01*
X19221450Y4774844D01*
X19223736Y4775504D01*
X19225666Y4776774D01*
X19227546Y4778400D01*
X19229222Y4780432D01*
X19233896Y4788001D01*
X19235775Y4791811D01*
X19236893Y4795418D01*
X19237147Y4798771D01*
X19236690Y4801920D01*
X19235318Y4804968D01*
X19232981Y4807864D01*
X19229730Y4810658D01*
X19225514Y4813401D01*
X19217894Y4817668D01*
X19213118Y4821123D01*
X19211544Y4822748D01*
X19210528Y4824323D01*
X19210121Y4825898D01*
X19210121Y4827625D01*
X19210629Y4829454D01*
X19211544Y4831435D01*
X19216370Y4839817D01*
X19217741Y4841646D01*
X19219367Y4842967D01*
X19221145Y4843678D01*
X19223228Y4843830D01*
X19225564Y4843475D01*
X19228308Y4842560D01*
X19231406Y4841189D01*
X19234912Y4839309D01*
X19239331Y4836515D01*
X19243903Y4833264D01*
X19248729Y4829505D01*
X19253708Y4825288D01*
X19258280Y4833162D01*
X19248424Y4840478D01*
X19239738Y4846167D01*
X19231711Y4850130D01*
X19225006Y4852517D01*
G37*
G36*
X18968923Y5002580D02*
G01*
X18931839Y4938318D01*
X18940221Y4933492D01*
X18967653Y4935778D01*
X18972479Y4943906D01*
X18945555Y4942382D01*
X18977559Y4997500D01*
G37*
G36*
X19010579Y4978450D02*
G01*
X18999294Y4905806D01*
X19009309Y4905806D01*
X19015151Y4941112D01*
X19037757Y4927904D01*
X19010071Y4905298D01*
X19009309Y4905806D01*
X18999294Y4905806D01*
X18998387Y4899964D01*
X19009563Y4893614D01*
X19072047Y4942890D01*
X19062649Y4948478D01*
X19044107Y4933238D01*
X19016675Y4948986D01*
X19020485Y4972862D01*
G37*
G36*
X16376142Y6347968D02*
G01*
X16358685Y6304026D01*
X16368776Y6304026D01*
X16381476Y6337554D01*
X16382492Y6337554D01*
X16394938Y6304026D01*
X16358685Y6304026D01*
X16346678Y6273800D01*
X16357600Y6273800D01*
X16365982Y6296406D01*
X16397732Y6296406D01*
X16406113Y6273800D01*
X16417798Y6273800D01*
X16388842Y6347968D01*
G37*
G36*
X16455898Y6347968D02*
G01*
X16433292Y6332220D01*
X16433292Y6322822D01*
X16455898Y6337808D01*
X16455898Y6273800D01*
X16465804Y6273800D01*
X16465804Y6347968D01*
G37*
G36*
X16341851Y6093968D02*
G01*
X16341851Y6019800D01*
X16352774Y6019800D01*
X16352774Y6054090D01*
X16392398Y6054090D01*
X16392398Y6019800D01*
X16403319Y6019800D01*
X16403319Y6093968D01*
X16392398Y6093968D01*
X16392398Y6061964D01*
X16352774Y6061964D01*
X16352774Y6093968D01*
G37*
G36*
X16422624Y6093968D02*
G01*
X16422624Y6019800D01*
X16473678Y6019800D01*
X16473678Y6027674D01*
X16433800Y6027674D01*
X16433800Y6054090D01*
X16468598Y6054090D01*
X16468598Y6061964D01*
X16433800Y6061964D01*
X16433800Y6086094D01*
X16472407Y6086094D01*
X16472407Y6093968D01*
G37*
G36*
X16488918Y6093968D02*
G01*
X16488918Y6019800D01*
X16500094Y6019800D01*
X16500094Y6054090D01*
X16536162Y6054090D01*
X16536162Y6061964D01*
X16500094Y6061964D01*
X16500094Y6086094D01*
X16539972Y6086094D01*
X16539972Y6093968D01*
G37*
G36*
X16341851Y5827268D02*
G01*
X16341851Y5753100D01*
X16389350Y5753100D01*
X16389350Y5760974D01*
X16352774Y5760974D01*
X16352774Y5827268D01*
G37*
G36*
X16401288Y5827268D02*
G01*
X16401288Y5753100D01*
X16452342Y5753100D01*
X16452342Y5760974D01*
X16412210Y5760974D01*
X16412210Y5787390D01*
X16447262Y5787390D01*
X16447262Y5795264D01*
X16412210Y5795264D01*
X16412210Y5819394D01*
X16451072Y5819394D01*
X16451072Y5827268D01*
G37*
G36*
X16467582Y5827268D02*
G01*
X16467582Y5819648D01*
X16496792Y5819648D01*
X16504666Y5819140D01*
X16507917Y5818428D01*
X16511016Y5817362D01*
X16513759Y5815533D01*
X16515842Y5813044D01*
X16517162Y5809945D01*
X16517518Y5808116D01*
X16517619Y5773420D01*
X16512286Y5763920D01*
X16496284Y5760720D01*
X16478504Y5760720D01*
X16478504Y5819648D01*
X16467582Y5819648D01*
X16467582Y5753100D01*
X16497046Y5753100D01*
X16510711Y5754370D01*
X16520464Y5758129D01*
X16526357Y5764377D01*
X16528288Y5773166D01*
X16528288Y5805932D01*
X16526357Y5815279D01*
X16520464Y5821934D01*
X16510711Y5825947D01*
X16497046Y5827268D01*
G37*
G36*
X16373601Y5574538D02*
G01*
X16367963Y5574284D01*
X16360089Y5573064D01*
X16354755Y5571642D01*
X16349268Y5569559D01*
X16346779Y5568035D01*
X16344696Y5566257D01*
X16342868Y5564124D01*
X16341445Y5561736D01*
X16340378Y5559094D01*
X16339769Y5556250D01*
X16339566Y5553202D01*
X16339566Y5518150D01*
X16339718Y5515813D01*
X16340124Y5513578D01*
X16340836Y5511495D01*
X16342969Y5507736D01*
X16345763Y5504789D01*
X16349218Y5502605D01*
X16353383Y5500827D01*
X16358057Y5499506D01*
X16362375Y5498642D01*
X16366540Y5498134D01*
X16373601Y5497830D01*
X16386708Y5498693D01*
X16401034Y5501386D01*
X16401034Y5541264D01*
X16373348Y5541264D01*
X16373348Y5533390D01*
X16390619Y5533390D01*
X16390619Y5507482D01*
X16382238Y5505958D01*
X16374363Y5505450D01*
X16366236Y5505958D01*
X16362476Y5506720D01*
X16358869Y5507990D01*
X16355466Y5509564D01*
X16352774Y5511800D01*
X16351757Y5513273D01*
X16351046Y5514848D01*
X16350640Y5516575D01*
X16350488Y5518404D01*
X16350488Y5553202D01*
X16356330Y5563311D01*
X16373856Y5566664D01*
X16379647Y5566460D01*
X16393972Y5565089D01*
X16399256Y5564124D01*
X16399256Y5572506D01*
X16387114Y5574030D01*
G37*
G36*
X16418051Y5573268D02*
G01*
X16418051Y5499100D01*
X16427704Y5499100D01*
X16427704Y5561330D01*
X16468090Y5499100D01*
X16481298Y5499100D01*
X16481298Y5573268D01*
X16471646Y5573268D01*
X16471646Y5512054D01*
X16431260Y5573268D01*
G37*
G36*
X16500601Y5573268D02*
G01*
X16500601Y5565648D01*
X16529812Y5565648D01*
X16537686Y5565140D01*
X16540937Y5564428D01*
X16544036Y5563362D01*
X16546779Y5561533D01*
X16548862Y5559044D01*
X16550182Y5555945D01*
X16550538Y5554116D01*
X16550640Y5519420D01*
X16545306Y5509920D01*
X16529304Y5506720D01*
X16511778Y5506720D01*
X16511778Y5565648D01*
X16500601Y5565648D01*
X16500601Y5499100D01*
X16530066Y5499100D01*
X16543731Y5500370D01*
X16553484Y5504129D01*
X16559377Y5510377D01*
X16561307Y5519166D01*
X16561307Y5551932D01*
X16559377Y5561279D01*
X16553484Y5567934D01*
X16543731Y5571947D01*
X16530066Y5573268D01*
G37*
G36*
X15704819Y6349238D02*
G01*
X15692729Y6348679D01*
X15686836Y6347968D01*
X15680944Y6346952D01*
X15680944Y6339078D01*
X15693390Y6340805D01*
X15702788Y6341364D01*
X15706445Y6341262D01*
X15709493Y6340906D01*
X15712033Y6340348D01*
X15713963Y6339586D01*
X15715284Y6338468D01*
X15716250Y6336995D01*
X15716808Y6335064D01*
X15717012Y6332728D01*
X15717012Y6322568D01*
X15716554Y6319367D01*
X15715234Y6316675D01*
X15712998Y6314440D01*
X15709900Y6312662D01*
X15692831Y6305092D01*
X15690443Y6303873D01*
X15685211Y6300368D01*
X15683077Y6298692D01*
X15681350Y6296863D01*
X15679978Y6294475D01*
X15678962Y6291681D01*
X15678454Y6288633D01*
X15678404Y6273800D01*
X15728188Y6273800D01*
X15728188Y6281928D01*
X15688818Y6281928D01*
X15688818Y6286754D01*
X15689275Y6289852D01*
X15690748Y6292545D01*
X15693085Y6294780D01*
X15696438Y6296660D01*
X15720669Y6308293D01*
X15723768Y6310528D01*
X15726054Y6312916D01*
X15726918Y6314186D01*
X15727883Y6317284D01*
X15728188Y6321044D01*
X15728188Y6333236D01*
X15727832Y6337249D01*
X15726816Y6340602D01*
X15725038Y6343345D01*
X15722600Y6345428D01*
X15719501Y6347104D01*
X15715488Y6348272D01*
X15710611Y6348984D01*
G37*
G36*
X15626842Y6347968D02*
G01*
X15609385Y6304026D01*
X15619476Y6304026D01*
X15632176Y6337554D01*
X15633192Y6337554D01*
X15645638Y6304026D01*
X15609385Y6304026D01*
X15597378Y6273800D01*
X15608300Y6273800D01*
X15616682Y6296406D01*
X15648432Y6296406D01*
X15656813Y6273800D01*
X15668498Y6273800D01*
X15639542Y6347968D01*
G37*
G36*
X15686532Y6095238D02*
G01*
X15672866Y6093917D01*
X15663113Y6089904D01*
X15657220Y6083249D01*
X15655290Y6073902D01*
X15655290Y6038850D01*
X15657220Y6029960D01*
X15663113Y6023610D01*
X15672866Y6019800D01*
X15686532Y6018530D01*
X15692018Y6018682D01*
X15697352Y6019088D01*
X15702432Y6019800D01*
X15707360Y6020816D01*
X15707360Y6029198D01*
X15702026Y6028080D01*
X15691967Y6026810D01*
X15687294Y6026658D01*
X15671292Y6029807D01*
X15665957Y6039358D01*
X15665957Y6074156D01*
X15666364Y6078016D01*
X15667634Y6081115D01*
X15669666Y6083604D01*
X15672562Y6085332D01*
X15675660Y6086398D01*
X15678912Y6087110D01*
X15686786Y6087618D01*
X15691459Y6087465D01*
X15696387Y6086906D01*
X15701518Y6086043D01*
X15706851Y6084824D01*
X15706851Y6092952D01*
X15701975Y6093968D01*
X15696946Y6094679D01*
X15691815Y6095085D01*
G37*
G36*
X15592551Y6093968D02*
G01*
X15592551Y6087110D01*
X15617494Y6087110D01*
X15622066Y6086703D01*
X15627248Y6085382D01*
X15628518Y6084773D01*
X15630398Y6083046D01*
X15631718Y6080760D01*
X15632074Y6079439D01*
X15632176Y6064504D01*
X15631871Y6061811D01*
X15631007Y6059474D01*
X15629585Y6057595D01*
X15627604Y6056122D01*
X15625267Y6055004D01*
X15622574Y6054242D01*
X15619577Y6053734D01*
X15603474Y6053582D01*
X15603474Y6087110D01*
X15592551Y6087110D01*
X15592551Y6019800D01*
X15603474Y6019800D01*
X15603474Y6046470D01*
X15614650Y6046470D01*
X15621203Y6046724D01*
X15626892Y6047486D01*
X15631769Y6048756D01*
X15635732Y6050534D01*
X15638830Y6052921D01*
X15641066Y6055918D01*
X15642386Y6059627D01*
X15642844Y6063996D01*
X15642742Y6081166D01*
X15642488Y6082995D01*
X15641319Y6086094D01*
X15639592Y6088430D01*
X15637510Y6090412D01*
X15635020Y6091732D01*
X15631668Y6092698D01*
X15625063Y6093714D01*
X15621304Y6093917D01*
G37*
G36*
X15722092Y6093968D02*
G01*
X15722092Y6019800D01*
X15733268Y6019800D01*
X15733268Y6054090D01*
X15769336Y6054090D01*
X15769336Y6061964D01*
X15733268Y6061964D01*
X15733268Y6086094D01*
X15773146Y6086094D01*
X15773146Y6093968D01*
G37*
G36*
X15594584Y5827268D02*
G01*
X15594584Y5789930D01*
X15618917Y5789879D01*
X15622524Y5789472D01*
X15626181Y5788050D01*
X15627553Y5786729D01*
X15628366Y5785002D01*
X15628619Y5782818D01*
X15628619Y5768086D01*
X15628416Y5765952D01*
X15627807Y5764123D01*
X15626740Y5762650D01*
X15625318Y5761482D01*
X15623438Y5760618D01*
X15621050Y5759958D01*
X15614904Y5759450D01*
X15610179Y5759602D01*
X15599156Y5761024D01*
X15592806Y5762244D01*
X15592806Y5754116D01*
X15604642Y5752388D01*
X15614650Y5751830D01*
X15621762Y5752084D01*
X15625063Y5752541D01*
X15628366Y5753354D01*
X15631566Y5754573D01*
X15633954Y5756148D01*
X15636189Y5758027D01*
X15637763Y5760720D01*
X15638881Y5764022D01*
X15639288Y5767832D01*
X15639288Y5784850D01*
X15639135Y5787034D01*
X15638576Y5788964D01*
X15637713Y5790692D01*
X15636494Y5792216D01*
X15633496Y5794451D01*
X15630144Y5796026D01*
X15626334Y5796788D01*
X15622016Y5797042D01*
X15604744Y5797042D01*
X15604744Y5819394D01*
X15637256Y5819394D01*
X15637256Y5827268D01*
G37*
G36*
X15650972Y5827268D02*
G01*
X15679674Y5753100D01*
X15692628Y5753100D01*
X15722092Y5827268D01*
X15710916Y5827268D01*
X15687294Y5763514D01*
X15686278Y5763514D01*
X15662401Y5827268D01*
G37*
G36*
X15604998Y5574538D02*
G01*
X15598851Y5574385D01*
X15592806Y5573979D01*
X15586913Y5573268D01*
X15581122Y5572252D01*
X15581122Y5564378D01*
X15593364Y5566105D01*
X15602712Y5566664D01*
X15606471Y5566562D01*
X15609569Y5566206D01*
X15612059Y5565648D01*
X15613888Y5564886D01*
X15615310Y5563768D01*
X15616377Y5562295D01*
X15616986Y5560364D01*
X15617190Y5558028D01*
X15617190Y5547868D01*
X15616732Y5544667D01*
X15615361Y5541975D01*
X15613024Y5539740D01*
X15609824Y5537962D01*
X15590519Y5529173D01*
X15585135Y5525668D01*
X15583103Y5523992D01*
X15581528Y5522163D01*
X15580156Y5519775D01*
X15579039Y5516981D01*
X15578429Y5513933D01*
X15578328Y5499100D01*
X15628366Y5499100D01*
X15628366Y5507228D01*
X15588996Y5507228D01*
X15588996Y5512054D01*
X15589453Y5515152D01*
X15590824Y5517845D01*
X15593161Y5520080D01*
X15596362Y5521960D01*
X15616377Y5531307D01*
X15620847Y5533593D01*
X15623946Y5535828D01*
X15626080Y5538216D01*
X15627502Y5540959D01*
X15628264Y5544413D01*
X15628366Y5558536D01*
X15628010Y5562549D01*
X15626943Y5565902D01*
X15625216Y5568645D01*
X15622778Y5570728D01*
X15619577Y5572404D01*
X15615513Y5573572D01*
X15610687Y5574284D01*
G37*
G36*
X15676118Y5573268D02*
G01*
X15642336Y5524246D01*
X15642336Y5523230D01*
X15651480Y5523230D01*
X15679419Y5564378D01*
X15679419Y5523230D01*
X15642336Y5523230D01*
X15642336Y5515356D01*
X15679419Y5515356D01*
X15679419Y5499100D01*
X15688818Y5499100D01*
X15688818Y5515356D01*
X15696946Y5515356D01*
X15696946Y5523230D01*
X15688818Y5523230D01*
X15688818Y5573268D01*
G37*
G36*
X15704566Y5573268D02*
G01*
X15733268Y5499100D01*
X15746222Y5499100D01*
X15775686Y5573268D01*
X15764510Y5573268D01*
X15740888Y5509514D01*
X15739872Y5509514D01*
X15715996Y5573268D01*
G37*
G36*
X18744539Y5131257D02*
G01*
X18682055Y5081727D01*
X18691453Y5076139D01*
X18743777Y5119573D01*
X18744793Y5119065D01*
X18733617Y5052009D01*
X18743523Y5046167D01*
X18755715Y5124907D01*
G37*
G36*
X18795238Y5099405D02*
G01*
X18792342Y5098999D01*
X18789548Y5097983D01*
X18788227Y5097221D01*
X18785636Y5094833D01*
X18783401Y5091887D01*
X18775019Y5077155D01*
X18774105Y5075123D01*
X18773546Y5073142D01*
X18773444Y5071160D01*
X18773749Y5069281D01*
X18775121Y5065877D01*
X18777305Y5062931D01*
X18780150Y5060238D01*
X18783655Y5057851D01*
X18798641Y5049469D01*
X18787211Y5029911D01*
X18759271Y5046167D01*
X18755207Y5039309D01*
X18792291Y5017973D01*
X18811087Y5050231D01*
X18789192Y5063134D01*
X18785687Y5065979D01*
X18784620Y5067655D01*
X18784163Y5069433D01*
X18784366Y5071364D01*
X18785179Y5073345D01*
X18792545Y5086299D01*
X18793764Y5087975D01*
X18795187Y5089194D01*
X18796812Y5090007D01*
X18798641Y5090363D01*
X18800673Y5090109D01*
X18803010Y5089448D01*
X18805652Y5088331D01*
X18808547Y5086807D01*
X18812510Y5084318D01*
X18816777Y5081270D01*
X18821400Y5077612D01*
X18826327Y5073345D01*
X18830391Y5080457D01*
X18820993Y5087670D01*
X18812611Y5093157D01*
X18806261Y5096713D01*
X18803264Y5097830D01*
X18799911Y5098745D01*
X18796711Y5099354D01*
G37*
G36*
X16596360Y5412486D02*
G01*
X16569690Y5343144D01*
X16580104Y5339334D01*
X16592550Y5371338D01*
X16629380Y5357368D01*
X16616934Y5325110D01*
X16627348Y5321300D01*
X16653763Y5390388D01*
X16643604Y5394452D01*
X16631919Y5364480D01*
X16595344Y5378704D01*
X16606774Y5408422D01*
G37*
G36*
X16669613Y5363006D02*
G01*
X16666667Y5362498D01*
X16664076Y5361178D01*
X16661384Y5359044D01*
X16658894Y5355894D01*
X16656710Y5351830D01*
X16648938Y5331714D01*
X16647312Y5326075D01*
X16646956Y5323586D01*
X16647023Y5320538D01*
X16656812Y5320538D01*
X16657116Y5323128D01*
X16658082Y5326380D01*
X16667124Y5349646D01*
X16668038Y5351475D01*
X16669004Y5352846D01*
X16671086Y5354574D01*
X16672306Y5355082D01*
X16673626Y5355336D01*
X16675100Y5355336D01*
X16679011Y5354370D01*
X16684244Y5352542D01*
X16689476Y5350357D01*
X16692880Y5348478D01*
X16693997Y5347563D01*
X16694861Y5346496D01*
X16695419Y5345379D01*
X16695674Y5344160D01*
X16695419Y5340858D01*
X16694150Y5336540D01*
X16686276Y5315712D01*
X16684751Y5312664D01*
X16683228Y5310632D01*
X16681500Y5309311D01*
X16680535Y5308955D01*
X16677182Y5308803D01*
X16675100Y5309108D01*
X16672306Y5309920D01*
X16664635Y5312968D01*
X16660266Y5315305D01*
X16658590Y5316728D01*
X16657269Y5318455D01*
X16656913Y5319420D01*
X16656812Y5320538D01*
X16647023Y5320538D01*
X16647210Y5319318D01*
X16647820Y5317490D01*
X16648734Y5315762D01*
X16649954Y5314188D01*
X16652900Y5311648D01*
X16656050Y5309616D01*
X16660063Y5307431D01*
X16670070Y5303570D01*
X16676014Y5301792D01*
X16679570Y5301132D01*
X16683126Y5300929D01*
X16686072Y5301335D01*
X16687292Y5301742D01*
X16690035Y5303418D01*
X16692473Y5305907D01*
X16694607Y5309260D01*
X16696436Y5313426D01*
X16704208Y5333695D01*
X16705326Y5338267D01*
X16705580Y5340350D01*
X16705326Y5344109D01*
X16704563Y5347208D01*
X16703954Y5348478D01*
X16701922Y5350865D01*
X16699077Y5352999D01*
X16696334Y5354675D01*
X16689273Y5357825D01*
X16680586Y5361025D01*
X16676878Y5362143D01*
X16673169Y5362803D01*
G37*
G36*
X16735298Y5357368D02*
G01*
X16729201Y5341366D01*
X16717772Y5345684D01*
X16715232Y5339334D01*
X16726916Y5335016D01*
X16714165Y5301742D01*
X16713454Y5298998D01*
X16713149Y5296560D01*
X16713200Y5294376D01*
X16713504Y5292293D01*
X16714216Y5290464D01*
X16715282Y5288737D01*
X16718483Y5285892D01*
X16723309Y5283200D01*
X16729100Y5280964D01*
X16734688Y5279288D01*
X16737584Y5278628D01*
X16739869Y5284978D01*
X16731996Y5287010D01*
X16728236Y5288737D01*
X16725646Y5290312D01*
X16724731Y5291226D01*
X16723613Y5293258D01*
X16723360Y5294376D01*
X16723664Y5297068D01*
X16724630Y5300472D01*
X16736568Y5331206D01*
X16755110Y5324094D01*
X16757396Y5330444D01*
X16738854Y5337556D01*
X16745204Y5353558D01*
G37*
G36*
X16773956Y5322671D02*
G01*
X16770096Y5322062D01*
X16766895Y5320588D01*
X16764050Y5318201D01*
X16761663Y5314848D01*
X16759682Y5310632D01*
X16756237Y5301742D01*
X16767301Y5301742D01*
X16771619Y5312003D01*
X16772839Y5313629D01*
X16774261Y5314696D01*
X16775938Y5315204D01*
X16777919Y5315356D01*
X16780306Y5315153D01*
X16783151Y5314492D01*
X16786352Y5313426D01*
X16789400Y5312054D01*
X16791889Y5310632D01*
X16793819Y5309260D01*
X16795242Y5307838D01*
X16796004Y5306314D01*
X16796308Y5304536D01*
X16796156Y5302504D01*
X16795496Y5300218D01*
X16792448Y5292090D01*
X16767301Y5301742D01*
X16756237Y5301742D01*
X16751807Y5290312D01*
X16750639Y5282844D01*
X16753128Y5276189D01*
X16759377Y5270398D01*
X16769334Y5265420D01*
X16773906Y5263743D01*
X16778681Y5262372D01*
X16788892Y5260340D01*
X16791686Y5267706D01*
X16786453Y5268417D01*
X16781627Y5269331D01*
X16777309Y5270449D01*
X16773398Y5271770D01*
X16769791Y5273344D01*
X16766794Y5275021D01*
X16764457Y5276748D01*
X16762730Y5278628D01*
X16761612Y5280609D01*
X16761155Y5282793D01*
X16761256Y5285181D01*
X16761968Y5287772D01*
X16765016Y5295392D01*
X16799560Y5282184D01*
X16804132Y5293614D01*
X16805452Y5298186D01*
X16805910Y5302300D01*
X16805452Y5305958D01*
X16804132Y5309108D01*
X16801846Y5312054D01*
X16798594Y5314746D01*
X16794378Y5317236D01*
X16789146Y5319522D01*
X16783456Y5321401D01*
X16778427Y5322468D01*
G37*
G36*
X16824960Y5304536D02*
G01*
X16805148Y5252974D01*
X16814800Y5249164D01*
X16829684Y5288026D01*
X16831360Y5290464D01*
X16832326Y5291328D01*
X16833342Y5291836D01*
X16835983Y5292242D01*
X16839438Y5291836D01*
X16843908Y5290566D01*
X16849852Y5288127D01*
X16852341Y5286654D01*
X16854017Y5285079D01*
X16854932Y5283454D01*
X16855338Y5281828D01*
X16855440Y5280406D01*
X16854424Y5276850D01*
X16839946Y5239512D01*
X16849598Y5235702D01*
X16864076Y5273802D01*
X16865244Y5277459D01*
X16865752Y5280761D01*
X16865498Y5283809D01*
X16864584Y5286502D01*
X16862755Y5288940D01*
X16860012Y5291277D01*
X16856405Y5293410D01*
X16851884Y5295392D01*
X16844822Y5297525D01*
X16839184Y5298135D01*
X16834916Y5297170D01*
X16832072Y5294630D01*
X16834612Y5300980D01*
G37*
G36*
X16930624Y5290566D02*
G01*
X16924528Y5275072D01*
X16919702Y5261864D01*
X16919448Y5261864D01*
X16919752Y5263540D01*
X16919295Y5265216D01*
X16918228Y5266944D01*
X16916400Y5268722D01*
X16914215Y5270449D01*
X16908729Y5273497D01*
X16905478Y5274818D01*
X16900194Y5276596D01*
X16895572Y5277662D01*
X16891558Y5278018D01*
X16888206Y5277612D01*
X16885361Y5276443D01*
X16882872Y5274513D01*
X16880789Y5271770D01*
X16879062Y5268214D01*
X16870172Y5245608D01*
X16869206Y5242560D01*
X16868597Y5239766D01*
X16868292Y5237226D01*
X16868346Y5236006D01*
X16878300Y5236006D01*
X16878452Y5237937D01*
X16879062Y5240020D01*
X16889831Y5267604D01*
X16890949Y5268976D01*
X16892270Y5269839D01*
X16893794Y5270246D01*
X16895673Y5270144D01*
X16901363Y5268620D01*
X16905224Y5267198D01*
X16911269Y5264404D01*
X16915231Y5261406D01*
X16917111Y5258206D01*
X16916908Y5254752D01*
X16907002Y5229352D01*
X16906087Y5227421D01*
X16904766Y5225999D01*
X16903141Y5225034D01*
X16901160Y5224526D01*
X16898772Y5224475D01*
X16895927Y5224932D01*
X16892676Y5225745D01*
X16888968Y5227066D01*
X16883075Y5229860D01*
X16880992Y5231282D01*
X16879570Y5232654D01*
X16878706Y5234279D01*
X16878300Y5236006D01*
X16868346Y5236006D01*
X16868394Y5234940D01*
X16868952Y5232857D01*
X16869918Y5230926D01*
X16871238Y5229199D01*
X16872966Y5227574D01*
X16875099Y5225948D01*
X16877741Y5224322D01*
X16884396Y5221224D01*
X16888307Y5219903D01*
X16891812Y5219039D01*
X16895013Y5218633D01*
X16897858Y5218684D01*
X16900245Y5218988D01*
X16902176Y5219547D01*
X16903547Y5220512D01*
X16904462Y5221732D01*
X16902176Y5215636D01*
X16911320Y5212080D01*
X16940022Y5286756D01*
G37*
G36*
X16978884Y5265674D02*
G01*
X16952468Y5196332D01*
X16962882Y5192522D01*
X16975074Y5224526D01*
X17008856Y5211572D01*
X17011650Y5218938D01*
X16977868Y5231892D01*
X16986504Y5254498D01*
X17023842Y5240020D01*
X17026636Y5247386D01*
G37*
G36*
X17032478Y5225034D02*
G01*
X17029684Y5217922D01*
X17039336Y5215432D01*
X17047972Y5212588D01*
X17055338Y5209032D01*
X17057166Y5207203D01*
X17058132Y5205222D01*
X17058284Y5203139D01*
X17057624Y5200396D01*
X17054322Y5192268D01*
X17035322Y5199329D01*
X17032224Y5200294D01*
X17027144Y5201158D01*
X17024959Y5201107D01*
X17022978Y5200650D01*
X17021149Y5199837D01*
X17019524Y5198618D01*
X17018152Y5197144D01*
X17016831Y5195265D01*
X17014444Y5190236D01*
X17013377Y5187086D01*
X17012666Y5184190D01*
X17012361Y5181600D01*
X17012395Y5180076D01*
X17022064Y5180076D01*
X17022572Y5182768D01*
X17023588Y5186172D01*
X17025213Y5189829D01*
X17026636Y5192268D01*
X17028363Y5193436D01*
X17030446Y5193792D01*
X17033290Y5193334D01*
X17037304Y5192014D01*
X17052036Y5186172D01*
X17046702Y5172202D01*
X17045787Y5170728D01*
X17044416Y5169763D01*
X17042536Y5169458D01*
X17038116Y5170017D01*
X17033544Y5171287D01*
X17027398Y5173726D01*
X17024604Y5175250D01*
X17023588Y5176012D01*
X17022470Y5177942D01*
X17022064Y5180076D01*
X17012395Y5180076D01*
X17012767Y5177332D01*
X17013478Y5175504D01*
X17014647Y5173776D01*
X17016222Y5172202D01*
X17018254Y5170779D01*
X17023689Y5167985D01*
X17027144Y5166614D01*
X17033595Y5164531D01*
X17038726Y5163820D01*
X17042485Y5164531D01*
X17044924Y5166614D01*
X17042892Y5161534D01*
X17052290Y5157978D01*
X17067428Y5197805D01*
X17068241Y5200700D01*
X17068596Y5203291D01*
X17068546Y5205476D01*
X17068190Y5207355D01*
X17067377Y5209082D01*
X17066158Y5210759D01*
X17064482Y5212334D01*
X17059402Y5215331D01*
X17051782Y5218684D01*
X17042790Y5221935D01*
G37*
G36*
X17088866Y5203190D02*
G01*
X17069054Y5151628D01*
X17078452Y5148072D01*
X17093590Y5186934D01*
X17095114Y5189220D01*
X17095978Y5189982D01*
X17098314Y5190896D01*
X17101312Y5190998D01*
X17105223Y5190134D01*
X17110456Y5188458D01*
X17113758Y5187035D01*
X17116247Y5185460D01*
X17117923Y5183835D01*
X17118838Y5182108D01*
X17119142Y5180431D01*
X17119092Y5179060D01*
X17118076Y5175504D01*
X17103852Y5138166D01*
X17113504Y5134610D01*
X17127982Y5172456D01*
X17129150Y5176113D01*
X17129556Y5179415D01*
X17129252Y5182463D01*
X17128236Y5185156D01*
X17126508Y5187594D01*
X17123867Y5189931D01*
X17120260Y5192064D01*
X17115790Y5194046D01*
X17108728Y5196281D01*
X17103090Y5196890D01*
X17098822Y5195925D01*
X17095978Y5193284D01*
X17098264Y5199634D01*
G37*
G36*
X17980660Y4853686D02*
G01*
X17953990Y4784344D01*
X17998440Y4767326D01*
X18001234Y4774692D01*
X17967198Y4787646D01*
X17991074Y4849622D01*
G37*
G36*
X18036032Y4832350D02*
G01*
X18009616Y4763262D01*
X18057114Y4744974D01*
X18059908Y4752086D01*
X18022570Y4766564D01*
X18032222Y4791202D01*
X18064988Y4778756D01*
X18067782Y4786122D01*
X18035016Y4798568D01*
X18043652Y4821174D01*
X18079974Y4807204D01*
X18082768Y4814570D01*
G37*
G36*
X18098008Y4808728D02*
G01*
X18072510Y4742434D01*
X18084546Y4742434D01*
X18105628Y4797552D01*
X18124678Y4790186D01*
X18128234Y4788509D01*
X18131231Y4786833D01*
X18133872Y4784902D01*
X18136209Y4782515D01*
X18137124Y4781092D01*
X18138140Y4777994D01*
X18138140Y4774539D01*
X18137124Y4770882D01*
X18125440Y4740402D01*
X18117058Y4733340D01*
X18101056Y4736084D01*
X18084546Y4742434D01*
X18072510Y4742434D01*
X18071338Y4739386D01*
X18099024Y4728718D01*
X18112130Y4725009D01*
X18122595Y4725009D01*
X18130316Y4728819D01*
X18135346Y4736338D01*
X18147030Y4767072D01*
X18148554Y4776419D01*
X18145455Y4784699D01*
X18137733Y4791913D01*
X18125440Y4798060D01*
G37*
G36*
X18586450Y5037074D02*
G01*
X18566130Y5001768D01*
X18564453Y4998313D01*
X18563539Y4995113D01*
X18563336Y4992116D01*
X18563844Y4989322D01*
X18565215Y4986528D01*
X18567552Y4983784D01*
X18570803Y4981092D01*
X18575020Y4978400D01*
X18581573Y4975199D01*
X18587059Y4973828D01*
X18591377Y4974183D01*
X18594578Y4976368D01*
X18591276Y4970526D01*
X18600166Y4965192D01*
X18627852Y5013198D01*
X18618962Y5018278D01*
X18597981Y4982311D01*
X18596102Y4980279D01*
X18593917Y4979263D01*
X18591225Y4979162D01*
X18589752Y4979416D01*
X18585942Y4980940D01*
X18581116Y4983480D01*
X18578118Y4985359D01*
X18575883Y4987239D01*
X18574410Y4989068D01*
X18573750Y4990846D01*
X18573699Y4992471D01*
X18574512Y4995468D01*
X18595340Y5031994D01*
G37*
G36*
X18643346Y5004308D02*
G01*
X18627170Y4976368D01*
X18639028Y4976368D01*
X18646648Y4989322D01*
X18647765Y4990642D01*
X18649289Y4991404D01*
X18651169Y4991557D01*
X18653506Y4991100D01*
X18657570Y4989423D01*
X18662142Y4987036D01*
X18665545Y4985004D01*
X18667984Y4982972D01*
X18669304Y4981041D01*
X18669660Y4979009D01*
X18669254Y4976622D01*
X18667984Y4973574D01*
X18665901Y4970018D01*
X18663158Y4966462D01*
X18661481Y4965547D01*
X18659348Y4965446D01*
X18656554Y4966462D01*
X18639028Y4976368D01*
X18627170Y4976368D01*
X18622111Y4967376D01*
X18620892Y4964633D01*
X18620079Y4962194D01*
X18619724Y4960112D01*
X18619825Y4958080D01*
X18620384Y4956149D01*
X18621349Y4954270D01*
X18622772Y4952492D01*
X18624651Y4950714D01*
X18630341Y4946650D01*
X18638316Y4942078D01*
X18652490Y4934966D01*
X18656300Y4941570D01*
X18647156Y4945481D01*
X18639028Y4949698D01*
X18635116Y4952288D01*
X18632424Y4954524D01*
X18630849Y4956556D01*
X18630138Y4958588D01*
X18630341Y4960721D01*
X18631408Y4963160D01*
X18635726Y4970780D01*
X18653506Y4960823D01*
X18659094Y4958384D01*
X18663615Y4957521D01*
X18665647Y4957622D01*
X18667526Y4958130D01*
X18669254Y4959096D01*
X18670879Y4960315D01*
X18672505Y4961991D01*
X18674080Y4964125D01*
X18677178Y4969611D01*
X18678347Y4972304D01*
X18679109Y4974691D01*
X18679414Y4976876D01*
X18679363Y4978958D01*
X18678855Y4980940D01*
X18677940Y4982768D01*
X18674994Y4986274D01*
X18670168Y4989982D01*
X18666968Y4991862D01*
X18660821Y4994960D01*
X18655792Y4996484D01*
X18651931Y4996383D01*
X18649188Y4994656D01*
X18651982Y4999228D01*
G37*
G36*
X18726404Y4956302D02*
G01*
X18709132Y4926584D01*
X18677890Y4944618D01*
X18673826Y4937760D01*
X18705322Y4919726D01*
X18693130Y4898898D01*
X18658586Y4918710D01*
X18654776Y4912106D01*
X18698718Y4886452D01*
X18735802Y4950714D01*
G37*
G36*
X18793409Y4943246D02*
G01*
X18790767Y4943195D01*
X18788227Y4942738D01*
X18785840Y4941824D01*
X18783604Y4940401D01*
X18781471Y4938471D01*
X18779439Y4935982D01*
X18777458Y4932934D01*
X18748597Y4883150D01*
X18761710Y4883150D01*
X18762218Y4885639D01*
X18776188Y4910328D01*
X18777559Y4912309D01*
X18779134Y4913731D01*
X18780861Y4914595D01*
X18782792Y4914900D01*
X18784925Y4914646D01*
X18787364Y4913884D01*
X18790259Y4912614D01*
X18795847Y4909464D01*
X18799505Y4906924D01*
X18801842Y4904740D01*
X18802553Y4903673D01*
X18803112Y4901438D01*
X18803010Y4900218D01*
X18801994Y4897424D01*
X18788634Y4874260D01*
X18786703Y4871466D01*
X18784824Y4869688D01*
X18783757Y4869281D01*
X18781369Y4869180D01*
X18778372Y4869942D01*
X18774308Y4871720D01*
X18769431Y4874463D01*
X18765621Y4877104D01*
X18764250Y4878324D01*
X18762472Y4880813D01*
X18761710Y4883150D01*
X18748597Y4883150D01*
X18746978Y4880356D01*
X18755360Y4875784D01*
X18758154Y4880356D01*
X18758408Y4876901D01*
X18760338Y4873345D01*
X18763996Y4869789D01*
X18769330Y4866132D01*
X18774410Y4863592D01*
X18778982Y4861915D01*
X18783046Y4861052D01*
X18786602Y4861052D01*
X18789904Y4862017D01*
X18792952Y4863947D01*
X18795746Y4866843D01*
X18798286Y4870704D01*
X18810935Y4892852D01*
X18811951Y4895342D01*
X18812560Y4897678D01*
X18812764Y4899914D01*
X18812560Y4901946D01*
X18811951Y4903927D01*
X18810935Y4905857D01*
X18809462Y4907788D01*
X18807582Y4909718D01*
X18802248Y4913630D01*
X18795847Y4917389D01*
X18790259Y4919675D01*
X18785382Y4920488D01*
X18783503Y4920234D01*
X18781979Y4919472D01*
X18780760Y4918202D01*
X18787364Y4929632D01*
X18788888Y4931867D01*
X18790564Y4933492D01*
X18792444Y4934508D01*
X18794476Y4934966D01*
X18796914Y4934915D01*
X18799657Y4934305D01*
X18802654Y4933137D01*
X18808954Y4929530D01*
X18822416Y4919980D01*
X18825972Y4926330D01*
X18818961Y4931511D01*
X18809970Y4936998D01*
X18802604Y4940757D01*
X18799302Y4941976D01*
X18796254Y4942840D01*
G37*
G36*
X18831052Y4895850D02*
G01*
X18810732Y4860798D01*
X18809055Y4857343D01*
X18808141Y4854041D01*
X18807938Y4850993D01*
X18808446Y4848098D01*
X18809817Y4845405D01*
X18812103Y4842764D01*
X18815253Y4840071D01*
X18819368Y4837430D01*
X18826073Y4834128D01*
X18831560Y4832654D01*
X18835979Y4833010D01*
X18839180Y4835144D01*
X18835624Y4829302D01*
X18844768Y4824222D01*
X18872200Y4871974D01*
X18863310Y4877054D01*
X18842583Y4841087D01*
X18840551Y4839055D01*
X18838367Y4838039D01*
X18835674Y4837938D01*
X18834100Y4838192D01*
X18830391Y4839716D01*
X18825718Y4842256D01*
X18822720Y4844135D01*
X18820485Y4846066D01*
X18819012Y4847945D01*
X18818250Y4850638D01*
X18818352Y4852924D01*
X18819418Y4855108D01*
X18839942Y4890770D01*
G37*
G36*
X18887694Y4863084D02*
G01*
X18860008Y4815332D01*
X18868898Y4809998D01*
X18896584Y4858004D01*
G37*
G36*
X18912078Y4849114D02*
G01*
X18872200Y4779772D01*
X18881090Y4774692D01*
X18920968Y4844034D01*
G37*
G36*
X18939764Y4831130D02*
G01*
X18936970Y4830826D01*
X18934023Y4829606D01*
X18931229Y4827524D01*
X18928537Y4824526D01*
X18926048Y4820666D01*
X18915380Y4801870D01*
X18913602Y4797552D01*
X18912789Y4793538D01*
X18912687Y4790186D01*
X18922238Y4790186D01*
X18922390Y4791659D01*
X18923660Y4795215D01*
X18935954Y4816856D01*
X18937935Y4819650D01*
X18940678Y4822088D01*
X18942710Y4822698D01*
X18944945Y4822545D01*
X18946977Y4822037D01*
X18952260Y4819446D01*
X18959068Y4815281D01*
X18960947Y4813909D01*
X18962471Y4812385D01*
X18963690Y4810506D01*
X18964198Y4808474D01*
X18963944Y4806238D01*
X18962776Y4803444D01*
X18950686Y4782312D01*
X18948247Y4778705D01*
X18947028Y4777384D01*
X18945860Y4776470D01*
X18944691Y4775962D01*
X18943421Y4775708D01*
X18940526Y4775962D01*
X18937071Y4777486D01*
X18932144Y4780026D01*
X18927419Y4783023D01*
X18924270Y4785360D01*
X18922644Y4787696D01*
X18922288Y4788916D01*
X18922238Y4790186D01*
X18912687Y4790135D01*
X18912840Y4788662D01*
X18914059Y4785918D01*
X18916142Y4783328D01*
X18920968Y4779010D01*
X18928842Y4774184D01*
X18937884Y4769408D01*
X18941338Y4768240D01*
X18944793Y4767529D01*
X18947841Y4767529D01*
X18950584Y4768342D01*
X18953530Y4770120D01*
X18956528Y4772914D01*
X18959322Y4776571D01*
X18970244Y4795266D01*
X18972885Y4800549D01*
X18973647Y4802936D01*
X18974054Y4805172D01*
X18974054Y4807153D01*
X18973698Y4809032D01*
X18973038Y4810810D01*
X18970853Y4814112D01*
X18968161Y4816906D01*
X18965062Y4819345D01*
X18960490Y4822393D01*
X18951854Y4827270D01*
X18948247Y4828997D01*
X18944844Y4830114D01*
X18941389Y4830978D01*
G37*
G36*
X18855436Y4807204D02*
G01*
X18850102Y4797806D01*
X18858992Y4792726D01*
X18864326Y4802124D01*
G37*
G36*
X18996101Y4798669D02*
G01*
X18993358Y4798314D01*
X18990411Y4797094D01*
X18987617Y4795062D01*
X18984925Y4792167D01*
X18982436Y4788408D01*
X18971615Y4769358D01*
X18969837Y4765040D01*
X18969228Y4763008D01*
X18968872Y4759248D01*
X18968954Y4757928D01*
X18978372Y4757928D01*
X18978524Y4759299D01*
X18979794Y4762855D01*
X18992088Y4784344D01*
X18994069Y4787138D01*
X18996812Y4789576D01*
X18998844Y4790186D01*
X19001079Y4790033D01*
X19003264Y4789525D01*
X19008496Y4786934D01*
X19015202Y4782870D01*
X19017081Y4781397D01*
X19018605Y4779873D01*
X19019824Y4778095D01*
X19020332Y4776063D01*
X19020078Y4773726D01*
X19019062Y4770932D01*
X19006820Y4750054D01*
X19004381Y4746294D01*
X19003162Y4745024D01*
X19000927Y4743602D01*
X18999708Y4743246D01*
X18998387Y4743196D01*
X18996914Y4743450D01*
X18993256Y4745024D01*
X18983553Y4750612D01*
X18980404Y4753102D01*
X18978880Y4755337D01*
X18978372Y4757928D01*
X18968954Y4757928D01*
X18969228Y4756150D01*
X18970244Y4753406D01*
X18972276Y4750816D01*
X18974816Y4748479D01*
X18977356Y4746498D01*
X18990716Y4738624D01*
X18994272Y4736896D01*
X18997726Y4735728D01*
X19001181Y4735017D01*
X19004076Y4735017D01*
X19006820Y4735931D01*
X19009868Y4737709D01*
X19011392Y4738878D01*
X19014338Y4742129D01*
X19016980Y4746244D01*
X19026632Y4762754D01*
X19029070Y4768037D01*
X19029781Y4770424D01*
X19030188Y4772660D01*
X19030289Y4774641D01*
X19029934Y4776571D01*
X19029273Y4778451D01*
X19026987Y4781854D01*
X19024447Y4784648D01*
X19021348Y4787087D01*
X19011798Y4792726D01*
X19004381Y4796485D01*
X19000978Y4797755D01*
X18997625Y4798568D01*
G37*
G36*
X19045174Y4771136D02*
G01*
X19040856Y4763770D01*
X19046139Y4762144D01*
X19051016Y4760315D01*
X19055537Y4758334D01*
X19059652Y4756150D01*
X19071945Y4745329D01*
X19071590Y4734306D01*
X19054318Y4704334D01*
X19052082Y4701184D01*
X19049441Y4699050D01*
X19046393Y4697984D01*
X19042888Y4697984D01*
X19039687Y4698492D01*
X19036538Y4699508D01*
X19029680Y4703064D01*
X19025616Y4705553D01*
X19021552Y4708448D01*
X19017488Y4711750D01*
X19013424Y4715510D01*
X19009360Y4708398D01*
X19013170Y4705045D01*
X19017183Y4701895D01*
X19021399Y4698949D01*
X19025870Y4696206D01*
X19038417Y4690567D01*
X19048933Y4689144D01*
X19057366Y4691938D01*
X19063716Y4699000D01*
X19081242Y4729480D01*
X19083883Y4738116D01*
X19081953Y4746498D01*
X19075400Y4754626D01*
X19064224Y4762500D01*
X19059448Y4765141D01*
X19049898Y4769459D01*
G37*
G36*
X19121882Y4728210D02*
G01*
X19118580Y4722368D01*
X19126200Y4719066D01*
X19129654Y4716830D01*
X19131788Y4714748D01*
X19133058Y4712665D01*
X19133312Y4710430D01*
X19132651Y4707839D01*
X19131026Y4704588D01*
X19114516Y4676140D01*
X19097498Y4686046D01*
X19094196Y4680204D01*
X19111214Y4670298D01*
X19102578Y4655312D01*
X19111722Y4650232D01*
X19120358Y4664964D01*
X19131026Y4658868D01*
X19134328Y4664710D01*
X19123660Y4670806D01*
X19141389Y4701794D01*
X19142456Y4704384D01*
X19143167Y4706772D01*
X19143522Y4710887D01*
X19143167Y4712766D01*
X19142405Y4714544D01*
X19141186Y4716272D01*
X19139611Y4717948D01*
X19135140Y4721352D01*
X19129857Y4724603D01*
X19124625Y4727143D01*
G37*
G36*
X19177762Y4695698D02*
G01*
X19158204Y4661916D01*
X19156883Y4660036D01*
X19155410Y4658664D01*
X19153835Y4657852D01*
X19152108Y4657598D01*
X19150076Y4657852D01*
X19147688Y4658563D01*
X19144996Y4659731D01*
X19136868Y4664202D01*
X19132550Y4656582D01*
X19138442Y4653229D01*
X19141897Y4652060D01*
X19145605Y4651603D01*
X19147383Y4651603D01*
X19150584Y4652264D01*
X19153276Y4653381D01*
X19155156Y4655312D01*
X19150584Y4647438D01*
X19158966Y4642612D01*
X19186652Y4690618D01*
G37*
G36*
X19202146Y4681728D02*
G01*
X19186090Y4653788D01*
X19197828Y4653788D01*
X19205448Y4666742D01*
X19206565Y4668062D01*
X19208089Y4668824D01*
X19209969Y4668977D01*
X19212306Y4668520D01*
X19216268Y4666843D01*
X19220942Y4664456D01*
X19224345Y4662322D01*
X19226784Y4660290D01*
X19228104Y4658461D01*
X19228460Y4656429D01*
X19227952Y4653991D01*
X19226682Y4650943D01*
X19224701Y4647438D01*
X19222770Y4644796D01*
X19221145Y4643221D01*
X19219265Y4642713D01*
X19216878Y4643221D01*
X19213576Y4644745D01*
X19197828Y4653788D01*
X19186090Y4653788D01*
X19180911Y4644644D01*
X19179692Y4641951D01*
X19178879Y4639564D01*
X19178524Y4637532D01*
X19178625Y4635500D01*
X19179184Y4633569D01*
X19180149Y4631690D01*
X19181572Y4629912D01*
X19183451Y4628083D01*
X19185991Y4626102D01*
X19193002Y4621784D01*
X19201536Y4617161D01*
X19211290Y4612386D01*
X19215100Y4618990D01*
X19205956Y4622901D01*
X19197828Y4627118D01*
X19193916Y4629708D01*
X19191224Y4631944D01*
X19189649Y4633772D01*
X19188938Y4635754D01*
X19189141Y4638090D01*
X19190208Y4640580D01*
X19194526Y4648200D01*
X19209004Y4639818D01*
X19215252Y4636770D01*
X19217894Y4635804D01*
X19222415Y4634941D01*
X19224447Y4635042D01*
X19226326Y4635550D01*
X19228054Y4636516D01*
X19229679Y4637735D01*
X19231305Y4639360D01*
X19232880Y4641392D01*
X19235978Y4646930D01*
X19237147Y4649673D01*
X19237909Y4652111D01*
X19238214Y4654296D01*
X19238163Y4656378D01*
X19237655Y4658360D01*
X19236740Y4660188D01*
X19233794Y4663694D01*
X19228968Y4667402D01*
X19225768Y4669282D01*
X19219621Y4672380D01*
X19214592Y4673904D01*
X19210731Y4673803D01*
X19207988Y4672076D01*
X19210782Y4676648D01*
G37*
G36*
X19285966Y4633214D02*
G01*
X19272758Y4610100D01*
X19257264Y4618532D01*
X19251930Y4620768D01*
X19247104Y4622088D01*
X19242786Y4622546D01*
X19238976Y4622038D01*
X19235572Y4620564D01*
X19232626Y4618126D01*
X19230086Y4614672D01*
X19221348Y4599482D01*
X19220688Y4597857D01*
X19220180Y4594860D01*
X19220526Y4591812D01*
X19231102Y4591812D01*
X19231305Y4594352D01*
X19232372Y4596892D01*
X19238976Y4608576D01*
X19240652Y4610811D01*
X19242532Y4612386D01*
X19244716Y4613351D01*
X19247104Y4613656D01*
X19249745Y4613554D01*
X19252438Y4612944D01*
X19255333Y4611878D01*
X19258280Y4610354D01*
X19269202Y4604004D01*
X19252692Y4574794D01*
X19238315Y4583277D01*
X19233642Y4586986D01*
X19232016Y4589322D01*
X19231102Y4591812D01*
X19220535Y4591761D01*
X19221450Y4589018D01*
X19222923Y4586478D01*
X19225260Y4583938D01*
X19230594Y4579874D01*
X19258534Y4563364D01*
X19295618Y4627626D01*
G37*
G36*
X17359528Y4961280D02*
G01*
X17356480Y4961128D01*
X17353635Y4960518D01*
X17350994Y4959604D01*
X17348606Y4958232D01*
X17346371Y4956556D01*
X17344440Y4954422D01*
X17342815Y4951984D01*
X17341494Y4949088D01*
X17328337Y4914188D01*
X17327930Y4911953D01*
X17327829Y4909718D01*
X17328032Y4907432D01*
X17329200Y4903571D01*
X17331080Y4900066D01*
X17334026Y4896967D01*
X17337684Y4893716D01*
X17341443Y4891176D01*
X17345050Y4889144D01*
X17353686Y4885334D01*
X17366183Y4881524D01*
X17380356Y4878730D01*
X17394580Y4916068D01*
X17368926Y4925974D01*
X17366132Y4918608D01*
X17382388Y4912512D01*
X17372990Y4888382D01*
X17364557Y4889855D01*
X17360646Y4890922D01*
X17354905Y4893005D01*
X17351248Y4894783D01*
X17346371Y4897729D01*
X17343272Y4900066D01*
X17341850Y4901387D01*
X17339716Y4904333D01*
X17338954Y4905908D01*
X17338598Y4907584D01*
X17338497Y4909312D01*
X17339208Y4912766D01*
X17351908Y4945278D01*
X17361001Y4952746D01*
X17378578Y4949596D01*
X17383810Y4947310D01*
X17396714Y4940706D01*
X17401184Y4937912D01*
X17404232Y4945786D01*
X17393513Y4951476D01*
X17378375Y4957775D01*
X17373041Y4959451D01*
X17367859Y4960467D01*
X17362424Y4961128D01*
G37*
G36*
X18531992Y5252212D02*
G01*
X18512180Y5217668D01*
X18536056Y5203698D01*
X18539866Y5210556D01*
X18524880Y5219192D01*
X18537834Y5241544D01*
X18542000Y5240223D01*
X18545962Y5238699D01*
X18553074Y5235194D01*
X18556782Y5232908D01*
X18561405Y5229453D01*
X18564047Y5226761D01*
X18566485Y5223764D01*
X18568162Y5220614D01*
X18568568Y5218938D01*
X18568670Y5217210D01*
X18568009Y5213756D01*
X18567298Y5212080D01*
X18549772Y5181854D01*
X18539714Y5176012D01*
X18522848Y5181854D01*
X18517920Y5185003D01*
X18511926Y5189220D01*
X18502274Y5197094D01*
X18497956Y5189474D01*
X18507710Y5182362D01*
X18521781Y5173827D01*
X18526760Y5171389D01*
X18531636Y5169611D01*
X18536970Y5168188D01*
X18542812Y5167223D01*
X18545708Y5167274D01*
X18548400Y5167731D01*
X18551042Y5168646D01*
X18553430Y5170017D01*
X18555665Y5171795D01*
X18557646Y5173929D01*
X18559424Y5176520D01*
X18578017Y5209082D01*
X18578779Y5211216D01*
X18579185Y5213400D01*
X18579084Y5217769D01*
X18578779Y5219700D01*
X18578220Y5221579D01*
X18576340Y5225084D01*
X18573546Y5228742D01*
X18570194Y5232247D01*
X18566892Y5235143D01*
X18563539Y5237683D01*
X18557392Y5241544D01*
X18545708Y5247284D01*
G37*
G36*
X16053816Y6539738D02*
G01*
X16043148Y6539484D01*
X16032988Y6538722D01*
X16032988Y6530594D01*
X16044062Y6532118D01*
X16053816Y6532626D01*
X16059810Y6532270D01*
X16064077Y6531152D01*
X16066668Y6529324D01*
X16067532Y6526784D01*
X16067430Y6512204D01*
X16066820Y6510172D01*
X16066262Y6509257D01*
X16064484Y6507988D01*
X16060013Y6506565D01*
X16058134Y6506209D01*
X16040862Y6506209D01*
X16040862Y6499098D01*
X16057930Y6499047D01*
X16064484Y6498082D01*
X16066617Y6497116D01*
X16068090Y6495796D01*
X16069005Y6494068D01*
X16069310Y6491986D01*
X16069310Y6479286D01*
X16068395Y6475526D01*
X16065550Y6472834D01*
X16060877Y6471208D01*
X16054324Y6470650D01*
X16049447Y6470802D01*
X16038017Y6472224D01*
X16031463Y6473444D01*
X16031463Y6465316D01*
X16037306Y6464300D01*
X16042843Y6463588D01*
X16053054Y6463030D01*
X16060674Y6463284D01*
X16064280Y6463893D01*
X16069868Y6465265D01*
X16072916Y6466535D01*
X16075355Y6468211D01*
X16077539Y6470650D01*
X16079216Y6473748D01*
X16080130Y6477152D01*
X16080232Y6494018D01*
X16079978Y6496354D01*
X16079216Y6498336D01*
X16077946Y6499910D01*
X16076168Y6501130D01*
X16072357Y6502654D01*
X16067786Y6503670D01*
X16067786Y6504178D01*
X16069970Y6504584D01*
X16071900Y6505194D01*
X16073628Y6506057D01*
X16076371Y6508445D01*
X16077234Y6509816D01*
X16077793Y6511391D01*
X16077946Y6513068D01*
X16077946Y6527292D01*
X16077590Y6530390D01*
X16076472Y6532981D01*
X16074644Y6535216D01*
X16072104Y6536944D01*
X16068852Y6538163D01*
X16064738Y6539026D01*
X16059708Y6539585D01*
G37*
G36*
X16002000Y6538468D02*
G01*
X16001949Y6478168D01*
X16001441Y6474866D01*
X16000526Y6472783D01*
X15999866Y6471970D01*
X15997936Y6470904D01*
X15995091Y6470345D01*
X15991078Y6470142D01*
X15985337Y6470599D01*
X15978886Y6471920D01*
X15978886Y6464300D01*
X15984626Y6463334D01*
X15992601Y6463030D01*
X15999409Y6463436D01*
X16002152Y6463893D01*
X16004540Y6464554D01*
X16006572Y6465468D01*
X16008299Y6466636D01*
X16009721Y6468110D01*
X16011906Y6471869D01*
X16012617Y6474307D01*
X16013023Y6477203D01*
X16013176Y6480556D01*
X16013176Y6538468D01*
G37*
D16*
X15787116Y5415432D02*
G01*
X16295116Y5415432D01*
X16295116Y6431432D01*
X15787116Y6431432D01*
X15787116Y5415432D01*
M02*
