M48
METRIC,LZ,000.000
;FILE_FORMAT=3:3
;TYPE=PLATED
;Layer: PTH_Through
;EasyEDA v6.5.3, 2022-04-30 06:46:22
;ee3e3f8623474824adc305f6a8106e34,debd25b7e7f645e7808fdd9718494454,10
;Gerber Generator version 0.2
;Holesize 1 = 0.889 mm
T01C0.889
%
G05
G90
T01
X159141Y063044
X161681Y055424
X159141Y055424
X161681Y057964
X159141Y057964
X161681Y060504
X159141Y060504
X161681Y063044
X162433Y049530
X164922Y048575
X167411Y047617
X169903Y046663
X175905Y044011
X178395Y043055
X180885Y042099
X196342Y049911
X193929Y051181
X191643Y052578
X189357Y053848
X172113Y045686
X187071Y054991
M30
