G04 Layer: BottomSilkscreenLayer*
G04 EasyEDA v6.5.3, 2022-04-30 06:46:22*
G04 ee3e3f8623474824adc305f6a8106e34,debd25b7e7f645e7808fdd9718494454,10*
G04 Gerber Generator version 0.2*
G04 Scale: 100 percent, Rotated: No, Reflected: No *
G04 Dimensions in millimeters *
G04 leading zeros omitted , absolute positions ,4 integer and 5 decimal *
%FSLAX45Y45*%
%MOMM*%

%ADD16C,0.2032*%

%LPD*%
G36*
X19769683Y4142486D02*
G01*
X19760844Y4141571D01*
X19768159Y4071823D01*
X19776998Y4072788D01*
G37*
G36*
X19794626Y4140758D02*
G01*
X19785533Y4139793D01*
X19786498Y4130446D01*
X19795591Y4131411D01*
G37*
G36*
X19674433Y4132478D02*
G01*
X19665594Y4131564D01*
X19672909Y4061815D01*
X19681748Y4062780D01*
G37*
G36*
X19699376Y4130751D02*
G01*
X19690537Y4129836D01*
X19691502Y4120489D01*
X19700341Y4121404D01*
G37*
G36*
X19796404Y4123588D02*
G01*
X19787311Y4122623D01*
X19793153Y4067048D01*
X19793813Y4063339D01*
X19794829Y4060291D01*
X19796302Y4057853D01*
X19798131Y4056075D01*
X19800519Y4054906D01*
X19803414Y4054144D01*
X19806869Y4053890D01*
X19812254Y4054297D01*
X19815860Y4055160D01*
X19815251Y4060951D01*
X19812406Y4060393D01*
X19809510Y4060190D01*
X19807732Y4060342D01*
X19806259Y4060748D01*
X19804989Y4061409D01*
X19804024Y4062272D01*
X19803262Y4063593D01*
X19802652Y4065320D01*
G37*
G36*
X19579437Y4122470D02*
G01*
X19570344Y4121556D01*
X19577659Y4051808D01*
X19586752Y4052773D01*
G37*
G36*
X19604177Y4120743D02*
G01*
X19595287Y4119829D01*
X19596303Y4110482D01*
X19605142Y4111396D01*
G37*
G36*
X19736917Y4117746D02*
G01*
X19730466Y4117441D01*
X19720102Y4116019D01*
X19713346Y4114342D01*
X19714057Y4107789D01*
X19721677Y4109923D01*
X19728789Y4111142D01*
X19733209Y4111447D01*
X19736409Y4111396D01*
X19737628Y4111091D01*
X19739406Y4109872D01*
X19740524Y4107891D01*
X19741388Y4104894D01*
X19743674Y4083558D01*
X19743775Y4080256D01*
X19743267Y4077919D01*
X19741946Y4076242D01*
X19739711Y4074972D01*
X19736358Y4074058D01*
X19731736Y4073398D01*
X19724370Y4073042D01*
X19720610Y4073194D01*
X19716902Y4073601D01*
X19717562Y4067048D01*
X19724979Y4066641D01*
X19733158Y4067149D01*
X19740422Y4068165D01*
X19745401Y4069689D01*
X19747992Y4070959D01*
X19749973Y4072483D01*
X19751395Y4074718D01*
X19752462Y4077614D01*
X19752868Y4081018D01*
X19752716Y4085031D01*
X19750836Y4102709D01*
X19750278Y4106468D01*
X19749363Y4109567D01*
X19748144Y4112107D01*
X19746620Y4114037D01*
X19744639Y4115612D01*
X19742759Y4116679D01*
X19740829Y4117390D01*
G37*
G36*
X19701205Y4113580D02*
G01*
X19692366Y4112666D01*
X19698208Y4057091D01*
X19698817Y4053382D01*
X19699884Y4050284D01*
X19701306Y4047896D01*
X19703186Y4046118D01*
X19705523Y4044899D01*
X19708368Y4044187D01*
X19711720Y4043883D01*
X19717004Y4044289D01*
X19720661Y4045153D01*
X19720052Y4050944D01*
X19716292Y4050284D01*
X19714260Y4050182D01*
X19712482Y4050334D01*
X19711009Y4050741D01*
X19709790Y4051401D01*
X19708774Y4052265D01*
X19708012Y4053586D01*
X19707453Y4055313D01*
G37*
G36*
X19484238Y4112463D02*
G01*
X19475145Y4111548D01*
X19482460Y4041800D01*
X19491553Y4042765D01*
G37*
G36*
X19509181Y4110786D02*
G01*
X19500088Y4109821D01*
X19501053Y4100474D01*
X19510146Y4101439D01*
G37*
G36*
X19643090Y4107738D02*
G01*
X19637959Y4107687D01*
X19631914Y4107078D01*
X19625056Y4106011D01*
X19618147Y4104335D01*
X19618807Y4097782D01*
X19626478Y4099915D01*
X19633539Y4101084D01*
X19638111Y4101439D01*
X19641159Y4101388D01*
X19643445Y4100576D01*
X19645020Y4099001D01*
X19645833Y4096512D01*
X19646392Y4093006D01*
X19648576Y4071772D01*
X19648373Y4068927D01*
X19647509Y4066997D01*
X19645731Y4065524D01*
X19642988Y4064457D01*
X19638975Y4063695D01*
X19632828Y4063085D01*
X19629170Y4063034D01*
X19621906Y4063644D01*
X19622566Y4057040D01*
X19626072Y4056735D01*
X19633895Y4056786D01*
X19643902Y4057904D01*
X19646341Y4058412D01*
X19651624Y4060291D01*
X19653910Y4061663D01*
X19655485Y4063542D01*
X19656755Y4066082D01*
X19657618Y4069232D01*
X19657872Y4072991D01*
X19655891Y4092752D01*
X19655282Y4096461D01*
X19654316Y4099610D01*
X19653046Y4102100D01*
X19650506Y4104894D01*
X19648678Y4106214D01*
X19646747Y4107078D01*
G37*
G36*
X19605955Y4103573D02*
G01*
X19597116Y4102658D01*
X19602958Y4047083D01*
X19603567Y4043375D01*
X19604634Y4040276D01*
X19606056Y4037888D01*
X19607936Y4036110D01*
X19610273Y4034891D01*
X19613118Y4034180D01*
X19616521Y4033875D01*
X19620433Y4034078D01*
X19625411Y4035145D01*
X19624802Y4040936D01*
X19621957Y4040378D01*
X19619010Y4040174D01*
X19617283Y4040327D01*
X19615759Y4040733D01*
X19614540Y4041394D01*
X19613524Y4042257D01*
X19612762Y4043578D01*
X19612203Y4045305D01*
G37*
G36*
X19547840Y4097731D02*
G01*
X19542709Y4097680D01*
X19536664Y4097070D01*
X19529856Y4096004D01*
X19523151Y4094378D01*
X19523862Y4087774D01*
X19527621Y4088993D01*
X19534835Y4090619D01*
X19540778Y4091330D01*
X19544588Y4091482D01*
X19547179Y4091076D01*
X19549059Y4089857D01*
X19549770Y4088993D01*
X19550786Y4086555D01*
X19551396Y4083050D01*
X19553580Y4061815D01*
X19553224Y4058970D01*
X19552259Y4056989D01*
X19550481Y4055516D01*
X19547840Y4054500D01*
X19543826Y4053687D01*
X19537680Y4053078D01*
X19530415Y4053230D01*
X19526656Y4053586D01*
X19527367Y4047032D01*
X19530974Y4046728D01*
X19538746Y4046778D01*
X19548805Y4047896D01*
X19552412Y4048760D01*
X19555155Y4049725D01*
X19557796Y4050944D01*
X19559727Y4052468D01*
X19560946Y4054703D01*
X19562013Y4057599D01*
X19562622Y4061002D01*
X19562521Y4065015D01*
X19560641Y4082745D01*
X19560082Y4086453D01*
X19559168Y4089603D01*
X19557949Y4092092D01*
X19556374Y4094022D01*
X19554444Y4095597D01*
X19552513Y4096664D01*
X19550430Y4097375D01*
G37*
G36*
X19510959Y4093565D02*
G01*
X19501866Y4092651D01*
X19507708Y4037076D01*
X19508368Y4033367D01*
X19509384Y4030268D01*
X19510857Y4027881D01*
X19512686Y4026103D01*
X19515074Y4024884D01*
X19517969Y4024172D01*
X19521424Y4023918D01*
X19526808Y4024274D01*
X19530415Y4025137D01*
X19529806Y4030979D01*
X19526046Y4030319D01*
X19523913Y4030167D01*
X19522084Y4030319D01*
X19520560Y4030726D01*
X19519290Y4031386D01*
X19518426Y4032250D01*
X19517715Y4033570D01*
X19516852Y4037533D01*
G37*
G36*
X19447764Y4087723D02*
G01*
X19441414Y4087063D01*
X19434657Y4085996D01*
X19427901Y4084370D01*
X19428612Y4077766D01*
X19432422Y4078986D01*
X19439737Y4080611D01*
X19445681Y4081322D01*
X19450964Y4081424D01*
X19453047Y4080560D01*
X19454520Y4078986D01*
X19455536Y4076547D01*
X19456196Y4073042D01*
X19458330Y4051808D01*
X19458127Y4048963D01*
X19457822Y4047896D01*
X19456400Y4046220D01*
X19454266Y4045000D01*
X19450913Y4044035D01*
X19446290Y4043375D01*
X19438924Y4043070D01*
X19431457Y4043578D01*
X19432117Y4037025D01*
X19435724Y4036720D01*
X19443496Y4036771D01*
X19453707Y4037888D01*
X19458635Y4039209D01*
X19461327Y4040276D01*
X19463613Y4041648D01*
X19464528Y4042460D01*
X19465848Y4044746D01*
X19466763Y4047591D01*
X19467372Y4050995D01*
X19467271Y4055008D01*
X19465391Y4072686D01*
X19464832Y4076446D01*
X19463918Y4079595D01*
X19462699Y4082084D01*
X19461175Y4084015D01*
X19459194Y4085590D01*
X19457314Y4086656D01*
X19455180Y4087368D01*
X19452590Y4087723D01*
G37*
D16*
X19161353Y5035679D02*
G01*
X19163626Y5039616D01*
X19164236Y5049761D01*
X19162572Y5055971D01*
X19156972Y5064452D01*
X19141226Y5073543D01*
X19131079Y5074152D01*
X19124871Y5072489D01*
X19116390Y5066888D01*
X19111843Y5059017D01*
X19111234Y5048869D01*
X19112290Y5032514D01*
X19128927Y4970424D01*
X19073817Y5002242D01*
X19019032Y5107353D02*
G01*
X18971468Y5061333D01*
X18987541Y5125534D02*
G01*
X18971468Y5061333D01*
X18987541Y5125534D02*
G01*
X18939977Y5079514D01*
X18956047Y5143715D02*
G01*
X18939977Y5079514D01*
X18945976Y5186271D02*
G01*
X18939766Y5184607D01*
X18938102Y5190817D01*
X18944313Y5192481D01*
X18945976Y5186271D01*
X18926131Y5160987D02*
G01*
X18894313Y5105877D01*
X18896213Y5178262D02*
G01*
X18864397Y5123152D01*
X18882578Y5154642D02*
G01*
X18885458Y5168724D01*
X18882131Y5181142D01*
X18876530Y5189626D01*
X18864722Y5196443D01*
X18825105Y5187825D02*
G01*
X18777866Y5215097D01*
X18782413Y5222971D01*
X18790894Y5228569D01*
X18797104Y5230233D01*
X18807249Y5229626D01*
X18819058Y5222806D01*
X18824658Y5214325D01*
X18827986Y5201907D01*
X18825105Y5187825D01*
X18820559Y5179951D01*
X18809804Y5170413D01*
X18797386Y5167086D01*
X18787242Y5167696D01*
X18775431Y5174515D01*
X18769830Y5182996D01*
X18766502Y5195415D01*
X18757041Y5248114D02*
G01*
X18758705Y5241907D01*
X18752494Y5240243D01*
X18750831Y5246451D01*
X18757041Y5248114D01*
X18741130Y5220561D02*
G01*
X18742794Y5214350D01*
X18736586Y5212687D01*
X18734923Y5218897D01*
X18741130Y5220561D01*
X18671656Y5318406D02*
G01*
X18673930Y5322343D01*
X18674537Y5332488D01*
X18672873Y5338698D01*
X18667275Y5347180D01*
X18651527Y5356270D01*
X18641382Y5356880D01*
X18635172Y5355216D01*
X18626691Y5349615D01*
X18622147Y5341744D01*
X18621537Y5331597D01*
X18622591Y5315242D01*
X18639228Y5253151D01*
X18584118Y5284970D01*
X18566500Y5405361D02*
G01*
X18574047Y5327525D01*
X18514999Y5361614D01*
X18566500Y5405361D02*
G01*
X18518774Y5322696D01*
X18504928Y5404170D02*
G01*
X18449490Y5362696D01*
X18457689Y5431444D02*
G01*
X18449490Y5362696D01*
X18396087Y5524743D02*
G01*
X18323359Y5398777D01*
X18238464Y5579008D02*
G01*
X18250882Y5582335D01*
X18264964Y5579452D01*
X18280712Y5570362D01*
X18290247Y5559607D01*
X18293575Y5547189D01*
X18289031Y5539315D01*
X18280547Y5533715D01*
X18274339Y5532051D01*
X18264192Y5532661D01*
X18236029Y5538424D01*
X18225884Y5539033D01*
X18219674Y5537370D01*
X18211192Y5531769D01*
X18204375Y5519961D01*
X18207702Y5507542D01*
X18217238Y5496788D01*
X18232983Y5487695D01*
X18247067Y5484815D01*
X18259485Y5488142D01*
X19067980Y4883043D02*
G01*
X19024681Y4908044D01*
X19030116Y4862916D01*
X19018308Y4869733D01*
X19008161Y4870343D01*
X19001953Y4868679D01*
X18991199Y4859141D01*
X18986652Y4851270D01*
X18983772Y4837188D01*
X18987099Y4824770D01*
X18996634Y4814013D01*
X19008445Y4807196D01*
X19022527Y4804316D01*
X19028735Y4805979D01*
X19037218Y4811577D01*
X18918232Y4932761D02*
G01*
X18870668Y4886741D01*
X18886741Y4950942D02*
G01*
X18870668Y4886741D01*
X18886741Y4950942D02*
G01*
X18839177Y4904922D01*
X18855248Y4969126D02*
G01*
X18839177Y4904922D01*
X18845176Y5011681D02*
G01*
X18838966Y5010017D01*
X18837302Y5016225D01*
X18843513Y5017889D01*
X18845176Y5011681D01*
X18825331Y4986398D02*
G01*
X18793513Y4931288D01*
X18795413Y5003670D02*
G01*
X18763594Y4948560D01*
X18781778Y4980051D02*
G01*
X18784658Y4994135D01*
X18781331Y5006553D01*
X18775730Y5015034D01*
X18763922Y5021851D01*
X18724305Y5013233D02*
G01*
X18677067Y5040505D01*
X18681613Y5048379D01*
X18690094Y5053980D01*
X18696304Y5055643D01*
X18706449Y5055034D01*
X18718258Y5048216D01*
X18723858Y5039733D01*
X18727186Y5027315D01*
X18724305Y5013233D01*
X18719759Y5005362D01*
X18709004Y4995824D01*
X18696586Y4992496D01*
X18686439Y4993106D01*
X18674631Y4999923D01*
X18669030Y5008405D01*
X18665703Y5020823D01*
X18620011Y5141681D02*
G01*
X18572281Y5059014D01*
X18620011Y5141681D02*
G01*
X18584583Y5162135D01*
X18570498Y5165016D01*
X18564291Y5163352D01*
X18555807Y5157751D01*
X18548990Y5145943D01*
X18548380Y5135798D01*
X18550044Y5129588D01*
X18559581Y5118834D01*
X18595009Y5098379D01*
X18538918Y5188498D02*
G01*
X18471509Y5117195D01*
X18499554Y5211226D02*
G01*
X18471509Y5117195D01*
X18499554Y5211226D02*
G01*
X18432145Y5139923D01*
X18460189Y5233954D02*
G01*
X18432145Y5139923D01*
X18434207Y5248953D02*
G01*
X18386480Y5166286D01*
X18434207Y5248953D02*
G01*
X18354989Y5184470D01*
X18371225Y5285318D02*
G01*
X18354989Y5184470D01*
X18371225Y5285318D02*
G01*
X18323496Y5202651D01*
X18320852Y5267162D02*
G01*
X18322516Y5260952D01*
X18316308Y5259288D01*
X18314644Y5265498D01*
X18320852Y5267162D01*
X18304944Y5239605D02*
G01*
X18306608Y5233398D01*
X18300397Y5231734D01*
X18298734Y5237942D01*
X18304944Y5239605D01*
X18235467Y5337451D02*
G01*
X18237741Y5341388D01*
X18238350Y5351536D01*
X18236686Y5357743D01*
X18231086Y5366227D01*
X18215340Y5375318D01*
X18205193Y5375925D01*
X18198985Y5374261D01*
X18190504Y5368663D01*
X18185958Y5360789D01*
X18185348Y5350644D01*
X18186402Y5334289D01*
X18203042Y5272196D01*
X18147931Y5304015D01*
X18130311Y5424408D02*
G01*
X18137858Y5346570D01*
X18078810Y5380662D01*
X18130311Y5424408D02*
G01*
X18082585Y5341741D01*
X18068739Y5423217D02*
G01*
X18013304Y5381741D01*
X18021503Y5450489D02*
G01*
X18013304Y5381741D01*
X17959900Y5543791D02*
G01*
X17887172Y5417822D01*
X17793794Y5592452D02*
G01*
X17802278Y5598053D01*
X17814696Y5601380D01*
X17824841Y5600771D01*
X17840586Y5591680D01*
X17846187Y5583199D01*
X17849514Y5570781D01*
X17848905Y5560634D01*
X17846024Y5546552D01*
X17834660Y5526869D01*
X17823906Y5517334D01*
X17815425Y5511733D01*
X17803004Y5508406D01*
X17792860Y5509013D01*
X17777114Y5518106D01*
X17771513Y5526587D01*
X17768186Y5539005D01*
X17768796Y5549150D01*
X17775613Y5560961D01*
X17795295Y5549597D02*
G01*
X17775613Y5560961D01*
X17727648Y5677880D02*
G01*
X17654920Y5551914D01*
X17570025Y5732145D02*
G01*
X17582443Y5735472D01*
X17596525Y5732589D01*
X17612271Y5723498D01*
X17621808Y5712744D01*
X17625136Y5700326D01*
X17620589Y5692452D01*
X17612108Y5686851D01*
X17605898Y5685188D01*
X17595753Y5685797D01*
X17567589Y5691560D01*
X17557442Y5692170D01*
X17551234Y5690506D01*
X17542751Y5684906D01*
X17535933Y5673097D01*
X17539261Y5660679D01*
X17548799Y5649925D01*
X17564544Y5640831D01*
X17578626Y5637951D01*
X17591044Y5641279D01*
X17471776Y5825609D02*
G01*
X17475103Y5813191D01*
X17476157Y5796836D01*
X17474940Y5776544D01*
X17467513Y5754588D01*
X17458423Y5738842D01*
X17443122Y5721433D01*
X17426157Y5710232D01*
X17411466Y5702968D01*
X17399048Y5699640D01*
X17436703Y5824862D02*
G01*
X17388977Y5742195D01*
X17436703Y5824862D02*
G01*
X17401275Y5845317D01*
X17387194Y5848200D01*
X17380983Y5846536D01*
X17372502Y5840935D01*
X17365685Y5829124D01*
X17365075Y5818979D01*
X17366739Y5812769D01*
X17376277Y5802015D01*
X17411705Y5781560D01*
X17355614Y5871679D02*
G01*
X17288202Y5800379D01*
X17316249Y5894407D02*
G01*
X17288202Y5800379D01*
X17316249Y5894407D02*
G01*
X17248837Y5823104D01*
X17276884Y5917135D02*
G01*
X17248837Y5823104D01*
X17250902Y5932134D02*
G01*
X17203176Y5849470D01*
X17250902Y5932134D02*
G01*
X17171682Y5867651D01*
X17187918Y5968499D02*
G01*
X17171682Y5867651D01*
X17187918Y5968499D02*
G01*
X17140191Y5885832D01*
X17171029Y5999243D02*
G01*
X17158611Y5995916D01*
X17143920Y5988654D01*
X17126955Y5977453D01*
X17111654Y5960043D01*
X17102564Y5944298D01*
X17095137Y5922342D01*
X17093920Y5902050D01*
X17094974Y5885695D01*
X17098302Y5873277D01*
X18967180Y4708453D02*
G01*
X18923881Y4733455D01*
X18929316Y4688326D01*
X18917508Y4695144D01*
X18907361Y4695753D01*
X18901153Y4694090D01*
X18890399Y4684552D01*
X18885852Y4676678D01*
X18882972Y4662596D01*
X18886299Y4650178D01*
X18895834Y4639424D01*
X18907645Y4632606D01*
X18921727Y4629724D01*
X18927935Y4631387D01*
X18936418Y4636988D01*
X18817432Y4758171D02*
G01*
X18769868Y4712152D01*
X18785941Y4776353D02*
G01*
X18769868Y4712152D01*
X18785941Y4776353D02*
G01*
X18738375Y4730333D01*
X18754448Y4794534D02*
G01*
X18738375Y4730333D01*
X18744377Y4837089D02*
G01*
X18738166Y4835425D01*
X18736503Y4841636D01*
X18742713Y4843299D01*
X18744377Y4837089D01*
X18724532Y4811806D02*
G01*
X18692713Y4756696D01*
X18694613Y4829081D02*
G01*
X18662794Y4773970D01*
X18680978Y4805461D02*
G01*
X18683859Y4819543D01*
X18680531Y4831961D01*
X18674930Y4840444D01*
X18663122Y4847262D01*
X18623506Y4838644D02*
G01*
X18576267Y4865916D01*
X18580813Y4873790D01*
X18589294Y4879388D01*
X18595505Y4881051D01*
X18605649Y4880444D01*
X18617458Y4873625D01*
X18623059Y4865143D01*
X18626386Y4852725D01*
X18623506Y4838644D01*
X18618959Y4830770D01*
X18608205Y4821232D01*
X18595787Y4817905D01*
X18585639Y4818514D01*
X18573831Y4825331D01*
X18568230Y4833815D01*
X18564903Y4846233D01*
X18507400Y4973909D02*
G01*
X18468764Y4906987D01*
X18458009Y4897452D01*
X18447865Y4898059D01*
X18439991Y4902606D01*
X18503300Y4939535D02*
G01*
X18475746Y4955443D01*
X18398591Y4999989D02*
G01*
X18366773Y4944879D01*
X18391771Y4988179D02*
G01*
X18404192Y4991506D01*
X18414337Y4990899D01*
X18426145Y4984079D01*
X18431746Y4975598D01*
X18435073Y4963180D01*
X18432193Y4949098D01*
X18427646Y4941224D01*
X18416892Y4931689D01*
X18404474Y4928359D01*
X18394326Y4928969D01*
X18382518Y4935788D01*
X18376917Y4944270D01*
X18373590Y4956688D01*
X18318553Y5030452D02*
G01*
X18330971Y5033779D01*
X18341119Y5033170D01*
X18352927Y5026352D01*
X18358528Y5017871D01*
X18361855Y5005453D01*
X18358972Y4991371D01*
X18354428Y4983497D01*
X18343674Y4973960D01*
X18331256Y4970632D01*
X18321108Y4971242D01*
X18309300Y4978059D01*
X18303699Y4986543D01*
X18300372Y4998961D01*
X18315299Y5084818D02*
G01*
X18267573Y5002151D01*
X18290301Y5041516D02*
G01*
X18285310Y5060144D01*
X18279709Y5068625D01*
X18267900Y5075443D01*
X18257753Y5076052D01*
X18246999Y5066515D01*
X18224271Y5027150D01*
X18221627Y5091661D02*
G01*
X18223290Y5085453D01*
X18217083Y5083789D01*
X18215419Y5089997D01*
X18221627Y5091661D01*
X18205719Y5064107D02*
G01*
X18207382Y5057896D01*
X18201172Y5056233D01*
X18199508Y5062443D01*
X18205719Y5064107D01*
X18136242Y5161953D02*
G01*
X18138515Y5165890D01*
X18139125Y5176034D01*
X18137461Y5182245D01*
X18131861Y5190726D01*
X18116115Y5199816D01*
X18105968Y5200426D01*
X18099760Y5198762D01*
X18091277Y5193162D01*
X18086732Y5185290D01*
X18086123Y5175143D01*
X18087177Y5158788D01*
X18103816Y5096697D01*
X18048704Y5128513D01*
X18031086Y5248907D02*
G01*
X18038632Y5171069D01*
X17979585Y5205161D01*
X18031086Y5248907D02*
G01*
X17983360Y5166243D01*
X17969514Y5247716D02*
G01*
X17914076Y5206243D01*
X17922278Y5274988D02*
G01*
X17914076Y5206243D01*
X17860675Y5368289D02*
G01*
X17787947Y5242323D01*
X17703053Y5422554D02*
G01*
X17715471Y5425881D01*
X17729553Y5422999D01*
X17745298Y5413908D01*
X17754836Y5403154D01*
X17758163Y5390735D01*
X17753617Y5382861D01*
X17745135Y5377261D01*
X17738925Y5375597D01*
X17728780Y5376207D01*
X17700614Y5381970D01*
X17690470Y5382580D01*
X17684262Y5380916D01*
X17675778Y5375315D01*
X17668961Y5363507D01*
X17672288Y5351089D01*
X17681826Y5340332D01*
X17697571Y5331241D01*
X17711653Y5328361D01*
X17724071Y5331688D01*
X17632357Y5500108D02*
G01*
X17559632Y5374142D01*
X17505172Y5552544D02*
G01*
X17488938Y5451695D01*
X17505172Y5552544D02*
G01*
X17425954Y5488061D01*
X17493038Y5486069D02*
G01*
X17453673Y5508797D01*
X17368613Y5652381D02*
G01*
X17371941Y5639963D01*
X17372995Y5623608D01*
X17371778Y5603316D01*
X17364351Y5581362D01*
X17355261Y5565614D01*
X17339960Y5548205D01*
X17322995Y5537006D01*
X17308306Y5529742D01*
X17295886Y5526415D01*
X17305987Y5667545D02*
G01*
X17258261Y5584878D01*
X17333541Y5651634D02*
G01*
X17278431Y5683453D01*
X17189305Y5698169D02*
G01*
X17157486Y5643059D01*
X17182485Y5686361D02*
G01*
X17194905Y5689688D01*
X17205050Y5689079D01*
X17216859Y5682261D01*
X17222459Y5673780D01*
X17225787Y5661362D01*
X17222906Y5647278D01*
X17218360Y5639407D01*
X17207605Y5629869D01*
X17195187Y5626541D01*
X17185040Y5627151D01*
X17173232Y5633968D01*
X17167631Y5642452D01*
X17164304Y5654870D01*
X17109267Y5728634D02*
G01*
X17121685Y5731962D01*
X17131832Y5731352D01*
X17143641Y5724535D01*
X17149241Y5716054D01*
X17152569Y5703633D01*
X17149686Y5689551D01*
X17145142Y5681680D01*
X17134387Y5672142D01*
X17121969Y5668815D01*
X17111822Y5669424D01*
X17100014Y5676242D01*
X17094413Y5684723D01*
X17091085Y5697143D01*
X17106013Y5782998D02*
G01*
X17058286Y5700334D01*
X17081014Y5739698D02*
G01*
X17076023Y5758324D01*
X17070423Y5766808D01*
X17058614Y5773625D01*
X17048467Y5774235D01*
X17037712Y5764697D01*
X17014985Y5725332D01*
X17045823Y5838746D02*
G01*
X17033405Y5835418D01*
X17018713Y5828154D01*
X17001749Y5816953D01*
X16986450Y5799543D01*
X16977357Y5783798D01*
X16969930Y5761842D01*
X16968713Y5741550D01*
X16969767Y5725195D01*
X16973095Y5712777D01*
X18834889Y4552045D02*
G01*
X18842436Y4474207D01*
X18783388Y4508296D01*
X18834889Y4552045D02*
G01*
X18787163Y4469378D01*
X18712695Y4585853D02*
G01*
X18665131Y4539833D01*
X18681204Y4604034D02*
G01*
X18665131Y4539833D01*
X18681204Y4604034D02*
G01*
X18633640Y4558014D01*
X18649711Y4622215D02*
G01*
X18633640Y4558014D01*
X18639640Y4664770D02*
G01*
X18633432Y4663107D01*
X18631768Y4669317D01*
X18637976Y4670981D01*
X18639640Y4664770D01*
X18619795Y4639490D02*
G01*
X18587976Y4584379D01*
X18589876Y4656762D02*
G01*
X18558060Y4601651D01*
X18576241Y4633142D02*
G01*
X18579122Y4647224D01*
X18575794Y4659645D01*
X18570193Y4668126D01*
X18558385Y4674943D01*
X18518769Y4666325D02*
G01*
X18471530Y4693597D01*
X18476076Y4701471D01*
X18484557Y4707072D01*
X18490768Y4708735D01*
X18500912Y4708126D01*
X18512721Y4701308D01*
X18518322Y4692825D01*
X18521649Y4680407D01*
X18518769Y4666325D01*
X18514222Y4658451D01*
X18503468Y4648916D01*
X18491050Y4645588D01*
X18480905Y4646195D01*
X18469094Y4653015D01*
X18463493Y4661496D01*
X18460166Y4673914D01*
X18396008Y4826426D02*
G01*
X18399335Y4814008D01*
X18400392Y4797653D01*
X18399173Y4777361D01*
X18391746Y4755408D01*
X18382655Y4739660D01*
X18367354Y4722251D01*
X18350392Y4711052D01*
X18335701Y4703787D01*
X18323283Y4700460D01*
X18360938Y4825682D02*
G01*
X18313209Y4743015D01*
X18360938Y4825682D02*
G01*
X18325508Y4846137D01*
X18311426Y4849017D01*
X18305218Y4847353D01*
X18296735Y4841753D01*
X18289917Y4829944D01*
X18289308Y4819797D01*
X18290971Y4813589D01*
X18300509Y4802835D01*
X18335937Y4782380D01*
X18279846Y4872499D02*
G01*
X18212437Y4801196D01*
X18240481Y4895227D02*
G01*
X18212437Y4801196D01*
X18240481Y4895227D02*
G01*
X18173072Y4823924D01*
X18201116Y4917953D02*
G01*
X18173072Y4823924D01*
X18175135Y4932954D02*
G01*
X18127408Y4850287D01*
X18175135Y4932954D02*
G01*
X18095917Y4868468D01*
X18112153Y4969316D02*
G01*
X18095917Y4868468D01*
X18112153Y4969316D02*
G01*
X18064424Y4886652D01*
X17962402Y5019034D02*
G01*
X17930583Y4963924D01*
X17955585Y5007226D02*
G01*
X17968003Y5010553D01*
X17978147Y5009944D01*
X17989958Y5003126D01*
X17995559Y4994643D01*
X17998887Y4982225D01*
X17996004Y4968143D01*
X17991457Y4960269D01*
X17980703Y4950734D01*
X17968285Y4947406D01*
X17958140Y4948013D01*
X17946329Y4954833D01*
X17940731Y4963314D01*
X17937403Y4975732D01*
X17936420Y5034036D02*
G01*
X17904604Y4978923D01*
X17927330Y5018288D02*
G01*
X17922339Y5036916D01*
X17916740Y5045397D01*
X17904929Y5052217D01*
X17894785Y5052827D01*
X17884030Y5043289D01*
X17861302Y5003924D01*
X17835811Y5128861D02*
G01*
X17788084Y5046197D01*
X17813083Y5089499D02*
G01*
X17825501Y5092827D01*
X17835648Y5092217D01*
X17847457Y5085397D01*
X17853058Y5076916D01*
X17856385Y5064498D01*
X17853502Y5050416D01*
X17848958Y5042542D01*
X17838204Y5033007D01*
X17825786Y5029680D01*
X17815638Y5030287D01*
X17803830Y5037107D01*
X17798229Y5045588D01*
X17794902Y5058006D01*
X17721653Y5194772D02*
G01*
X17673927Y5112105D01*
X17749207Y5178861D02*
G01*
X17694097Y5210680D01*
X17604971Y5225399D02*
G01*
X17573152Y5170286D01*
X17598151Y5213588D02*
G01*
X17610571Y5216916D01*
X17620716Y5216306D01*
X17632525Y5209489D01*
X17638125Y5201008D01*
X17641453Y5188590D01*
X17638572Y5174508D01*
X17634026Y5166634D01*
X17623271Y5157096D01*
X17610853Y5153769D01*
X17600706Y5154378D01*
X17588898Y5161196D01*
X17583297Y5169679D01*
X17579969Y5182097D01*
X17524933Y5255861D02*
G01*
X17537351Y5259189D01*
X17547498Y5258579D01*
X17559307Y5251762D01*
X17564907Y5243281D01*
X17568235Y5230860D01*
X17565352Y5216779D01*
X17560808Y5208907D01*
X17550053Y5199369D01*
X17537635Y5196042D01*
X17527488Y5196652D01*
X17515679Y5203469D01*
X17510079Y5211950D01*
X17506751Y5224371D01*
X17521679Y5310225D02*
G01*
X17473952Y5227561D01*
X17496680Y5266926D02*
G01*
X17491689Y5285552D01*
X17486088Y5294035D01*
X17474280Y5300853D01*
X17464133Y5301462D01*
X17453378Y5291924D01*
X17430650Y5252559D01*
X17461489Y5365973D02*
G01*
X17449071Y5362646D01*
X17434379Y5355381D01*
X17417415Y5344180D01*
X17402116Y5326771D01*
X17393025Y5311025D01*
X17385596Y5289069D01*
X17384379Y5268777D01*
X17385433Y5252422D01*
X17388761Y5240004D01*
X17374471Y5347980D02*
G01*
X17376134Y5341769D01*
X17369924Y5340106D01*
X17368260Y5346316D01*
X17374471Y5347980D01*
X17358563Y5320423D02*
G01*
X17360226Y5314215D01*
X17354016Y5312552D01*
X17352352Y5318760D01*
X17358563Y5320423D01*
X17289086Y5418272D02*
G01*
X17291359Y5422209D01*
X17291969Y5432353D01*
X17290305Y5438564D01*
X17284705Y5447045D01*
X17268959Y5456135D01*
X17258812Y5456745D01*
X17252604Y5455081D01*
X17244120Y5449481D01*
X17239576Y5441607D01*
X17238967Y5431462D01*
X17240021Y5415107D01*
X17256658Y5353014D01*
X17201548Y5384833D01*
X17183930Y5505226D02*
G01*
X17191476Y5427388D01*
X17132429Y5461480D01*
X17183930Y5505226D02*
G01*
X17136203Y5422559D01*
X17122358Y5504035D02*
G01*
X17066920Y5462559D01*
X17075119Y5531307D02*
G01*
X17066920Y5462559D01*
X17013516Y5624609D02*
G01*
X16940791Y5498642D01*
X16847413Y5673272D02*
G01*
X16855894Y5678871D01*
X16868312Y5682198D01*
X16878460Y5681591D01*
X16894205Y5672500D01*
X16899806Y5664017D01*
X16903133Y5651599D01*
X16902523Y5641454D01*
X16899643Y5627372D01*
X16888279Y5607690D01*
X16877525Y5598152D01*
X16869041Y5592551D01*
X16856623Y5589224D01*
X16846478Y5589833D01*
X16830733Y5598924D01*
X16825132Y5607405D01*
X16821805Y5619823D01*
X16822412Y5629970D01*
X16829232Y5641779D01*
X16848914Y5630415D02*
G01*
X16829232Y5641779D01*
X16781264Y5758700D02*
G01*
X16708539Y5632731D01*
X16623642Y5812962D02*
G01*
X16636062Y5816290D01*
X16650144Y5813409D01*
X16665889Y5804316D01*
X16675427Y5793562D01*
X16678755Y5781144D01*
X16674208Y5773272D01*
X16665727Y5767671D01*
X16659517Y5766008D01*
X16649372Y5766617D01*
X16621206Y5772381D01*
X16611061Y5772988D01*
X16604851Y5771324D01*
X16596370Y5765723D01*
X16589552Y5753915D01*
X16592880Y5741497D01*
X16602415Y5730742D01*
X16618163Y5721652D01*
X16632245Y5718769D01*
X16644663Y5722096D01*
X16552948Y5890519D02*
G01*
X16480223Y5764550D01*
X16425763Y5942954D02*
G01*
X16409530Y5842106D01*
X16425763Y5942954D02*
G01*
X16346545Y5878469D01*
X16413629Y5876480D02*
G01*
X16374264Y5899205D01*
X18773454Y4354725D02*
G01*
X18767244Y4353062D01*
X18765580Y4359272D01*
X18771791Y4360936D01*
X18773454Y4354725D01*
X18753609Y4329445D02*
G01*
X18721791Y4274334D01*
X18708108Y4392455D02*
G01*
X18715982Y4387908D01*
X18721583Y4379427D01*
X18718700Y4365345D01*
X18680064Y4298424D01*
X18723691Y4346717D02*
G01*
X18696137Y4362625D01*
X18601662Y4417171D02*
G01*
X18546224Y4375696D01*
X18554423Y4444443D02*
G01*
X18546224Y4375696D01*
X18545004Y4355406D01*
X18548332Y4342988D01*
X18553932Y4334504D01*
X18557869Y4332231D01*
X18508759Y4470808D02*
G01*
X18514359Y4462325D01*
X18517687Y4449907D01*
X18514806Y4435825D01*
X18510260Y4427951D01*
X18499505Y4418416D01*
X18487087Y4415088D01*
X18476942Y4415696D01*
X18465131Y4422515D01*
X18459531Y4430996D01*
X18456203Y4443415D01*
X18459086Y4457496D01*
X18463630Y4465370D01*
X18474385Y4474908D01*
X18486805Y4478235D01*
X18496950Y4477626D01*
X18508759Y4470808D01*
X18451286Y4503988D02*
G01*
X18428561Y4464624D01*
X18417806Y4455088D01*
X18407659Y4455698D01*
X18395850Y4462515D01*
X18390250Y4470996D01*
X18385259Y4489625D01*
X18407987Y4528990D02*
G01*
X18376168Y4473879D01*
X18274146Y4606262D02*
G01*
X18242328Y4551151D01*
X18267326Y4594453D02*
G01*
X18279745Y4597780D01*
X18289892Y4597171D01*
X18301700Y4590354D01*
X18307301Y4581870D01*
X18310628Y4569452D01*
X18307745Y4555370D01*
X18303201Y4547499D01*
X18292447Y4537961D01*
X18280029Y4534634D01*
X18269882Y4535243D01*
X18258073Y4542061D01*
X18252473Y4550542D01*
X18249145Y4562960D01*
X18248165Y4621263D02*
G01*
X18216346Y4566152D01*
X18234527Y4597643D02*
G01*
X18237410Y4611725D01*
X18234083Y4624143D01*
X18228482Y4632627D01*
X18216674Y4639444D01*
X18177055Y4630826D02*
G01*
X18129818Y4658098D01*
X18134363Y4665972D01*
X18142846Y4671570D01*
X18149054Y4673234D01*
X18159201Y4672627D01*
X18171010Y4665807D01*
X18176610Y4657326D01*
X18179938Y4644908D01*
X18177055Y4630826D01*
X18172511Y4622952D01*
X18161756Y4613414D01*
X18149336Y4610087D01*
X18139191Y4610696D01*
X18127383Y4617514D01*
X18121782Y4625997D01*
X18118454Y4638415D01*
X18056852Y4731717D02*
G01*
X18034124Y4692352D01*
X18023370Y4682815D01*
X18013225Y4683424D01*
X18001414Y4690242D01*
X17995813Y4698725D01*
X17990822Y4717351D01*
X18013550Y4756716D02*
G01*
X17981731Y4701606D01*
X17937449Y4784907D02*
G01*
X17945933Y4790508D01*
X17960014Y4787625D01*
X17971823Y4780808D01*
X17981361Y4770053D01*
X17980751Y4759906D01*
X17972270Y4754308D01*
X17962123Y4754915D01*
X17940169Y4762342D01*
X17930022Y4762952D01*
X17921541Y4757351D01*
X17919268Y4753416D01*
X17918661Y4743269D01*
X17928196Y4732515D01*
X17940007Y4725697D01*
X17954089Y4722815D01*
X17962570Y4728415D01*
X17934198Y4839271D02*
G01*
X17927988Y4837607D01*
X17926324Y4843818D01*
X17932534Y4845481D01*
X17934198Y4839271D01*
X17914350Y4813990D02*
G01*
X17882532Y4758877D01*
X17884434Y4831262D02*
G01*
X17852616Y4776152D01*
X17875343Y4815517D02*
G01*
X17870352Y4834143D01*
X17864752Y4842626D01*
X17852943Y4849444D01*
X17842796Y4850053D01*
X17832042Y4840516D01*
X17809314Y4801151D01*
X17767914Y4898534D02*
G01*
X17731552Y4835550D01*
X17728669Y4821468D01*
X17730332Y4815260D01*
X17735933Y4806777D01*
X17747741Y4799959D01*
X17757889Y4799350D01*
X17761097Y4886726D02*
G01*
X17773515Y4890053D01*
X17783660Y4889444D01*
X17795471Y4882626D01*
X17801069Y4874143D01*
X17804396Y4861725D01*
X17801516Y4847643D01*
X17796969Y4839771D01*
X17786215Y4830234D01*
X17773797Y4826906D01*
X17763652Y4827516D01*
X17751841Y4834333D01*
X17746240Y4842814D01*
X17742913Y4855232D01*
X17634074Y4975809D02*
G01*
X17602255Y4920696D01*
X17627257Y4963998D02*
G01*
X17639675Y4967325D01*
X17649819Y4966715D01*
X17661630Y4959898D01*
X17667229Y4951417D01*
X17670556Y4938999D01*
X17667676Y4924915D01*
X17663129Y4917043D01*
X17652375Y4907506D01*
X17639957Y4904178D01*
X17629812Y4904788D01*
X17618001Y4911605D01*
X17612400Y4920089D01*
X17609073Y4932507D01*
X17516142Y5080635D02*
G01*
X17555507Y5057909D01*
X17538989Y5020208D01*
X17537325Y5026416D01*
X17527788Y5037170D01*
X17515979Y5043990D01*
X17501897Y5046870D01*
X17489479Y5043543D01*
X17478725Y5034008D01*
X17474178Y5026134D01*
X17471298Y5012052D01*
X17474625Y4999634D01*
X17484161Y4988880D01*
X17495972Y4982060D01*
X17510053Y4979179D01*
X17516261Y4980843D01*
X17524745Y4986444D01*
X17466381Y5072626D02*
G01*
X17410943Y5031150D01*
X17419142Y5099898D02*
G01*
X17410943Y5031150D01*
X17316958Y5195636D02*
G01*
X17324829Y5191089D01*
X17330430Y5182608D01*
X17327549Y5168526D01*
X17288911Y5101605D01*
X17332540Y5149898D02*
G01*
X17304984Y5165808D01*
X17227829Y5210352D02*
G01*
X17196010Y5155242D01*
X17221012Y5198544D02*
G01*
X17233430Y5201871D01*
X17243574Y5201262D01*
X17255385Y5194444D01*
X17260984Y5185961D01*
X17264313Y5173543D01*
X17261431Y5159461D01*
X17256884Y5151589D01*
X17246130Y5142052D01*
X17233712Y5138724D01*
X17223567Y5139334D01*
X17211756Y5146151D01*
X17206158Y5154632D01*
X17202830Y5167050D01*
X17201847Y5225354D02*
G01*
X17170031Y5170243D01*
X17192757Y5209608D02*
G01*
X17187765Y5228234D01*
X17182165Y5236718D01*
X17170356Y5243535D01*
X17160212Y5244144D01*
X17149457Y5234607D01*
X17126729Y5195242D01*
X18660844Y4186953D02*
G01*
X18622208Y4120034D01*
X18611453Y4110497D01*
X18601309Y4111106D01*
X18593434Y4115650D01*
X18656744Y4152579D02*
G01*
X18629190Y4168490D01*
X18615182Y4213318D02*
G01*
X18567455Y4130652D01*
X18590181Y4170017D02*
G01*
X18585190Y4188645D01*
X18579589Y4197126D01*
X18567781Y4203943D01*
X18557636Y4204553D01*
X18546881Y4195015D01*
X18524153Y4155650D01*
X18516353Y4202142D02*
G01*
X18469117Y4229417D01*
X18473661Y4237288D01*
X18482144Y4242889D01*
X18488352Y4244553D01*
X18498499Y4243943D01*
X18510308Y4237126D01*
X18515909Y4228645D01*
X18519236Y4216224D01*
X18516353Y4202142D01*
X18511809Y4194271D01*
X18501055Y4184733D01*
X18488637Y4181406D01*
X18478489Y4182016D01*
X18466681Y4188833D01*
X18461080Y4197316D01*
X18457753Y4209735D01*
X18456772Y4268035D02*
G01*
X18424954Y4212925D01*
X18447682Y4252290D02*
G01*
X18442691Y4270916D01*
X18437090Y4279399D01*
X18425279Y4286216D01*
X18415134Y4286826D01*
X18404380Y4277288D01*
X18381652Y4237923D01*
X18276747Y4356227D02*
G01*
X18285231Y4361825D01*
X18299313Y4358944D01*
X18311121Y4352127D01*
X18320659Y4341370D01*
X18320049Y4331225D01*
X18311568Y4325625D01*
X18301423Y4326234D01*
X18279468Y4333661D01*
X18269320Y4334271D01*
X18260839Y4328670D01*
X18258566Y4324733D01*
X18257959Y4314588D01*
X18267494Y4303834D01*
X18279305Y4297014D01*
X18293387Y4294134D01*
X18301868Y4299734D01*
X18257586Y4383034D02*
G01*
X18210022Y4337014D01*
X18226095Y4401218D02*
G01*
X18210022Y4337014D01*
X18226095Y4401218D02*
G01*
X18178531Y4355198D01*
X18194601Y4419399D02*
G01*
X18178531Y4355198D01*
X18121383Y4461672D02*
G01*
X18089565Y4406562D01*
X18114566Y4449861D02*
G01*
X18126984Y4453188D01*
X18137129Y4452581D01*
X18148940Y4445762D01*
X18154540Y4437280D01*
X18157868Y4424862D01*
X18154985Y4410781D01*
X18150441Y4402907D01*
X18139684Y4393369D01*
X18127266Y4390042D01*
X18117121Y4390651D01*
X18105313Y4397468D01*
X18099712Y4405952D01*
X18096384Y4418370D01*
X18095404Y4476671D02*
G01*
X18047675Y4394006D01*
X18088584Y4464862D02*
G01*
X18085257Y4477280D01*
X18079656Y4485761D01*
X18067848Y4492581D01*
X18057703Y4493188D01*
X18045285Y4489861D01*
X18034528Y4480326D01*
X18029984Y4472452D01*
X18027101Y4458370D01*
X18030428Y4445952D01*
X18036029Y4437468D01*
X18047840Y4430651D01*
X18057985Y4430041D01*
X18070403Y4433369D01*
X17965663Y4588316D02*
G01*
X17927025Y4521398D01*
X17916270Y4511860D01*
X17906126Y4512470D01*
X17898252Y4517016D01*
X17961564Y4553945D02*
G01*
X17934007Y4569853D01*
X17919999Y4614682D02*
G01*
X17872273Y4532015D01*
X17894998Y4571380D02*
G01*
X17890007Y4590008D01*
X17884409Y4598489D01*
X17872598Y4605307D01*
X17862453Y4605916D01*
X17851699Y4596381D01*
X17828971Y4557016D01*
X17821173Y4603508D02*
G01*
X17773934Y4630780D01*
X17778481Y4638652D01*
X17786962Y4644252D01*
X17793169Y4645916D01*
X17803317Y4645306D01*
X17815125Y4638489D01*
X17820726Y4630008D01*
X17824053Y4617590D01*
X17821173Y4603508D01*
X17816626Y4595634D01*
X17805872Y4586096D01*
X17793454Y4582769D01*
X17783307Y4583379D01*
X17771498Y4590196D01*
X17765897Y4598680D01*
X17762570Y4611098D01*
X17700967Y4704400D02*
G01*
X17653403Y4658380D01*
X17669476Y4722581D02*
G01*
X17653403Y4658380D01*
X17669476Y4722581D02*
G01*
X17621912Y4676561D01*
X17637983Y4740762D02*
G01*
X17621912Y4676561D01*
X17627912Y4783317D02*
G01*
X17621704Y4781654D01*
X17620040Y4787864D01*
X17626248Y4789528D01*
X17627912Y4783317D01*
X17608067Y4758034D02*
G01*
X17576248Y4702924D01*
X17578151Y4775309D02*
G01*
X17546332Y4720196D01*
X17564514Y4751689D02*
G01*
X17567394Y4765771D01*
X17564066Y4778189D01*
X17558468Y4786670D01*
X17546657Y4793490D01*
X17507041Y4784872D02*
G01*
X17459802Y4812144D01*
X17464349Y4820015D01*
X17472830Y4825616D01*
X17479040Y4827280D01*
X17489185Y4826670D01*
X17500996Y4819853D01*
X17506594Y4811372D01*
X17509921Y4798954D01*
X17507041Y4784872D01*
X17502494Y4776998D01*
X17491740Y4767460D01*
X17479322Y4764133D01*
X17469177Y4764742D01*
X17457366Y4771560D01*
X17451768Y4780043D01*
X17448441Y4792461D01*
X17371255Y4931498D02*
G01*
X17379127Y4926954D01*
X17384727Y4918471D01*
X17381844Y4904389D01*
X17343208Y4837470D01*
X17386838Y4885763D02*
G01*
X17359282Y4901671D01*
X17329365Y4918943D02*
G01*
X17297547Y4863833D01*
X17315728Y4895326D02*
G01*
X17318609Y4909408D01*
X17315281Y4921826D01*
X17309683Y4930307D01*
X17297872Y4937127D01*
X17252210Y4963490D02*
G01*
X17257809Y4955009D01*
X17261136Y4942588D01*
X17258256Y4928506D01*
X17253709Y4920635D01*
X17242955Y4911097D01*
X17230537Y4907770D01*
X17220392Y4908379D01*
X17208581Y4915197D01*
X17202983Y4923678D01*
X17199653Y4936098D01*
X17202536Y4950180D01*
X17207082Y4958052D01*
X17217837Y4967589D01*
X17230255Y4970917D01*
X17240399Y4970307D01*
X17252210Y4963490D01*
X17194738Y4996672D02*
G01*
X17162919Y4941559D01*
X17185645Y4980924D02*
G01*
X17180653Y4999553D01*
X17175055Y5008034D01*
X17163244Y5014854D01*
X17153100Y5015463D01*
X17142345Y5005925D01*
X17119617Y4966561D01*
X17142345Y5005925D02*
G01*
X17137354Y5024554D01*
X17131753Y5033035D01*
X17119942Y5039852D01*
X17109798Y5040462D01*
X17099043Y5030924D01*
X17076315Y4991562D01*
X17022140Y5106817D02*
G01*
X17024413Y5110754D01*
X17025023Y5120899D01*
X17023359Y5127109D01*
X17017758Y5135590D01*
X17002013Y5144681D01*
X16991865Y5145290D01*
X16985658Y5143627D01*
X16977177Y5138026D01*
X16972630Y5130154D01*
X16972020Y5120007D01*
X16973077Y5103652D01*
X16989714Y5041562D01*
X16934604Y5073378D01*
X16916984Y5193771D02*
G01*
X16924530Y5115933D01*
X16865483Y5150025D01*
X16916984Y5193771D02*
G01*
X16869257Y5111107D01*
X16855412Y5192580D02*
G01*
X16799976Y5151107D01*
X16808175Y5219852D02*
G01*
X16799976Y5151107D01*
X16725671Y5304226D02*
G01*
X16687035Y5237307D01*
X16676281Y5227769D01*
X16666136Y5228379D01*
X16658262Y5232925D01*
X16721571Y5269854D02*
G01*
X16694017Y5285762D01*
X16644416Y5314398D02*
G01*
X16650017Y5305917D01*
X16653344Y5293499D01*
X16650464Y5279415D01*
X16645917Y5271543D01*
X16635163Y5262006D01*
X16622745Y5258678D01*
X16612598Y5259288D01*
X16600789Y5266105D01*
X16595189Y5274589D01*
X16591861Y5287007D01*
X16594744Y5301089D01*
X16599288Y5308963D01*
X16610042Y5318498D01*
X16622461Y5321825D01*
X16632608Y5321216D01*
X16644416Y5314398D01*
X16494993Y5437408D02*
G01*
X16534358Y5414680D01*
X16517840Y5376981D01*
X16516177Y5383189D01*
X16506639Y5393944D01*
X16494831Y5400763D01*
X16480749Y5403644D01*
X16468331Y5400316D01*
X16457576Y5390779D01*
X16453030Y5382907D01*
X16450149Y5368825D01*
X16453477Y5356407D01*
X16463012Y5345650D01*
X16474823Y5338833D01*
X16488905Y5335953D01*
X16495113Y5337616D01*
X16503596Y5343215D01*
X16445232Y5429399D02*
G01*
X16389794Y5387924D01*
X16397993Y5456671D02*
G01*
X16389794Y5387924D01*
M02*
