%TF.GenerationSoftware,KiCad,Pcbnew,(6.0.7)*%
%TF.CreationDate,2022-11-17T23:55:45-05:00*%
%TF.ProjectId,SB Quick connect,53422051-7569-4636-9b20-636f6e6e6563,2.0*%
%TF.SameCoordinates,Original*%
%TF.FileFunction,Copper,L1,Top*%
%TF.FilePolarity,Positive*%
%FSLAX46Y46*%
G04 Gerber Fmt 4.6, Leading zero omitted, Abs format (unit mm)*
G04 Created by KiCad (PCBNEW (6.0.7)) date 2022-11-17 23:55:45*
%MOMM*%
%LPD*%
G01*
G04 APERTURE LIST*
G04 Aperture macros list*
%AMRoundRect*
0 Rectangle with rounded corners*
0 $1 Rounding radius*
0 $2 $3 $4 $5 $6 $7 $8 $9 X,Y pos of 4 corners*
0 Add a 4 corners polygon primitive as box body*
4,1,4,$2,$3,$4,$5,$6,$7,$8,$9,$2,$3,0*
0 Add four circle primitives for the rounded corners*
1,1,$1+$1,$2,$3*
1,1,$1+$1,$4,$5*
1,1,$1+$1,$6,$7*
1,1,$1+$1,$8,$9*
0 Add four rect primitives between the rounded corners*
20,1,$1+$1,$2,$3,$4,$5,0*
20,1,$1+$1,$4,$5,$6,$7,0*
20,1,$1+$1,$6,$7,$8,$9,0*
20,1,$1+$1,$8,$9,$2,$3,0*%
G04 Aperture macros list end*
%TA.AperFunction,ComponentPad*%
%ADD10O,1.700000X1.700000*%
%TD*%
%TA.AperFunction,ComponentPad*%
%ADD11RoundRect,0.425000X-0.425000X0.425000X-0.425000X-0.425000X0.425000X-0.425000X0.425000X0.425000X0*%
%TD*%
%TA.AperFunction,SMDPad,CuDef*%
%ADD12R,1.500000X1.000000*%
%TD*%
%TA.AperFunction,ComponentPad*%
%ADD13O,1.750000X1.200000*%
%TD*%
%TA.AperFunction,ComponentPad*%
%ADD14RoundRect,0.300000X0.575000X-0.300000X0.575000X0.300000X-0.575000X0.300000X-0.575000X-0.300000X0*%
%TD*%
%TA.AperFunction,ComponentPad*%
%ADD15O,2.400000X2.400000*%
%TD*%
%TA.AperFunction,ComponentPad*%
%ADD16C,2.400000*%
%TD*%
%TA.AperFunction,ComponentPad*%
%ADD17C,1.700000*%
%TD*%
%TA.AperFunction,ComponentPad*%
%ADD18R,1.700000X1.700000*%
%TD*%
%TA.AperFunction,ViaPad*%
%ADD19C,0.800000*%
%TD*%
%TA.AperFunction,Conductor*%
%ADD20C,0.500000*%
%TD*%
G04 APERTURE END LIST*
D10*
%TO.P,I\u00B2C,1*%
%TO.N,/A1*%
X84619469Y-22330407D03*
%TO.P,I\u00B2C,2*%
%TO.N,/A2*%
X82079469Y-22330407D03*
D11*
%TO.P,I\u00B2C,3*%
%TO.N,/GND*%
X79539469Y-22330407D03*
D10*
%TO.P,I\u00B2C,4*%
%TO.N,/5V*%
X76999469Y-22330407D03*
%TD*%
D12*
%TO.P,Status,6*%
%TO.N,/5V*%
X78830000Y-38256814D03*
%TO.P,Status,5*%
%TO.N,/Sig*%
X78830000Y-39856814D03*
%TO.P,Status,4*%
%TO.N,/GND*%
X78830000Y-41456814D03*
%TO.P,Status,3*%
X83730000Y-41456814D03*
%TO.P,Status,2*%
%TO.N,/Sig*%
X83730000Y-39856814D03*
%TO.P,Status,1*%
%TO.N,/5V*%
X83730000Y-38256814D03*
%TD*%
D13*
%TO.P,Toolboard,8*%
%TO.N,/HEF*%
X91540000Y-25445000D03*
%TO.P,Toolboard,7*%
%TO.N,/A1*%
X91540000Y-27445000D03*
%TO.P,Toolboard,6*%
%TO.N,/A2*%
X91540000Y-29445000D03*
%TO.P,Toolboard,5*%
%TO.N,/PCF*%
X91540000Y-31445000D03*
%TO.P,Toolboard,4*%
%TO.N,/5V*%
X91540000Y-33445000D03*
%TO.P,Toolboard,3*%
%TO.N,/Sig*%
X91540000Y-35445000D03*
%TO.P,Toolboard,2*%
%TO.N,/24V*%
X91540000Y-37445000D03*
D14*
%TO.P,Toolboard,1*%
%TO.N,/GND*%
X91540000Y-39445000D03*
%TD*%
D15*
%TO.P,R1,2*%
%TO.N,/HEF*%
X67610000Y-27975000D03*
D16*
%TO.P,R1,1*%
X82850000Y-27975000D03*
%TD*%
D17*
%TO.P,J1,8,Pin_8*%
%TO.N,/24V*%
X73881315Y-40445026D03*
D18*
%TO.P,J1,7,Pin_7*%
%TO.N,/GND*%
X71341315Y-40445026D03*
D10*
%TO.P,J1,6,Pin_6*%
%TO.N,/5V*%
X73881315Y-37905026D03*
%TO.P,J1,5,Pin_5*%
%TO.N,/Sig*%
X71341315Y-37905026D03*
%TO.P,J1,4,Pin_4*%
%TO.N,/PCF*%
X73881315Y-35365026D03*
%TO.P,J1,3,Pin_3*%
%TO.N,/HEF*%
X71341315Y-35365026D03*
%TO.P,J1,2,Pin_2*%
%TO.N,/A2*%
X73881315Y-32825026D03*
%TO.P,J1,1,Pin_1*%
%TO.N,/A1*%
X71341315Y-32825026D03*
%TD*%
D19*
%TO.N,/Sig*%
X81280000Y-39856814D03*
%TD*%
D20*
%TO.N,/HEF*%
X90960000Y-26025000D02*
X84800000Y-26025000D01*
X84800000Y-26025000D02*
X82850000Y-27975000D01*
X91540000Y-25445000D02*
X90960000Y-26025000D01*
%TO.N,/A2*%
X84568453Y-29560000D02*
X83528453Y-30600000D01*
X76106341Y-30600000D02*
X73881315Y-32825026D01*
X83528453Y-30600000D02*
X76106341Y-30600000D01*
X91425000Y-29560000D02*
X84568453Y-29560000D01*
X91540000Y-29445000D02*
X91425000Y-29560000D01*
%TO.N,/PCF*%
X82934974Y-35365026D02*
X73881315Y-35365026D01*
X90575000Y-30480000D02*
X85090000Y-30480000D01*
X85090000Y-30480000D02*
X83820000Y-31750000D01*
X83820000Y-31750000D02*
X83820000Y-34480000D01*
X91540000Y-31445000D02*
X90575000Y-30480000D01*
X83820000Y-34480000D02*
X82934974Y-35365026D01*
%TO.N,/Sig*%
X90285000Y-35445000D02*
X85873186Y-39856814D01*
X91540000Y-35445000D02*
X90285000Y-35445000D01*
X78830000Y-39856814D02*
X81280000Y-39856814D01*
X85873186Y-39856814D02*
X83730000Y-39856814D01*
%TO.N,/5V*%
X74233103Y-38256814D02*
X73881315Y-37905026D01*
X90285000Y-33445000D02*
X91540000Y-33445000D01*
X88900000Y-24320000D02*
X87895000Y-25325000D01*
X83730000Y-38256814D02*
X78830000Y-38256814D01*
X83730000Y-38256814D02*
X85473186Y-38256814D01*
X85473186Y-38256814D02*
X90285000Y-33445000D01*
X91540000Y-33445000D02*
X92865000Y-32120000D01*
X87895000Y-25325000D02*
X79994062Y-25325000D01*
X79994062Y-25325000D02*
X76999469Y-22330407D01*
X92865000Y-24475000D02*
X92710000Y-24320000D01*
X92710000Y-24320000D02*
X88900000Y-24320000D01*
X92865000Y-32120000D02*
X92865000Y-24475000D01*
X78830000Y-38256814D02*
X74233103Y-38256814D01*
%TO.N,/GND*%
X92710000Y-23050000D02*
X87630000Y-23050000D01*
X77146331Y-41456814D02*
X76503145Y-42100000D01*
X91425000Y-39560000D02*
X93980000Y-37005000D01*
X93980000Y-24320000D02*
X92710000Y-23050000D01*
X71341315Y-40748170D02*
X71341315Y-40445026D01*
X79475000Y-23725000D02*
X79539469Y-23660531D01*
X83730000Y-41456814D02*
X88273186Y-41456814D01*
X88273186Y-41456814D02*
X90170000Y-39560000D01*
X87630000Y-23050000D02*
X86230000Y-24450000D01*
X78830000Y-41456814D02*
X77146331Y-41456814D01*
X76503145Y-42100000D02*
X72693145Y-42100000D01*
X79539469Y-23660531D02*
X79539469Y-22330407D01*
X93980000Y-37005000D02*
X93980000Y-24320000D01*
X83730000Y-41456814D02*
X78830000Y-41456814D01*
X86230000Y-24450000D02*
X80200000Y-24450000D01*
X80200000Y-24450000D02*
X79475000Y-23725000D01*
X90170000Y-39560000D02*
X91425000Y-39560000D01*
X72693145Y-42100000D02*
X71341315Y-40748170D01*
%TO.N,/HEF*%
X67610000Y-34885000D02*
X67610000Y-27975000D01*
X71341315Y-35365026D02*
X68090026Y-35365026D01*
X68090026Y-35365026D02*
X67610000Y-34885000D01*
%TD*%
M02*
