%TF.GenerationSoftware,KiCad,Pcbnew,(6.0.7)*%
%TF.CreationDate,2022-11-17T23:56:02-05:00*%
%TF.ProjectId,SB Quick connect,53422051-7569-4636-9b20-636f6e6e6563,2.0*%
%TF.SameCoordinates,Original*%
%TF.FileFunction,Drillmap*%
%TF.FilePolarity,Positive*%
%FSLAX45Y45*%
G04 Gerber Fmt 4.5, Leading zero omitted, Abs format (unit mm)*
G04 Created by KiCad (PCBNEW (6.0.7)) date 2022-11-17 23:56:02*
%MOMM*%
%LPD*%
G01*
G04 APERTURE LIST*
%ADD10C,0.100000*%
%ADD11C,0.200000*%
G04 APERTURE END LIST*
D10*
X9497500Y-2013000D02*
X9812000Y-2327500D01*
X7627500Y-4573000D02*
G75*
G03*
X7627500Y-4573000I-170000J0D01*
G01*
X9812000Y-2327500D02*
X9812500Y-4258000D01*
X6637500Y-5013000D02*
X7737500Y-5013000D01*
X9812500Y-4258000D02*
X9557500Y-4513000D01*
X8827500Y-3283000D02*
G75*
G03*
X8827500Y-3283000I-170000J0D01*
G01*
X9557500Y-4513000D02*
X8127500Y-4513000D01*
X6437500Y-4813000D02*
X6437500Y-2683000D01*
X6437500Y-2683000D02*
X7037500Y-2013000D01*
X6637500Y-5013000D02*
X6437500Y-4813000D01*
X7037500Y-2013000D02*
X9497500Y-2013000D01*
X8127500Y-4513000D02*
X7737500Y-5013000D01*
D11*
X6690119Y-5328476D02*
X6690119Y-5128476D01*
X6737738Y-5128476D01*
X6766309Y-5138000D01*
X6785357Y-5157048D01*
X6794881Y-5176095D01*
X6804405Y-5214190D01*
X6804405Y-5242762D01*
X6794881Y-5280857D01*
X6785357Y-5299905D01*
X6766309Y-5318952D01*
X6737738Y-5328476D01*
X6690119Y-5328476D01*
X6890119Y-5328476D02*
X6890119Y-5195143D01*
X6890119Y-5233238D02*
X6899643Y-5214190D01*
X6909167Y-5204667D01*
X6928214Y-5195143D01*
X6947262Y-5195143D01*
X7013928Y-5328476D02*
X7013928Y-5195143D01*
X7013928Y-5128476D02*
X7004405Y-5138000D01*
X7013928Y-5147524D01*
X7023452Y-5138000D01*
X7013928Y-5128476D01*
X7013928Y-5147524D01*
X7137738Y-5328476D02*
X7118690Y-5318952D01*
X7109167Y-5299905D01*
X7109167Y-5128476D01*
X7242500Y-5328476D02*
X7223452Y-5318952D01*
X7213928Y-5299905D01*
X7213928Y-5128476D01*
X7471071Y-5328476D02*
X7471071Y-5128476D01*
X7537738Y-5271333D01*
X7604405Y-5128476D01*
X7604405Y-5328476D01*
X7785357Y-5328476D02*
X7785357Y-5223714D01*
X7775833Y-5204667D01*
X7756786Y-5195143D01*
X7718690Y-5195143D01*
X7699643Y-5204667D01*
X7785357Y-5318952D02*
X7766309Y-5328476D01*
X7718690Y-5328476D01*
X7699643Y-5318952D01*
X7690119Y-5299905D01*
X7690119Y-5280857D01*
X7699643Y-5261810D01*
X7718690Y-5252286D01*
X7766309Y-5252286D01*
X7785357Y-5242762D01*
X7880595Y-5195143D02*
X7880595Y-5395143D01*
X7880595Y-5204667D02*
X7899643Y-5195143D01*
X7937738Y-5195143D01*
X7956786Y-5204667D01*
X7966309Y-5214190D01*
X7975833Y-5233238D01*
X7975833Y-5290381D01*
X7966309Y-5309429D01*
X7956786Y-5318952D01*
X7937738Y-5328476D01*
X7899643Y-5328476D01*
X7880595Y-5318952D01*
X8061548Y-5309429D02*
X8071071Y-5318952D01*
X8061548Y-5328476D01*
X8052024Y-5318952D01*
X8061548Y-5309429D01*
X8061548Y-5328476D01*
X8061548Y-5204667D02*
X8071071Y-5214190D01*
X8061548Y-5223714D01*
X8052024Y-5214190D01*
X8061548Y-5204667D01*
X8061548Y-5223714D01*
M02*
