%TF.GenerationSoftware,KiCad,Pcbnew,(6.0.7)*%
%TF.CreationDate,2022-11-17T23:55:45-05:00*%
%TF.ProjectId,SB Quick connect,53422051-7569-4636-9b20-636f6e6e6563,2.0*%
%TF.SameCoordinates,Original*%
%TF.FileFunction,Soldermask,Top*%
%TF.FilePolarity,Negative*%
%FSLAX46Y46*%
G04 Gerber Fmt 4.6, Leading zero omitted, Abs format (unit mm)*
G04 Created by KiCad (PCBNEW (6.0.7)) date 2022-11-17 23:55:45*
%MOMM*%
%LPD*%
G01*
G04 APERTURE LIST*
G04 Aperture macros list*
%AMRoundRect*
0 Rectangle with rounded corners*
0 $1 Rounding radius*
0 $2 $3 $4 $5 $6 $7 $8 $9 X,Y pos of 4 corners*
0 Add a 4 corners polygon primitive as box body*
4,1,4,$2,$3,$4,$5,$6,$7,$8,$9,$2,$3,0*
0 Add four circle primitives for the rounded corners*
1,1,$1+$1,$2,$3*
1,1,$1+$1,$4,$5*
1,1,$1+$1,$6,$7*
1,1,$1+$1,$8,$9*
0 Add four rect primitives between the rounded corners*
20,1,$1+$1,$2,$3,$4,$5,0*
20,1,$1+$1,$4,$5,$6,$7,0*
20,1,$1+$1,$6,$7,$8,$9,0*
20,1,$1+$1,$8,$9,$2,$3,0*%
G04 Aperture macros list end*
%ADD10C,0.150000*%
%ADD11C,0.100000*%
%ADD12C,0.200000*%
%ADD13O,1.700000X1.700000*%
%ADD14RoundRect,0.425000X-0.425000X0.425000X-0.425000X-0.425000X0.425000X-0.425000X0.425000X0.425000X0*%
%ADD15R,1.500000X1.000000*%
%ADD16O,1.750000X1.200000*%
%ADD17RoundRect,0.300000X0.575000X-0.300000X0.575000X0.300000X-0.575000X0.300000X-0.575000X-0.300000X0*%
%ADD18O,2.400000X2.400000*%
%ADD19C,2.400000*%
%ADD20C,1.700000*%
%ADD21R,1.700000X1.700000*%
G04 APERTURE END LIST*
D10*
X67580000Y-45362380D02*
X67770476Y-45362380D01*
X67865714Y-45410000D01*
X67960952Y-45505238D01*
X68008571Y-45695714D01*
X68008571Y-46029047D01*
X67960952Y-46219523D01*
X67865714Y-46314761D01*
X67770476Y-46362380D01*
X67580000Y-46362380D01*
X67484761Y-46314761D01*
X67389523Y-46219523D01*
X67341904Y-46029047D01*
X67341904Y-45695714D01*
X67389523Y-45505238D01*
X67484761Y-45410000D01*
X67580000Y-45362380D01*
X68437142Y-45362380D02*
X68437142Y-46171904D01*
X68484761Y-46267142D01*
X68532380Y-46314761D01*
X68627619Y-46362380D01*
X68818095Y-46362380D01*
X68913333Y-46314761D01*
X68960952Y-46267142D01*
X69008571Y-46171904D01*
X69008571Y-45362380D01*
X69341904Y-45362380D02*
X69913333Y-45362380D01*
X69627619Y-46362380D02*
X69627619Y-45362380D01*
X67310000Y-42600000D02*
X67310000Y-44640000D01*
X67310000Y-42600000D02*
X66723579Y-43726504D01*
X67310000Y-42600000D02*
X67896421Y-43726504D01*
X66576429Y-44992500D02*
X66576429Y-46827500D01*
X66576429Y-46827500D02*
X70583572Y-46827500D01*
X70583572Y-46827500D02*
X70583572Y-44992500D01*
X70583572Y-44992500D02*
X66576429Y-44992500D01*
X67310000Y-44640000D02*
X67662500Y-44992500D01*
X70120000Y-22896523D02*
X70310476Y-22896523D01*
X70405714Y-22944143D01*
X70500952Y-23039381D01*
X70548571Y-23229857D01*
X70548571Y-23563190D01*
X70500952Y-23753666D01*
X70405714Y-23848904D01*
X70310476Y-23896523D01*
X70120000Y-23896523D01*
X70024761Y-23848904D01*
X69929523Y-23753666D01*
X69881904Y-23563190D01*
X69881904Y-23229857D01*
X69929523Y-23039381D01*
X70024761Y-22944143D01*
X70120000Y-22896523D01*
X70977142Y-22896523D02*
X70977142Y-23706047D01*
X71024761Y-23801285D01*
X71072380Y-23848904D01*
X71167619Y-23896523D01*
X71358095Y-23896523D01*
X71453333Y-23848904D01*
X71500952Y-23801285D01*
X71548571Y-23706047D01*
X71548571Y-22896523D01*
X71881904Y-22896523D02*
X72453333Y-22896523D01*
X72167619Y-23896523D02*
X72167619Y-22896523D01*
X74689750Y-21779596D02*
X73054789Y-21509354D01*
X74689750Y-21779596D02*
X73673958Y-21017319D01*
X74689750Y-21779596D02*
X73482695Y-22174460D01*
X69116429Y-22526643D02*
X69116429Y-24361643D01*
X69116429Y-24361643D02*
X73123572Y-24361643D01*
X73123572Y-24361643D02*
X73123572Y-22526643D01*
X73123572Y-22526643D02*
X69116429Y-22526643D01*
X73054789Y-21509354D02*
X72037500Y-22526643D01*
D11*
X91561190Y-44127380D02*
X91561190Y-43127380D01*
X92037380Y-44127380D02*
X92037380Y-43127380D01*
X92608809Y-44127380D01*
X92608809Y-43127380D01*
D12*
X95488461Y-42591080D02*
X94625000Y-43675000D01*
X95488461Y-42591080D02*
X94327887Y-43106801D01*
X95488461Y-42591080D02*
X95245238Y-43837572D01*
X90773095Y-42795000D02*
X90773095Y-44555000D01*
X90773095Y-44555000D02*
X93396905Y-44555000D01*
X93396905Y-44555000D02*
X93396905Y-42795000D01*
X93396905Y-42795000D02*
X90773095Y-42795000D01*
X94625000Y-43675000D02*
X93396905Y-43675000D01*
%TO.C,G\u002A\u002A\u002A*%
G36*
X94032068Y-20682243D02*
G01*
X94160165Y-20707038D01*
X94239415Y-20731886D01*
X94279242Y-20747106D01*
X94306097Y-20758944D01*
X94319201Y-20766571D01*
X94317772Y-20769158D01*
X94301031Y-20765876D01*
X94268197Y-20755897D01*
X94259172Y-20752868D01*
X94222093Y-20741361D01*
X94188047Y-20732683D01*
X94164068Y-20728615D01*
X94163086Y-20728556D01*
X94136505Y-20724853D01*
X94103065Y-20717189D01*
X94089184Y-20713210D01*
X94041567Y-20704489D01*
X93981222Y-20702474D01*
X93912637Y-20706589D01*
X93840302Y-20716254D01*
X93768709Y-20730892D01*
X93702346Y-20749924D01*
X93652801Y-20769403D01*
X93610732Y-20788830D01*
X93689149Y-20800738D01*
X93730454Y-20808306D01*
X93761144Y-20816368D01*
X93779780Y-20823977D01*
X93784926Y-20830188D01*
X93775144Y-20834054D01*
X93748996Y-20834629D01*
X93739927Y-20834160D01*
X93657060Y-20837842D01*
X93572000Y-20858019D01*
X93487785Y-20893235D01*
X93407457Y-20942034D01*
X93334056Y-21002963D01*
X93290896Y-21049096D01*
X93263314Y-21085113D01*
X93235937Y-21126561D01*
X93210388Y-21170216D01*
X93188290Y-21212852D01*
X93171264Y-21251243D01*
X93160933Y-21282164D01*
X93158920Y-21302389D01*
X93161128Y-21307111D01*
X93169674Y-21303743D01*
X93185951Y-21289185D01*
X93201433Y-21272304D01*
X93227765Y-21245494D01*
X93259029Y-21219403D01*
X93290523Y-21197377D01*
X93317546Y-21182765D01*
X93332901Y-21178664D01*
X93334337Y-21184832D01*
X93324445Y-21201320D01*
X93307243Y-21222567D01*
X93255637Y-21293999D01*
X93213728Y-21378026D01*
X93182051Y-21471043D01*
X93161144Y-21569446D01*
X93151543Y-21669631D01*
X93153782Y-21767991D01*
X93168399Y-21860924D01*
X93195929Y-21944823D01*
X93198853Y-21951358D01*
X93215317Y-21983165D01*
X93235211Y-22015669D01*
X93255595Y-22044725D01*
X93273532Y-22066194D01*
X93286085Y-22075931D01*
X93287351Y-22076124D01*
X93289616Y-22067700D01*
X93288923Y-22045603D01*
X93285425Y-22014598D01*
X93285377Y-22014262D01*
X93282242Y-21940975D01*
X93291930Y-21859075D01*
X93308422Y-21790994D01*
X93313436Y-21774895D01*
X93317122Y-21768104D01*
X93320268Y-21772649D01*
X93323660Y-21790558D01*
X93328086Y-21823861D01*
X93331311Y-21850008D01*
X93351457Y-21964104D01*
X93382506Y-22063305D01*
X93425193Y-22148406D01*
X93480250Y-22220202D01*
X93548414Y-22279489D01*
X93630418Y-22327062D01*
X93726997Y-22363716D01*
X93828421Y-22388301D01*
X93867059Y-22394296D01*
X93889115Y-22394581D01*
X93894193Y-22389354D01*
X93881893Y-22378814D01*
X93865480Y-22369756D01*
X93842232Y-22356370D01*
X93814640Y-22338152D01*
X93786648Y-22318052D01*
X93762199Y-22299024D01*
X93745238Y-22284019D01*
X93739708Y-22275989D01*
X93739879Y-22275735D01*
X93749510Y-22277820D01*
X93769891Y-22287739D01*
X93789674Y-22299175D01*
X93871784Y-22339443D01*
X93957657Y-22363252D01*
X94044865Y-22370975D01*
X94130978Y-22362988D01*
X94213565Y-22339669D01*
X94290199Y-22301391D01*
X94358448Y-22248531D01*
X94398347Y-22205053D01*
X94420024Y-22175391D01*
X94427666Y-22156441D01*
X94420773Y-22146015D01*
X94398843Y-22141922D01*
X94383808Y-22141564D01*
X94351256Y-22138408D01*
X94310617Y-22130173D01*
X94274200Y-22119744D01*
X94209514Y-22097923D01*
X94258956Y-22092067D01*
X94288734Y-22086040D01*
X94320407Y-22075788D01*
X94349522Y-22063339D01*
X94371624Y-22050720D01*
X94382260Y-22039960D01*
X94381987Y-22036055D01*
X94371375Y-22033217D01*
X94345797Y-22030532D01*
X94308985Y-22028287D01*
X94264670Y-22026771D01*
X94260456Y-22026680D01*
X94210669Y-22025380D01*
X94174725Y-22023274D01*
X94147771Y-22019480D01*
X94124955Y-22013113D01*
X94101423Y-22003289D01*
X94082834Y-21994330D01*
X94056378Y-21979803D01*
X94028353Y-21962072D01*
X94001579Y-21943333D01*
X93978877Y-21925779D01*
X93963067Y-21911605D01*
X93956969Y-21903006D01*
X93963404Y-21902176D01*
X93965009Y-21902656D01*
X93998307Y-21910368D01*
X94041538Y-21916569D01*
X94086960Y-21920510D01*
X94126831Y-21921442D01*
X94145743Y-21920130D01*
X94174879Y-21914164D01*
X94189756Y-21906951D01*
X94188885Y-21899815D01*
X94174365Y-21894739D01*
X94085607Y-21875717D01*
X94012998Y-21857325D01*
X93954058Y-21838610D01*
X93906306Y-21818617D01*
X93867263Y-21796391D01*
X93834446Y-21770977D01*
X93821828Y-21759027D01*
X93801154Y-21737081D01*
X93787301Y-21719939D01*
X93783680Y-21712961D01*
X93791170Y-21712426D01*
X93810577Y-21719157D01*
X93831520Y-21728717D01*
X93867262Y-21743207D01*
X93906995Y-21751936D01*
X93957175Y-21756476D01*
X94010374Y-21757720D01*
X94053591Y-21755636D01*
X94084311Y-21750532D01*
X94100016Y-21742716D01*
X94101531Y-21738821D01*
X94092628Y-21728483D01*
X94067014Y-21715202D01*
X94026331Y-21699608D01*
X93972221Y-21682330D01*
X93906324Y-21663997D01*
X93906270Y-21663982D01*
X93812926Y-21638468D01*
X93735406Y-21614624D01*
X93671054Y-21591288D01*
X93617213Y-21567297D01*
X93571225Y-21541488D01*
X93530434Y-21512698D01*
X93498299Y-21485412D01*
X93473330Y-21460361D01*
X93446798Y-21430073D01*
X93421250Y-21397987D01*
X93399231Y-21367542D01*
X93383286Y-21342176D01*
X93375963Y-21325328D01*
X93376529Y-21320940D01*
X93385276Y-21324158D01*
X93403470Y-21336905D01*
X93420977Y-21351185D01*
X93449980Y-21374442D01*
X93480354Y-21394811D01*
X93514373Y-21413122D01*
X93554307Y-21430199D01*
X93602427Y-21446872D01*
X93661005Y-21463966D01*
X93732312Y-21482309D01*
X93818620Y-21502729D01*
X93867817Y-21513910D01*
X93971001Y-21538703D01*
X94057612Y-21563088D01*
X94129739Y-21587811D01*
X94189471Y-21613615D01*
X94238898Y-21641246D01*
X94254491Y-21651727D01*
X94304155Y-21685119D01*
X94344795Y-21707847D01*
X94381197Y-21721849D01*
X94418151Y-21729062D01*
X94451016Y-21731238D01*
X94484379Y-21732563D01*
X94502757Y-21735142D01*
X94509863Y-21740354D01*
X94509408Y-21749582D01*
X94508559Y-21752638D01*
X94497477Y-21813414D01*
X94502858Y-21868050D01*
X94525329Y-21920343D01*
X94539799Y-21942223D01*
X94567188Y-21971826D01*
X94599090Y-21994043D01*
X94630409Y-22006040D01*
X94653982Y-22005729D01*
X94675330Y-21992033D01*
X94692065Y-21968712D01*
X94703372Y-21940151D01*
X94708442Y-21910737D01*
X94706460Y-21884854D01*
X94696615Y-21866887D01*
X94680771Y-21861108D01*
X94664422Y-21868935D01*
X94657770Y-21879805D01*
X94649221Y-21897133D01*
X94641764Y-21898124D01*
X94637666Y-21885105D01*
X94639140Y-21860706D01*
X94642509Y-21836929D01*
X94640096Y-21827170D01*
X94629469Y-21827051D01*
X94621484Y-21828945D01*
X94597443Y-21834979D01*
X94612289Y-21784941D01*
X94629885Y-21734602D01*
X94650518Y-21689759D01*
X94671962Y-21654616D01*
X94691989Y-21633378D01*
X94692899Y-21632766D01*
X94711247Y-21623774D01*
X94741954Y-21611668D01*
X94779434Y-21598595D01*
X94793323Y-21594125D01*
X94834643Y-21580305D01*
X94873860Y-21565771D01*
X94904006Y-21553141D01*
X94909758Y-21550360D01*
X94946730Y-21531575D01*
X94930770Y-21553776D01*
X94921157Y-21569757D01*
X94905276Y-21599035D01*
X94884986Y-21638067D01*
X94862144Y-21683311D01*
X94850493Y-21706857D01*
X94821128Y-21768647D01*
X94799971Y-21818407D01*
X94785526Y-21860087D01*
X94776299Y-21897638D01*
X94774505Y-21907603D01*
X94746831Y-22020974D01*
X94703643Y-22124123D01*
X94645391Y-22216556D01*
X94572528Y-22297782D01*
X94485503Y-22367309D01*
X94384769Y-22424644D01*
X94270776Y-22469295D01*
X94255321Y-22474048D01*
X94220402Y-22483834D01*
X94188492Y-22490892D01*
X94155023Y-22495764D01*
X94115431Y-22498993D01*
X94065151Y-22501121D01*
X94017394Y-22502328D01*
X93929993Y-22502867D01*
X93860054Y-22500338D01*
X93806588Y-22494700D01*
X93796153Y-22492890D01*
X93666942Y-22459380D01*
X93542598Y-22409507D01*
X93426081Y-22344773D01*
X93320353Y-22266676D01*
X93282219Y-22232481D01*
X93196092Y-22138546D01*
X93126156Y-22035383D01*
X93072314Y-21922796D01*
X93034468Y-21800591D01*
X93016740Y-21704135D01*
X93007900Y-21573063D01*
X93016753Y-21446054D01*
X93042513Y-21324338D01*
X93084390Y-21209143D01*
X93141598Y-21101700D01*
X93213349Y-21003239D01*
X93298854Y-20914990D01*
X93397328Y-20838182D01*
X93507980Y-20774044D01*
X93630025Y-20723808D01*
X93648512Y-20717785D01*
X93774866Y-20687583D01*
X93903176Y-20675747D01*
X94032068Y-20682243D01*
G37*
%TD*%
D13*
%TO.C,I\u00B2C*%
X84619469Y-22330407D03*
X82079469Y-22330407D03*
D14*
X79539469Y-22330407D03*
D13*
X76999469Y-22330407D03*
%TD*%
D15*
%TO.C,Status*%
X78830000Y-38256814D03*
X78830000Y-39856814D03*
X78830000Y-41456814D03*
X83730000Y-41456814D03*
X83730000Y-39856814D03*
X83730000Y-38256814D03*
%TD*%
D16*
%TO.C,Toolboard*%
X91540000Y-25445000D03*
X91540000Y-27445000D03*
X91540000Y-29445000D03*
X91540000Y-31445000D03*
X91540000Y-33445000D03*
X91540000Y-35445000D03*
X91540000Y-37445000D03*
D17*
X91540000Y-39445000D03*
%TD*%
D18*
%TO.C,R1*%
X67610000Y-27975000D03*
D19*
X82850000Y-27975000D03*
%TD*%
D20*
%TO.C,J1*%
X73881315Y-40445026D03*
D21*
X71341315Y-40445026D03*
D13*
X73881315Y-37905026D03*
X71341315Y-37905026D03*
X73881315Y-35365026D03*
X71341315Y-35365026D03*
X73881315Y-32825026D03*
X71341315Y-32825026D03*
%TD*%
M02*
