%TF.GenerationSoftware,KiCad,Pcbnew,(6.0.7)*%
%TF.CreationDate,2022-11-17T23:55:45-05:00*%
%TF.ProjectId,SB Quick connect,53422051-7569-4636-9b20-636f6e6e6563,2.0*%
%TF.SameCoordinates,Original*%
%TF.FileFunction,Copper,L2,Bot*%
%TF.FilePolarity,Positive*%
%FSLAX46Y46*%
G04 Gerber Fmt 4.6, Leading zero omitted, Abs format (unit mm)*
G04 Created by KiCad (PCBNEW (6.0.7)) date 2022-11-17 23:55:45*
%MOMM*%
%LPD*%
G01*
G04 APERTURE LIST*
G04 Aperture macros list*
%AMRoundRect*
0 Rectangle with rounded corners*
0 $1 Rounding radius*
0 $2 $3 $4 $5 $6 $7 $8 $9 X,Y pos of 4 corners*
0 Add a 4 corners polygon primitive as box body*
4,1,4,$2,$3,$4,$5,$6,$7,$8,$9,$2,$3,0*
0 Add four circle primitives for the rounded corners*
1,1,$1+$1,$2,$3*
1,1,$1+$1,$4,$5*
1,1,$1+$1,$6,$7*
1,1,$1+$1,$8,$9*
0 Add four rect primitives between the rounded corners*
20,1,$1+$1,$2,$3,$4,$5,0*
20,1,$1+$1,$4,$5,$6,$7,0*
20,1,$1+$1,$6,$7,$8,$9,0*
20,1,$1+$1,$8,$9,$2,$3,0*%
%AMFreePoly0*
4,1,6,0.500000,-0.750000,-0.650000,-0.750000,-0.150000,0.000000,-0.650000,0.750000,0.500000,0.750000,0.500000,-0.750000,0.500000,-0.750000,$1*%
%AMFreePoly1*
4,1,6,1.000000,0.000000,0.500000,-0.750000,-0.500000,-0.750000,-0.500000,0.750000,0.500000,0.750000,1.000000,0.000000,1.000000,0.000000,$1*%
G04 Aperture macros list end*
%TA.AperFunction,ComponentPad*%
%ADD10O,1.700000X1.700000*%
%TD*%
%TA.AperFunction,ComponentPad*%
%ADD11RoundRect,0.425000X-0.425000X0.425000X-0.425000X-0.425000X0.425000X-0.425000X0.425000X0.425000X0*%
%TD*%
%TA.AperFunction,ComponentPad*%
%ADD12O,1.750000X1.200000*%
%TD*%
%TA.AperFunction,ComponentPad*%
%ADD13RoundRect,0.300000X0.575000X-0.300000X0.575000X0.300000X-0.575000X0.300000X-0.575000X-0.300000X0*%
%TD*%
%TA.AperFunction,ComponentPad*%
%ADD14O,2.400000X2.400000*%
%TD*%
%TA.AperFunction,ComponentPad*%
%ADD15C,2.400000*%
%TD*%
%TA.AperFunction,ComponentPad*%
%ADD16C,1.700000*%
%TD*%
%TA.AperFunction,ComponentPad*%
%ADD17R,1.700000X1.700000*%
%TD*%
%TA.AperFunction,SMDPad,CuDef*%
%ADD18FreePoly0,180.000000*%
%TD*%
%TA.AperFunction,SMDPad,CuDef*%
%ADD19FreePoly1,180.000000*%
%TD*%
%TA.AperFunction,ViaPad*%
%ADD20C,0.800000*%
%TD*%
%TA.AperFunction,Conductor*%
%ADD21C,0.500000*%
%TD*%
G04 APERTURE END LIST*
D10*
%TO.P,I\u00B2C,1*%
%TO.N,/A1*%
X84619469Y-22330407D03*
%TO.P,I\u00B2C,2*%
%TO.N,/A2*%
X82079469Y-22330407D03*
D11*
%TO.P,I\u00B2C,3*%
%TO.N,/GND*%
X79539469Y-22330407D03*
D10*
%TO.P,I\u00B2C,4*%
%TO.N,/5V*%
X76999469Y-22330407D03*
%TD*%
D12*
%TO.P,Toolboard,8*%
%TO.N,/HEF*%
X91540000Y-25445000D03*
%TO.P,Toolboard,7*%
%TO.N,/A1*%
X91540000Y-27445000D03*
%TO.P,Toolboard,6*%
%TO.N,/A2*%
X91540000Y-29445000D03*
%TO.P,Toolboard,5*%
%TO.N,/PCF*%
X91540000Y-31445000D03*
%TO.P,Toolboard,4*%
%TO.N,/5V*%
X91540000Y-33445000D03*
%TO.P,Toolboard,3*%
%TO.N,/Sig*%
X91540000Y-35445000D03*
%TO.P,Toolboard,2*%
%TO.N,/24V*%
X91540000Y-37445000D03*
D13*
%TO.P,Toolboard,1*%
%TO.N,/GND*%
X91540000Y-39445000D03*
%TD*%
D14*
%TO.P,R1,2*%
%TO.N,/HEF*%
X67610000Y-27975000D03*
D15*
%TO.P,R1,1*%
X82850000Y-27975000D03*
%TD*%
D16*
%TO.P,J1,8,Pin_8*%
%TO.N,/24V*%
X73881315Y-40445026D03*
D17*
%TO.P,J1,7,Pin_7*%
%TO.N,/GND*%
X71341315Y-40445026D03*
D10*
%TO.P,J1,6,Pin_6*%
%TO.N,/5V*%
X73881315Y-37905026D03*
%TO.P,J1,5,Pin_5*%
%TO.N,/Sig*%
X71341315Y-37905026D03*
%TO.P,J1,4,Pin_4*%
%TO.N,/PCF*%
X73881315Y-35365026D03*
%TO.P,J1,3,Pin_3*%
%TO.N,/HEF*%
X71341315Y-35365026D03*
%TO.P,J1,2,Pin_2*%
%TO.N,/A2*%
X73881315Y-32825026D03*
%TO.P,J1,1,Pin_1*%
%TO.N,/A1*%
X71341315Y-32825026D03*
%TD*%
D18*
%TO.P,R Bypass,2*%
%TO.N,/HEF*%
X70575000Y-27925000D03*
D19*
%TO.P,R Bypass,1*%
X72025000Y-27925000D03*
%TD*%
D18*
%TO.P,LED Bypass,2*%
%TO.N,/Sig*%
X67855000Y-45910000D03*
D19*
%TO.P,LED Bypass,1*%
X69305000Y-45910000D03*
%TD*%
D20*
%TO.N,/Sig*%
X81280000Y-39856814D03*
%TD*%
D21*
%TO.N,/24V*%
X91540000Y-37445000D02*
X91425000Y-37560000D01*
X76766341Y-37560000D02*
X73881315Y-40445026D01*
X91425000Y-37560000D02*
X76766341Y-37560000D01*
%TO.N,/HEF*%
X72075000Y-27975000D02*
X82850000Y-27975000D01*
X72025000Y-27925000D02*
X72075000Y-27975000D01*
%TO.N,/A1*%
X84619469Y-22330407D02*
X84619469Y-26199469D01*
X85960000Y-28865000D02*
X85960000Y-27580000D01*
X85960000Y-27580000D02*
X85980000Y-27560000D01*
X85980000Y-27560000D02*
X86095000Y-27445000D01*
X86095000Y-27445000D02*
X91540000Y-27445000D01*
X72816341Y-31350000D02*
X71341315Y-32825026D01*
X85960000Y-28865000D02*
X83475000Y-31350000D01*
X83475000Y-31350000D02*
X72816341Y-31350000D01*
X84619469Y-26199469D02*
X85980000Y-27560000D01*
%TO.N,/A2*%
X91540000Y-29445000D02*
X93525000Y-27460000D01*
X89952796Y-20902796D02*
X83507080Y-20902796D01*
X93525000Y-24475000D02*
X89950000Y-20900000D01*
X93525000Y-27460000D02*
X93525000Y-24475000D01*
X83507080Y-20902796D02*
X82079469Y-22330407D01*
%TO.N,/Sig*%
X93013145Y-36918145D02*
X93013145Y-40830000D01*
X81280000Y-41270000D02*
X79180000Y-43370000D01*
X81280000Y-39856814D02*
X81280000Y-41270000D01*
X77773145Y-46251855D02*
X77773145Y-47180000D01*
X67500000Y-43370000D02*
X66040000Y-41910000D01*
X67998119Y-37905026D02*
X71341315Y-37905026D01*
X76503145Y-48450000D02*
X72693145Y-48450000D01*
X66040000Y-41910000D02*
X66040000Y-39863145D01*
X93013145Y-40830000D02*
X90473145Y-43370000D01*
X91655000Y-35560000D02*
X93013145Y-36918145D01*
X66040000Y-41910000D02*
X66040000Y-45720000D01*
X79180000Y-43370000D02*
X67500000Y-43370000D01*
X90473145Y-43370000D02*
X80655000Y-43370000D01*
X66040000Y-45720000D02*
X66230000Y-45910000D01*
X70153145Y-45910000D02*
X69230000Y-45910000D01*
X72693145Y-48450000D02*
X70153145Y-45910000D01*
X77773145Y-47180000D02*
X76503145Y-48450000D01*
X66230000Y-45910000D02*
X67930000Y-45910000D01*
X66040000Y-39863145D02*
X67998119Y-37905026D01*
X80655000Y-43370000D02*
X77773145Y-46251855D01*
X91553145Y-35560000D02*
X91655000Y-35560000D01*
%TO.N,/HEF*%
X67610000Y-27975000D02*
X70525000Y-27975000D01*
X70525000Y-27975000D02*
X70575000Y-27925000D01*
%TD*%
M02*
